999
"DXF R12 Output" (www.mydxf.blogspot.com)
 0 
SECTION
 2 
HEADER
 9 
$ACADVER
 1 
AC1009
 9 
$EXTMIN
 10 
 0 
 20 
 0 
 9 
$EXTMAX
 10 
 8.5 
 20 
 11 
 0 
ENDSEC
 0 
SECTION
 2 
ENTITIES
0
LINE
8
Outline
10
69.318231
20
60.010475
11
69.168343
21
60.085419
0
LINE
8
Outline
10
69.168343
20
60.085419
11
68.502630
21
60.276878
0
LINE
8
Outline
10
68.502630
20
60.276878
11
67.833403
21
60.239991
0
LINE
8
Outline
10
67.833403
20
60.239991
11
67.213358
21
59.985298
0
LINE
8
Outline
10
67.213358
20
59.985298
11
66.695190
21
59.523338
0
LINE
8
Outline
10
66.695190
20
59.523338
11
65.987905
21
58.750478
0
LINE
8
Outline
10
65.987905
20
58.750478
11
64.072146
21
57.050184
0
LINE
8
Outline
10
64.072146
20
57.050184
11
62.743060
21
56.072398
0
LINE
8
Outline
10
62.743060
20
56.072398
11
61.083752
21
55.073534
0
LINE
8
Outline
10
61.083752
20
55.073534
11
59.129351
21
54.173034
0
LINE
8
Outline
10
59.129351
20
54.173034
11
56.914988
21
53.490340
0
LINE
8
Outline
10
56.914988
20
53.490340
11
54.479305
21
52.848632
0
LINE
8
Outline
10
54.479305
20
52.848632
11
51.706374
21
51.953987
0
LINE
8
Outline
10
51.706374
20
51.953987
11
51.556485
21
51.916515
0
LINE
8
Outline
10
51.556485
20
51.916515
11
48.746083
21
50.829826
0
LINE
8
Outline
10
48.746083
20
50.829826
11
46.895902
21
49.710349
0
LINE
8
Outline
10
46.895902
20
49.710349
11
45.298656
21
48.169311
0
LINE
8
Outline
10
45.298656
20
48.169311
11
43.312639
21
45.396380
0
LINE
8
Outline
10
43.312639
20
45.396380
11
43.125277
21
45.096604
0
LINE
8
Outline
10
43.125277
20
45.096604
11
41.528032
21
43.138690
0
LINE
8
Outline
10
41.528032
20
43.138690
11
39.677851
21
41.574232
0
LINE
8
Outline
10
39.677851
20
41.574232
11
36.904919
21
50.342689
0
LINE
8
Outline
10
36.904919
20
50.342689
11
37.584101
21
51.227966
0
LINE
8
Outline
10
37.584101
20
51.227966
11
37.841722
21
52.366179
0
LINE
8
Outline
10
37.841722
20
52.366179
11
37.631527
21
53.398417
0
LINE
8
Outline
10
37.631527
20
53.398417
11
37.059492
21
54.244465
0
LINE
8
Outline
10
37.059492
20
54.244465
11
36.213443
21
54.816499
0
LINE
8
Outline
10
36.213443
20
54.816499
11
35.181204
21
55.026694
0
LINE
8
Outline
10
35.181204
20
55.026694
11
34.148967
21
54.816499
0
LINE
8
Outline
10
34.148967
20
54.816499
11
33.302919
21
54.244465
0
LINE
8
Outline
10
33.302919
20
54.244465
11
32.730884
21
53.398417
0
LINE
8
Outline
10
32.730884
20
53.398417
11
32.520690
21
52.366179
0
LINE
8
Outline
10
32.520690
20
52.366179
11
32.778310
21
51.242018
0
LINE
8
Outline
10
32.778310
20
51.242018
11
33.457492
21
50.342689
0
LINE
8
Outline
10
33.457492
20
50.342689
11
30.722034
21
41.799065
0
LINE
8
Outline
10
30.722034
20
41.799065
11
29.017056
21
43.311998
0
LINE
8
Outline
10
29.017056
20
43.311998
11
27.536910
21
45.134076
0
LINE
8
Outline
10
27.536910
20
45.134076
11
27.274605
21
45.358908
0
LINE
8
Outline
10
27.274605
20
45.358908
11
25.288587
21
48.094367
0
LINE
8
Outline
10
25.288587
20
48.094367
11
23.691342
21
49.635404
0
LINE
8
Outline
10
23.691342
20
49.635404
11
21.841160
21
50.754882
0
LINE
8
Outline
10
21.841160
20
50.754882
11
19.030757
21
51.841571
0
LINE
8
Outline
10
19.030757
20
51.841571
11
18.880869
21
51.879043
0
LINE
8
Outline
10
18.880869
20
51.879043
11
16.075150
21
52.773688
0
LINE
8
Outline
10
16.075150
20
52.773688
11
13.634784
21
53.415396
0
LINE
8
Outline
10
13.634784
20
53.415396
11
11.419835
21
54.098090
0
LINE
8
Outline
10
11.419835
20
54.098090
11
9.461335
21
54.998590
0
LINE
8
Outline
10
9.461335
20
54.998590
11
7.790902
21
55.997454
0
LINE
8
Outline
10
7.790902
20
55.997454
11
6.440153
21
56.975240
0
LINE
8
Outline
10
6.440153
20
56.975240
11
4.566551
21
58.647429
0
LINE
8
Outline
10
4.566551
20
58.647429
11
3.817110
21
59.448394
0
LINE
8
Outline
10
3.817110
20
59.448394
11
3.298942
21
59.910354
0
LINE
8
Outline
10
3.298942
20
59.910354
11
2.678897
21
60.165047
0
LINE
8
Outline
10
2.678897
20
60.165047
11
2.009670
21
60.201934
0
LINE
8
Outline
10
2.009670
20
60.201934
11
1.343956
21
60.010475
0
LINE
8
Outline
10
1.343956
20
60.010475
11
1.194067
21
59.935531
0
LINE
8
Outline
10
1.194067
20
59.935531
11
0.628474
21
59.536219
0
LINE
8
Outline
10
0.628474
20
59.536219
11
0.238531
21
58.989362
0
LINE
8
Outline
10
0.238531
20
58.989362
11
0.045315
21
58.344140
0
LINE
8
Outline
10
0.045315
20
58.344140
11
0.069906
21
57.649736
0
LINE
8
Outline
10
0.069906
20
57.649736
11
0.720983
21
55.448254
0
LINE
8
Outline
10
0.720983
20
55.448254
11
1.793620
21
53.190564
0
LINE
8
Outline
10
1.793620
20
53.190564
11
1.414216
21
52.333391
0
LINE
8
Outline
10
1.414216
20
52.333391
11
1.456372
21
51.391906
0
LINE
8
Outline
10
1.456372
20
51.391906
11
1.798304
21
50.361425
0
LINE
8
Outline
10
1.798304
20
50.361425
11
2.505589
21
48.768864
0
LINE
8
Outline
10
2.505589
20
48.768864
11
2.201128
21
47.991319
0
LINE
8
Outline
10
2.201128
20
47.991319
11
2.205812
21
47.157566
0
LINE
8
Outline
10
2.205812
20
47.157566
11
2.280757
21
46.857790
0
LINE
8
Outline
10
2.280757
20
46.857790
11
2.899045
21
44.918612
0
LINE
8
Outline
10
2.899045
20
44.918612
11
3.854582
21
42.923226
0
LINE
8
Outline
10
3.854582
20
42.923226
11
3.414286
21
41.986425
0
LINE
8
Outline
10
3.414286
20
41.986425
11
3.479862
21
40.937208
0
LINE
8
Outline
10
3.479862
20
40.937208
11
4.299562
21
38.909034
0
LINE
8
Outline
10
4.299562
20
38.909034
11
4.981671
21
37.622689
0
LINE
8
Outline
10
4.981671
20
37.622689
11
5.878072
21
36.290675
0
LINE
8
Outline
10
5.878072
20
36.290675
11
7.275662
21
34.709823
0
LINE
8
Outline
10
7.275662
20
34.709823
11
8.824311
21
33.508376
0
LINE
8
Outline
10
8.824311
20
33.508376
11
10.520506
21
32.686333
0
LINE
8
Outline
10
10.520506
20
32.686333
11
12.360734
21
32.243695
0
LINE
8
Outline
10
12.360734
20
32.243695
11
12.435679
21
32.243695
0
LINE
8
Outline
10
12.435679
20
32.243695
11
14.636575
21
31.931038
0
LINE
8
Outline
10
14.636575
20
31.931038
11
17.789496
21
31.316262
0
LINE
8
Outline
10
17.789496
20
31.316262
11
21.104015
21
30.378290
0
LINE
8
Outline
10
21.104015
20
30.378290
11
22.574865
21
29.781518
0
LINE
8
Outline
10
22.574865
20
29.781518
11
23.789706
21
29.096043
0
LINE
8
Outline
10
23.789706
20
29.096043
11
23.827178
21
29.058571
0
LINE
8
Outline
10
23.827178
20
29.058571
11
24.014538
21
28.946155
0
LINE
8
Outline
10
24.014538
20
28.946155
11
23.602346
21
27.784522
0
LINE
8
Outline
10
23.602346
20
27.784522
11
23.480562
21
27.158622
0
LINE
8
Outline
10
23.480562
20
27.158622
11
23.555506
21
26.543261
0
LINE
8
Outline
10
23.555506
20
26.543261
11
23.813126
21
25.977081
0
LINE
8
Outline
10
23.813126
20
25.977081
11
24.239370
21
25.498727
0
LINE
8
Outline
10
24.239370
20
25.498727
11
24.735875
21
25.189583
0
LINE
8
Outline
10
24.735875
20
25.189583
11
25.288587
21
25.049063
0
LINE
8
Outline
10
25.288587
20
25.049063
11
24.052010
21
21.301859
0
LINE
8
Outline
10
24.052010
20
21.301859
11
23.939594
21
20.814724
0
LINE
8
Outline
10
23.939594
20
20.814724
11
1.718676
21
20.814724
0
LINE
8
Outline
10
1.718676
20
20.814724
11
1.718676
21
20.814724
0
LINE
8
Outline
10
1.718676
20
20.814724
11
1.718676
21
20.814724
0
LINE
8
Outline
10
1.718676
20
20.814724
11
1.115025
21
20.690012
0
LINE
8
Outline
10
1.115025
20
20.690012
11
0.627303
21
20.351006
0
LINE
8
Outline
10
0.627303
20
20.351006
11
0.301179
21
19.850403
0
LINE
8
Outline
10
0.301179
20
19.850403
11
0.182322
21
19.240897
0
LINE
8
Outline
10
0.182322
20
19.240897
11
0.182322
21
19.203424
0
LINE
8
Outline
10
0.182322
20
19.203424
11
0.182322
21
19.203424
0
LINE
8
Outline
10
0.182322
20
19.203424
11
0.182322
21
8.598839
0
LINE
8
Outline
10
0.182322
20
8.598839
11
0.307034
21
7.989332
0
LINE
8
Outline
10
0.307034
20
7.989332
11
0.646039
21
7.488729
0
LINE
8
Outline
10
0.646039
20
7.488729
11
1.146642
21
7.149724
0
LINE
8
Outline
10
1.146642
20
7.149724
11
1.756148
21
7.025013
0
LINE
8
Outline
10
1.756148
20
7.025013
11
3.367446
21
7.025013
0
LINE
8
Outline
10
3.367446
20
7.025013
11
68.906040
21
7.025013
0
LINE
8
Outline
10
68.906040
20
7.025013
11
69.489199
21
7.137429
0
LINE
8
Outline
10
69.489199
20
7.137429
11
69.973994
21
7.446573
0
LINE
8
Outline
10
69.973994
20
7.446573
11
70.318268
21
7.910289
0
LINE
8
Outline
10
70.318268
20
7.910289
11
70.479866
21
8.486422
0
LINE
8
Outline
10
70.479866
20
8.486422
11
70.479866
21
8.486422
0
LINE
8
Outline
10
70.479866
20
8.486422
11
70.479866
21
19.240897
0
LINE
8
Outline
10
70.479866
20
19.240897
11
70.442393
21
19.465730
0
LINE
8
Outline
10
70.442393
20
19.465730
11
70.265572
21
19.986825
0
LINE
8
Outline
10
70.265572
20
19.986825
11
69.927153
21
20.402530
0
LINE
8
Outline
10
69.927153
20
20.402530
11
69.462265
21
20.677715
0
LINE
8
Outline
10
69.462265
20
20.677715
11
68.906040
21
20.777250
0
LINE
8
Outline
10
68.906040
20
20.777250
11
68.906040
21
20.777250
0
LINE
8
Outline
10
68.906040
20
20.777250
11
46.347874
21
20.777250
0
LINE
8
Outline
10
46.347874
20
20.777250
11
46.235456
21
21.264388
0
LINE
8
Outline
10
46.235456
20
21.264388
11
44.998880
21
25.011591
0
LINE
8
Outline
10
44.998880
20
25.011591
11
45.734268
21
25.095903
0
LINE
8
Outline
10
45.734268
20
25.095903
11
46.385345
21
25.461255
0
LINE
8
Outline
10
46.385345
20
25.461255
11
46.811589
21
25.939609
0
LINE
8
Outline
10
46.811589
20
25.939609
11
47.069209
21
26.505789
0
LINE
8
Outline
10
47.069209
20
26.505789
11
47.144154
21
27.121150
0
LINE
8
Outline
10
47.144154
20
27.121150
11
47.022371
21
27.747050
0
LINE
8
Outline
10
47.022371
20
27.747050
11
46.610177
21
28.908683
0
LINE
8
Outline
10
46.610177
20
28.908683
11
46.760065
21
29.021099
0
LINE
8
Outline
10
46.760065
20
29.021099
11
46.797539
21
29.058571
0
LINE
8
Outline
10
46.797539
20
29.058571
11
48.645378
21
30.030502
0
LINE
8
Outline
10
48.645378
20
30.030502
11
51.237975
21
30.904069
0
LINE
8
Outline
10
51.237975
20
30.904069
11
54.448860
21
31.651168
0
LINE
8
Outline
10
54.448860
20
31.651168
11
58.151564
21
32.243695
0
LINE
8
Outline
10
58.151564
20
32.243695
11
58.189038
21
32.243695
0
LINE
8
Outline
10
58.189038
20
32.243695
11
60.029265
21
32.670525
0
LINE
8
Outline
10
60.029265
20
32.670525
11
61.725460
21
33.494324
0
LINE
8
Outline
10
61.725460
20
33.494324
11
63.274109
21
34.704554
0
LINE
8
Outline
10
63.274109
20
34.704554
11
64.671699
21
36.290675
0
LINE
8
Outline
10
64.671699
20
36.290675
11
65.552292
21
37.622103
0
LINE
8
Outline
10
65.552292
20
37.622103
11
66.236156
21
38.904350
0
LINE
8
Outline
10
66.236156
20
38.904350
11
67.069911
21
40.899736
0
LINE
8
Outline
10
67.069911
20
40.899736
11
67.135487
21
41.948953
0
LINE
8
Outline
10
67.135487
20
41.948953
11
66.695190
21
42.885754
0
LINE
8
Outline
10
66.695190
20
42.885754
11
67.617938
21
44.867088
0
LINE
8
Outline
10
67.617938
20
44.867088
11
68.231543
21
46.820318
0
LINE
8
Outline
10
68.231543
20
46.820318
11
68.306487
21
47.120094
0
LINE
8
Outline
10
68.306487
20
47.120094
11
68.339275
21
47.967899
0
LINE
8
Outline
10
68.339275
20
47.967899
11
68.006711
21
48.731391
0
LINE
8
Outline
10
68.006711
20
48.731391
11
68.713995
21
50.338005
0
LINE
8
Outline
10
68.713995
20
50.338005
11
69.055928
21
51.354434
0
LINE
8
Outline
10
69.055928
20
51.354434
11
69.098083
21
52.295919
0
LINE
8
Outline
10
69.098083
20
52.295919
11
68.718678
21
53.153092
0
LINE
8
Outline
10
68.718678
20
53.153092
11
69.758529
21
55.396730
0
LINE
8
Outline
10
69.758529
20
55.396730
11
70.404922
21
57.612264
0
LINE
8
Outline
10
70.404922
20
57.612264
11
70.451176
21
58.371659
0
LINE
8
Outline
10
70.451176
20
58.371659
11
70.269085
21
59.050254
0
LINE
8
Outline
10
70.269085
20
59.050254
11
69.883240
21
59.609407
0
LINE
8
Outline
10
69.883240
20
59.609407
11
69.318231
21
60.010475
0
LINE
8
Outline
10
69.318231
20
60.010475
11
69.318231
21
60.010475
 0 
ENDSEC
 0 
EOF
