<!-- Generator: Adobe Illustrator 19.1.0, SVG Export Plug-In . SVG Version: 6.00 Build 0)  --><svg xmlns:dc="http://purl.org/dc/elements/1.1/" xmlns:cc="http://creativecommons.org/ns#" xmlns:rdf="http://www.w3.org/1999/02/22-rdf-syntax-ns#" xmlns:svg="http://www.w3.org/2000/svg" xmlns="http://www.w3.org/2000/svg" xmlns:sodipodi="http://sodipodi.sourceforge.net/DTD/sodipodi-0.dtd" xmlns:inkscape="http://www.inkscape.org/namespaces/inkscape" version="1.1" id="Layer_1" x="0px" y="0px" viewBox="0 0 249.63318 188.73219" xml:space="preserve" sodipodi:docname="BadgeStar.svg" inkscape:version="0.92.3 (2405546, 2018-03-11)" width="66.048782mm" height="49.935394mm"><metadata id="metadata9"><rdf:RDF><cc:Work rdf:about=""><dc:format>image/svg+xml</dc:format><dc:type rdf:resource="http://purl.org/dc/dcmitype/StillImage"/><dc:title/></cc:Work></rdf:RDF></metadata><defs id="defs7"/><sodipodi:namedview pagecolor="#ffffff" bordercolor="#666666" borderopacity="1" objecttolerance="10" gridtolerance="10" guidetolerance="10" inkscape:pageopacity="0" inkscape:pageshadow="2" inkscape:window-width="1680" inkscape:window-height="987" id="namedview5" showgrid="false" inkscape:zoom="3.488434" inkscape:cx="66.2781" inkscape:cy="85.567912" inkscape:window-x="-8" inkscape:window-y="-8" inkscape:window-maximized="1" inkscape:current-layer="layer6" units="mm" scale-x="1" fit-margin-top="0" fit-margin-left="0" fit-margin-right="0" fit-margin-bottom="0"/>

<svg:g inkscape:groupmode="layer" id="layer1" inkscape:label="Outline" style="display:inline" transform="translate(-0.09861897,24.891778)"><svg:path d="m 245.61578,-23.903343 -0.5311,-0.26555 c -3.05382,-1.460524 -6.63874,-0.663874 -8.76314,1.991624 -0.13278,0.132775 -3.45215,4.248798 -9.29425,8.763146 -5.44377,4.3815729 -14.33969,10.0908952 -25.36001,12.61361899 -4.51435,1.06219949 -12.34807,3.18659851 -18.45572,5.44377241 l -0.5311,0.1327749 c -3.1866,1.1949744 -6.63874,2.3899489 -9.95812,3.8504732 -4.64712,2.1243985 -8.76314,5.3109975 -12.21529,9.4270205 -2.6555,3.186598 -4.91267,6.505972 -7.03707,9.825345 l -0.66388,1.0622 c -3.45215,5.045447 -7.56817,9.294245 -12.21529,12.480844 l -9.82535,-31.069335 c 1.99163,-1.7260745 3.31938,-4.2487983 3.31938,-7.1698469 0,-5.1782225 -4.2488,-9.4270205 -9.42703,-9.4270205 -5.17822,0 -9.42702,4.248798 -9.42702,9.4270205 0,2.7882736 1.32775,5.4437724 3.31938,7.1698469 L 108.8576,40.625276 C 104.6088,37.438678 100.75833,33.45543 97.571727,28.808307 l -0.929425,-0.79665 C 94.517903,24.825059 92.260729,21.505685 89.605231,18.319087 86.153082,14.203064 82.037059,11.016465 77.389937,8.8920663 74.070563,7.431542 70.75119,6.2365676 67.431816,5.0415932 L 66.900717,4.9088182 C 60.660295,2.6516443 52.826573,0.52724535 48.312226,-0.53495414 37.291906,-3.0576779 28.395985,-8.7670002 22.819438,-13.148573 c -5.709322,-4.514348 -8.895921,-8.364821 -9.294246,-8.763146 -2.124398,-2.655499 -5.709321,-3.452148 -8.7631445,-1.991624 l -0.5310998,0.26555 c -3.0538235,1.460524 -4.64712277,4.779898 -3.98324809,8.099271 C 1.3098991,-10.360299 3.3015232,-5.1820769 6.3553467,0.26169548 5.0275973,2.1205446 4.4964976,4.3777185 5.1603723,6.6348924 5.5586971,8.0954167 6.7536715,11.813115 8.8780705,15.929138 7.815871,17.655212 7.4175462,19.646836 7.815871,21.63846 l 0.2655499,1.0622 c 1.0621995,4.514348 2.9210481,9.16147 5.5765461,13.941368 -1.593298,1.858849 -2.124398,4.647123 -1.327748,7.037072 1.194973,3.452148 3.717697,10.22367 8.497595,16.464092 6.240422,8.364821 13.941368,13.144718 22.970064,14.339693 h 0.26555 c 6.904296,0.796649 30.272685,4.248798 40.230805,11.153097 l 0.132775,0.132775 c 0.132775,0.132775 0.398325,0.26555 0.663875,0.398325 l -1.460524,4.116023 c -1.0622,2.921048 -0.132775,6.107647 2.257174,8.099271 1.062199,0.929425 2.389948,1.460524 3.717698,1.593299 l -4.381573,13.277495 c -0.132775,0.5311 -0.26555,1.19497 -0.398325,1.72607 H 6.0897968 v 0 c 0,0 0,0 0,0 -3.0538235,0 -5.44377238,2.52273 -5.44377238,5.57655 0,0 0,0 0,0.13278 0,0 0,0 0,0 v 37.5753 c 0,3.05383 2.52272378,5.57655 5.57654738,5.57655 H 11.931894 244.15526 c 2.92105,0 5.311,-2.25717 5.57655,-5.17822 0,0 0,0 0,0 v -38.10641 c 0,-0.26555 0,-0.5311 -0.13278,-0.79665 -0.39832,-2.6555 -2.6555,-4.64712 -5.44377,-4.64712 v 0 h -79.93051 c 0,-0.5311 -0.13278,-1.19498 -0.39833,-1.72608 l -4.38157,-13.27749 c 1.72607,0.13278 3.58492,-0.398325 4.91267,-1.593299 2.38995,-1.991624 3.31937,-5.178223 2.25718,-8.099271 l -1.46053,-4.116023 c 0.13278,-0.132775 0.39833,-0.26555 0.5311,-0.398325 l 0.13278,-0.132775 c 6.77152,-4.779898 21.77509,-8.895923 40.2308,-11.285872 h 0.13278 c 9.02869,-1.0622 16.72964,-5.974872 22.97006,-14.339693 4.64712,-6.240422 7.30262,-13.011944 8.4976,-16.331317 0.79665,-2.389949 0.26555,-5.178223 -1.32775,-7.037072 2.52272,-4.647123 4.38157,-9.427021 5.44377,-13.941368 l 0.26555,-1.0622 c 0.5311,-1.991624 0.13277,-4.116023 -1.0622,-5.709322 2.1244,-4.248798 3.31937,-7.8337214 3.7177,-9.2942456 0.66387,-2.257174 0.13277,-4.5143479 -1.19498,-6.37319699 2.92105,-5.31099741 4.91268,-10.62199441 5.97488,-15.80021741 0.79664,-3.717698 -0.79665,-7.037072 -3.85048,-8.497596 z" id="path2" inkscape:connector-curvature="0" style="stroke-width:1.32774937"/></svg:g></svg>