<!-- Generator: Adobe Illustrator 19.1.0, SVG Export Plug-In . SVG Version: 6.00 Build 0)  --><svg xmlns:dc="http://purl.org/dc/elements/1.1/" xmlns:cc="http://creativecommons.org/ns#" xmlns:rdf="http://www.w3.org/1999/02/22-rdf-syntax-ns#" xmlns:svg="http://www.w3.org/2000/svg" xmlns="http://www.w3.org/2000/svg" xmlns:sodipodi="http://sodipodi.sourceforge.net/DTD/sodipodi-0.dtd" xmlns:inkscape="http://www.inkscape.org/namespaces/inkscape" version="1.1" id="Layer_1" x="0px" y="0px" viewBox="0 0 249.63318 188.73219" xml:space="preserve" sodipodi:docname="BadgeStar.svg" inkscape:version="0.92.3 (2405546, 2018-03-11)" width="66.048782mm" height="49.935394mm"><metadata id="metadata9"><rdf:RDF><cc:Work rdf:about=""><dc:format>image/svg+xml</dc:format><dc:type rdf:resource="http://purl.org/dc/dcmitype/StillImage"/><dc:title/></cc:Work></rdf:RDF></metadata><defs id="defs7"/><sodipodi:namedview pagecolor="#ffffff" bordercolor="#666666" borderopacity="1" objecttolerance="10" gridtolerance="10" guidetolerance="10" inkscape:pageopacity="0" inkscape:pageshadow="2" inkscape:window-width="1680" inkscape:window-height="987" id="namedview5" showgrid="false" inkscape:zoom="3.488434" inkscape:cx="66.2781" inkscape:cy="85.567912" inkscape:window-x="-8" inkscape:window-y="-8" inkscape:window-maximized="1" inkscape:current-layer="layer6" units="mm" scale-x="1" fit-margin-top="0" fit-margin-left="0" fit-margin-right="0" fit-margin-bottom="0"/>

<svg:g inkscape:groupmode="layer" id="layer5" inkscape:label="Star" style="display:inline" transform="translate(-0.09861897,24.891778)"><svg:g style="display:inline;fill:#000000" id="g46" transform="matrix(1.3277494,0,0,1.3277494,-31.786481,-36.897577)"><svg:g style="display:inline;fill:#000000" inkscape:label="Slashes" id="layer3"><svg:path inkscape:connector-curvature="0" id="path8" d="m 67.1,147.1 c -0.1,0 -0.1,0.1 0,0 -0.1,0.1 -0.1,0.1 -0.1,0.1 0,0 -0.1,0 -0.1,0 0,0 -0.1,0 -0.2,0 -0.1,0 -0.1,0 -0.2,0 -0.1,0 -0.1,0 -0.1,0 0,0 0,0 -0.1,-0.1 0,0 0,-0.1 0,-0.1 l 2.8,-7.7 c 0,0 0,-0.1 0,-0.1 0,0 0,0 0.1,-0.1 0.1,-0.1 0.1,0 0.1,0 0,0 0.1,0 0.2,0 0.1,0 0.1,0 0.2,0 0,0 0.1,0 0.1,0 0,0 0,0 0.1,0.1 0,0 0,0.1 0,0.1 z" style="fill:#000000"/><svg:path inkscape:connector-curvature="0" id="path10" d="m 69.9,147.1 c 0,0 0,0.1 0,0 -0.1,0.1 -0.1,0.1 -0.1,0.1 0,0 -0.1,0 -0.1,0 0,0 -0.1,0 -0.2,0 -0.1,0 -0.1,0 -0.2,0 -0.1,0 -0.1,0 -0.1,0 0,0 0,0 -0.1,-0.1 0,0 0,-0.1 0,-0.1 l 2.8,-7.7 c 0,0 0,-0.1 0,-0.1 0,0 0,0 0.1,-0.1 0,0 0.1,0 0.1,0 0,0 0.1,0 0.2,0 0.1,0 0.1,0 0.2,0 0,0 0.1,0 0.1,0 0,0 0,0 0.1,0.1 0,0 0,0.1 0,0.1 z" style="fill:#000000"/><svg:path inkscape:connector-curvature="0" id="path14" d="m 131.4,147.1 c 0,0 0,0.1 0,0 -0.1,0.1 -0.1,0.1 -0.1,0.1 0,0 -0.1,0 -0.1,0 0,0 -0.1,0 -0.2,0 -0.1,0 -0.1,0 -0.2,0 -0.1,0 -0.1,0 -0.1,0 0,0 0,0 -0.1,-0.1 0,0 0,-0.1 0,-0.1 l 2.8,-7.7 c 0,0 0,-0.1 0,-0.1 0,0 0,0 0.1,-0.1 0,0 0.1,0 0.1,0 0,0 0.1,0 0.2,0 0.1,0 0.1,0 0.2,0 0,0 0.1,0 0.1,0 0,0 0,0 0,0.1 0,0 0,0.1 0,0.1 z" style="fill:#000000"/><svg:path inkscape:connector-curvature="0" id="path12" d="m 128.5,147.1 c 0,0 0,0.1 0,0 -0.1,0.1 -0.1,0.1 -0.1,0.1 0,0 -0.1,0 -0.1,0 0,0 -0.1,0 -0.2,0 -0.1,0 -0.1,0 -0.2,0 0,0 -0.1,0 -0.1,0 0,0 0,0 -0.1,-0.1 0,0 0,-0.1 0,-0.1 l 2.8,-7.7 c 0,0 0,-0.1 0,-0.1 0,0 0,0 0.1,-0.1 0,0 0.1,0 0.1,0 0,0 0.1,0 0.2,0 0.1,0 0.1,0 0.2,0 0,0 0.1,0 0.1,0 0,0 0,0 0,0.1 0,0 0,0.1 0,0.1 z" style="fill:#000000"/></svg:g><svg:g style="display:inline;fill:#000000" inkscape:label="Outer" id="layer2"><svg:path inkscape:connector-curvature="0" id="path4" d="m 157.2,68.6 -30.4,0.2 -9.2,-28.9 -9.2,28.9 -30.4,-0.2 24.7,17.7 -9.6,28.8 24.5,-18 24.5,18 -9.6,-28.8 z m -17.3,42.8 c 0.1,0.2 0,0.5 -0.2,0.6 -0.1,0 -0.1,0.1 -0.2,0.1 -0.2,0 -0.3,-0.1 -0.4,-0.2 l -20.8,-29.2 -1,13.3 c 0,0.1 -0.1,0.3 -0.2,0.4 l -21,15.5 c -0.1,0.1 -0.2,0.1 -0.3,0.1 -0.1,0 -0.3,0 -0.3,-0.1 -0.2,-0.2 -0.2,-0.4 -0.1,-0.6 L 116,81.9 103.7,85.7 c 0,0 -0.1,0 -0.1,0 -0.1,0 -0.2,0 -0.3,-0.1 L 82.1,70.4 c -0.2,-0.1 -0.3,-0.4 -0.2,-0.6 0.1,-0.2 0.3,-0.3 0.4,-0.3 0,0 0.1,0 0.1,0 l 33.4,10 -6.7,-10 C 109,69.4 109,69.2 109,69.1 l 7.9,-24.9 c 0.1,-0.2 0.3,-0.3 0.5,-0.3 0,0 0.1,0 0.1,0 0.2,0 0.4,0.2 0.4,0.5 l 0.1,34.8 8.2,-9.3 c 0.1,-0.1 0.2,-0.2 0.4,-0.2 l 26,-0.2 c 0,0 0,0 0,0 0.2,0 0.5,0.2 0.5,0.4 0,0.2 -0.1,0.5 -0.3,0.6 l -33.4,10.4 11.8,5.5 c 0.1,0.1 0.2,0.2 0.3,0.3 z" style="fill:#000000"/></svg:g><svg:g style="display:inline;fill:#000000" inkscape:label="Fill" id="layer1-5"><svg:g id="g6" style="fill:#000000">
	<svg:polygon id="polygon2" points="103.6,85.2 117.2,81 95.9,111.5 116.8,96 117.8,81.2 139.4,111.5 131.2,86.7 118.2,80.7 152.8,70 126.8,70.1 117.7,80.4 117.6,44.3 109.7,69.2 117.2,80.3 82.4,70 " style="fill:#000000"/>
	
</svg:g></svg:g></svg:g></svg:g></svg>