<!-- Generator: Adobe Illustrator 19.1.0, SVG Export Plug-In . SVG Version: 6.00 Build 0)  --><svg xmlns:dc="http://purl.org/dc/elements/1.1/" xmlns:cc="http://creativecommons.org/ns#" xmlns:rdf="http://www.w3.org/1999/02/22-rdf-syntax-ns#" xmlns:svg="http://www.w3.org/2000/svg" xmlns="http://www.w3.org/2000/svg" xmlns:sodipodi="http://sodipodi.sourceforge.net/DTD/sodipodi-0.dtd" xmlns:inkscape="http://www.inkscape.org/namespaces/inkscape" version="1.1" id="Layer_1" x="0px" y="0px" viewBox="0 0 249.63318 188.73219" xml:space="preserve" sodipodi:docname="BadgeStar.svg" inkscape:version="0.92.3 (2405546, 2018-03-11)" width="66.048782mm" height="49.935394mm"><metadata id="metadata9"><rdf:RDF><cc:Work rdf:about=""><dc:format>image/svg+xml</dc:format><dc:type rdf:resource="http://purl.org/dc/dcmitype/StillImage"/><dc:title/></cc:Work></rdf:RDF></metadata><defs id="defs7"/><sodipodi:namedview pagecolor="#ffffff" bordercolor="#666666" borderopacity="1" objecttolerance="10" gridtolerance="10" guidetolerance="10" inkscape:pageopacity="0" inkscape:pageshadow="2" inkscape:window-width="1680" inkscape:window-height="987" id="namedview5" showgrid="false" inkscape:zoom="3.488434" inkscape:cx="66.2781" inkscape:cy="85.567912" inkscape:window-x="-8" inkscape:window-y="-8" inkscape:window-maximized="1" inkscape:current-layer="layer6" units="mm" scale-x="1" fit-margin-top="0" fit-margin-left="0" fit-margin-right="0" fit-margin-bottom="0"/>

<svg:g inkscape:groupmode="layer" id="layer6" inkscape:label="WingsText" style="display:inline" transform="translate(-0.09861897,24.891778)"><svg:g id="g177" transform="matrix(1.3277494,0,0,1.3277494,-30.458732,-38.490876)" style="fill:#000000">
	<svg:polygon id="polygon125" points="41.1,127.1 41.1,125 38.9,125 38.9,134.1 40.9,134.1 40.9,137.9 32.2,137.9 32.2,134.1 34.1,134.1 34.1,125 31.9,125 31.9,127.1 28.6,127.1 28.6,121.3 44.4,121.3 44.4,127.1 " style="fill:#000000"/>
	<svg:polygon id="polygon127" points="57.9,130.9 53.1,130.9 53.1,134 54.7,134 54.7,137.9 46.4,137.9 46.4,134 48.3,134 48.3,125.2 46.4,125.2 46.4,121.3 54.7,121.3 54.7,125.2 53.1,125.2 53.1,127.3 57.9,127.3 57.9,125.2 56.1,125.2 56.1,121.3 64.4,121.3 64.4,125.2 62.7,125.2 62.7,134 64.4,134 64.4,137.9 56.1,137.9 56.1,134 57.9,134 " style="fill:#000000"/>
	<svg:polygon id="polygon129" points="77,126 77,125 73.1,125 73.1,127.5 77.8,127.5 77.8,131 73.1,131 73.1,134.3 77,134.3 77,133.3 79.7,133.3 79.7,137.9 66.4,137.9 66.4,134 68.3,134 68.3,125.2 66.4,125.2 66.4,121.3 79.7,121.3 79.7,126 " style="fill:#000000"/>
	<svg:path id="path131" d="M 89.9,125.2 H 88 v -3.9 h 11.8 c 1.8,0 3.1,0.4 3.9,1.1 0.8,0.7 1.2,1.6 1.2,2.7 0,1 -0.4,1.9 -1.2,2.7 -0.8,0.7 -1.7,1.1 -2.7,1.1 0.9,0 1.8,0.6 2.7,1.8 0.5,0.6 0.7,1.7 0.8,3.4 h 1.8 V 138 H 98 v -4 h 1.3 v -0.7 c 0,-1.5 -0.4,-2.3 -1.1,-2.3 h -3.6 v 3 h 1.6 v 3.9 H 88 V 134 h 1.9 z m 4.8,2.3 h 3.6 c 0.4,0 0.7,-0.2 0.9,-0.5 0.2,-0.2 0.3,-0.5 0.3,-0.8 0,-0.3 -0.1,-0.5 -0.3,-0.8 C 99,125.1 98.7,125 98.3,125 h -3.6 z" inkscape:connector-curvature="0" style="fill:#000000"/>
	<svg:polygon id="polygon133" points="118.2,126 118.2,125 114.3,125 114.3,127.5 119.1,127.5 119.1,131 114.3,131 114.3,134.3 118.2,134.3 118.2,133.3 121,133.3 121,137.9 107.7,137.9 107.7,134 109.5,134 109.5,125.2 107.7,125.2 107.7,121.3 121,121.3 121,126 " style="fill:#000000"/>
	<svg:path id="path135" d="m 139.9,134 h 1.5 v 3.9 h -7.7 V 134 h 1.4 l -0.6,-1.9 h -4.6 l -0.7,1.9 h 1.4 v 3.9 h -7.7 V 134 h 1.6 l 4.2,-8.8 h -1.4 v -3.9 h 7.7 z m -6.4,-4.8 c -0.7,-1.7 -1.1,-2.9 -1.3,-3.7 -0.2,0.7 -0.6,2 -1.3,3.7 z" inkscape:connector-curvature="0" style="fill:#000000"/>
	<svg:polygon id="polygon137" points="150,134.1 154.1,134.1 154.1,132.2 157.7,132.2 157.7,137.9 143.3,137.9 143.3,134 145.2,134 145.2,125.2 143.3,125.2 143.3,121.3 151.6,121.3 151.6,125.2 150,125.2 " style="fill:#000000"/>
	<svg:polygon id="polygon139" points="161.4,125.2 159.7,125.2 159.7,121.3 167.9,121.3 167.9,125.2 166.2,125.2 166.2,134 167.9,134 167.9,137.9 159.7,137.9 159.7,134 161.4,134 " style="fill:#000000"/>
	<svg:polygon id="polygon141" points="182.5,127.1 182.5,125 180.3,125 180.3,134.1 182.2,134.1 182.2,137.9 173.6,137.9 173.6,134.1 175.4,134.1 175.4,125 173.2,125 173.2,127.1 170,127.1 170,121.3 185.7,121.3 185.7,127.1 " style="fill:#000000"/>
	<svg:path id="path143" d="m 198.9,134 h 2 v 3.9 h -8.7 V 134 h 2 v -2.3 l -4.4,-6.6 h -2 v -3.9 h 7.7 v 3.9 h -1 c 0.7,1.3 1.4,2.6 2.1,3.8 0.7,-1.2 1.4,-2.4 2.1,-3.8 h -1 v -3.9 h 7.7 v 3.9 h -2 l -4.4,6.6 v 2.3 z" inkscape:connector-curvature="0" style="fill:#000000"/>
	<svg:path id="path145" d="m 31.8,146.8 c 0,0.1 0,0.1 0,0.2 0,0 0,0.1 0,0.1 0,0 0,0 -0.1,0.1 0,0 0,0 -0.1,0 H 29 c -0.1,0 -0.1,0 -0.2,-0.1 -0.1,0 -0.1,-0.1 -0.1,-0.2 v -5.5 c 0,0 0,0 0,-0.1 0,0 0,0 0.1,0 0,0 0.1,0 0.1,0 0.1,0 0.1,0 0.2,0 0.1,0 0.1,0 0.2,0 0.1,0 0.1,0 0.1,0 0,0 0.1,0 0.1,0 0,0 0,0 0,0.1 v 5.2 h 2.1 c 0,0 0.1,0 0.1,0 0,0 0,0 0.1,0.1 0,0 0,0.1 0,0.1 0,-0.1 0,0 0,0" inkscape:connector-curvature="0" style="fill:#000000"/>
	<svg:path id="path147" d="m 42.1,146.9 c 0,0.1 0,0.1 0,0.2 0,0 0,0.1 0,0.1 0,0 -0.1,0 -0.1,0 -0.1,0 -0.1,0 -0.2,0 -0.1,0 -0.2,0 -0.2,0 -0.1,0 -0.1,0 -0.1,0 0,0 -0.1,0 -0.1,0 0,0 0,0 0,-0.1 l -0.5,-1.5 h -2.5 l -0.5,1.4 c 0,0 0,0.1 0,0.1 0,0 0,0 -0.1,0.1 0,0 -0.1,0 -0.1,0 -0.1,0 -0.1,0 -0.2,0 -0.1,0 -0.2,0 -0.2,0 -0.1,0 -0.1,0 -0.1,0 0,0 0,-0.1 0,-0.1 0,0 0,-0.1 0,-0.2 l 2,-5.5 c 0,0 0,-0.1 0,-0.1 0,0 0,0 0.1,0 0,0 0.1,0 0.1,0 0.1,0 0.1,0 0.2,0 0.1,0 0.2,0 0.2,0 0.1,0 0.1,0 0.2,0 0,0 0.1,0 0.1,0.1 0,0 0,0.1 0.1,0.1 z M 39.5,142 v 0 l -1,3 h 2.1 z" inkscape:connector-curvature="0" style="fill:#000000"/>
	<svg:path id="path149" d="m 52.5,146.8 c 0,0.1 0,0.1 0,0.2 0,0 0,0.1 -0.1,0.1 0,0 -0.1,0 -0.1,0.1 0,0 -0.1,0 -0.1,0 h -0.3 c -0.1,0 -0.2,0 -0.2,0 -0.1,0 -0.1,0 -0.2,-0.1 -0.1,0 -0.1,-0.1 -0.2,-0.2 -0.1,-0.1 -0.1,-0.2 -0.2,-0.3 l -1.8,-3.4 c -0.1,-0.2 -0.2,-0.4 -0.3,-0.6 -0.1,-0.2 -0.2,-0.4 -0.3,-0.6 v 0 c 0,0.2 0,0.4 0,0.7 0,0.2 0,0.5 0,0.7 v 3.6 c 0,0 0,0 0,0.1 0,0 0,0 -0.1,0 0,0 -0.1,0 -0.1,0 -0.1,0 -0.1,0 -0.2,0 -0.1,0 -0.1,0 -0.2,0 0,0 -0.1,0 -0.1,0 0,0 0,0 -0.1,0 0,0 0,0 0,-0.1 v -5.5 c 0,-0.1 0,-0.2 0.1,-0.3 0.1,-0.1 0.1,-0.1 0.2,-0.1 h 0.4 c 0.1,0 0.2,0 0.2,0 0.1,0 0.1,0 0.2,0.1 0,0 0.1,0.1 0.1,0.1 0,0.1 0.1,0.1 0.1,0.2 l 1.4,2.6 c 0.1,0.2 0.2,0.3 0.3,0.5 0.1,0.2 0.2,0.3 0.2,0.5 0.1,0.1 0.1,0.3 0.2,0.4 0.1,0.1 0.1,0.3 0.2,0.4 v 0 c 0,-0.2 0,-0.5 0,-0.8 0,-0.3 0,-0.5 0,-0.8 v -3.2 c 0,0 0,0 0,-0.1 0,0 0,0 0.1,0 0,0 0.1,0 0.1,0 0.1,0 0.1,0 0.2,0 0.1,0 0.1,0 0.2,0 0.1,0 0.1,0 0.1,0 0,0 0,0 0.1,0 0,0 0,0 0,0.1 v 5.7 z" inkscape:connector-curvature="0" style="fill:#000000"/>
	<svg:path id="path151" d="m 87.8,146.8 c 0,0.1 0,0.1 0,0.1 0,0 0,0.1 0,0.1 0,0 0,0 -0.1,0.1 0,0 0,0 -0.1,0 h -2.9 c -0.1,0 -0.1,0 -0.2,-0.1 -0.1,0 -0.1,-0.1 -0.1,-0.3 v -5.3 c 0,-0.1 0,-0.2 0.1,-0.3 0.1,0 0.1,-0.1 0.2,-0.1 h 2.8 c 0,0 0,0 0.1,0 0,0 0,0 0,0.1 0,0 0,0.1 0,0.1 0,0 0,0.1 0,0.2 0,0.1 0,0.1 0,0.1 0,0 0,0.1 0,0.1 0,0 0,0 0,0.1 0,0 0,0 -0.1,0 h -2.3 v 1.9 h 2 c 0,0 0,0 0.1,0 0,0 0,0 0.1,0.1 0,0 0,0.1 0,0.1 0,0 0,0.1 0,0.2 0,0.1 0,0.1 0,0.1 0,0 0,0.1 0,0.1 0,0 0,0 -0.1,0.1 0,0 0,0 -0.1,0 h -2 v 2.1 h 2.4 c 0,0 0,0 0.1,0 0,0 0,0 0.1,0.1 0,0 0,0.1 0,0.1 0,0.1 0,0.2 0,0.2" inkscape:connector-curvature="0" style="fill:#000000"/>
	<svg:path id="path153" d="m 97.8,146.9 c 0,0.1 0.1,0.1 0.1,0.2 0,0 0,0.1 0,0.1 0,0 -0.1,0 -0.1,0 -0.1,0 -0.1,0 -0.3,0 -0.1,0 -0.2,0 -0.2,0 -0.1,0 -0.1,0 -0.1,0 0,0 -0.1,0 -0.1,0 0,0 0,0 0,-0.1 l -1.3,-2.4 -1.3,2.4 c 0,0 0,0 -0.1,0.1 0,0 0,0 -0.1,0 0,0 -0.1,0 -0.1,0 -0.1,0 -0.1,0 -0.2,0 -0.1,0 -0.2,0 -0.2,0 -0.1,0 -0.1,0 -0.1,0 0,0 0,-0.1 0,-0.1 0,0 0,-0.1 0.1,-0.2 l 1.6,-2.7 -1.6,-2.7 c 0,-0.1 -0.1,-0.1 -0.1,-0.2 0,0 0,-0.1 0,-0.1 0,0 0.1,0 0.1,0 0.1,0 0.1,0 0.3,0 0.1,0 0.2,0 0.2,0 0.1,0 0.1,0 0.1,0 0,0 0.1,0 0.1,0 0,0 0,0 0.1,0.1 l 1.3,2.2 1.3,-2.2 c 0,0 0,0 0,-0.1 0,0 0,0 0.1,0 0,0 0.1,0 0.1,0 0.1,0 0.1,0 0.2,0 0.1,0 0.2,0 0.2,0 0.1,0 0.1,0 0.1,0 0,0 0,0.1 0,0.1 0,0 0,0.1 -0.1,0.2 l -1.6,2.6 z" inkscape:connector-curvature="0" style="fill:#000000"/>
	<svg:path id="path155" d="m 107.5,142.9 c 0,0.3 0,0.6 -0.1,0.8 -0.1,0.2 -0.2,0.4 -0.4,0.6 -0.2,0.2 -0.4,0.3 -0.7,0.4 -0.3,0.1 -0.6,0.1 -1,0.1 h -0.7 v 2.1 c 0,0 0,0 0,0.1 0,0 0,0 -0.1,0 0,0 -0.1,0 -0.1,0 -0.1,0 -0.1,0 -0.2,0 -0.1,0 -0.1,0 -0.2,0 0,0 -0.1,0 -0.1,0 0,0 -0.1,0 -0.1,0 0,0 0,0 0,-0.1 v -5.5 c 0,-0.1 0,-0.2 0.1,-0.3 0.1,-0.1 0.1,-0.1 0.2,-0.1 h 1.3 c 0.1,0 0.3,0 0.4,0 0.1,0 0.3,0 0.4,0.1 0.2,0 0.3,0.1 0.5,0.2 0.2,0.1 0.3,0.2 0.4,0.4 0.1,0.1 0.2,0.3 0.3,0.5 0.1,0.3 0.1,0.5 0.1,0.7 m -0.8,0.1 c 0,-0.2 0,-0.4 -0.1,-0.6 -0.1,-0.2 -0.2,-0.3 -0.3,-0.4 -0.1,-0.1 -0.3,-0.1 -0.4,-0.2 -0.1,0 -0.3,0 -0.4,0 h -0.7 v 2.4 h 0.7 c 0.2,0 0.4,0 0.6,-0.1 0.2,-0.1 0.3,-0.1 0.4,-0.3 0.1,-0.1 0.2,-0.2 0.2,-0.4 -0.1,-0.1 0,-0.2 0,-0.4" inkscape:connector-curvature="0" style="fill:#000000"/>
	<svg:path id="path157" d="m 118.6,144.1 c 0,0.5 -0.1,0.9 -0.2,1.3 -0.1,0.4 -0.3,0.7 -0.5,1 -0.2,0.3 -0.5,0.5 -0.9,0.6 -0.3,0.1 -0.7,0.2 -1.2,0.2 -0.4,0 -0.8,-0.1 -1.2,-0.2 -0.3,-0.1 -0.6,-0.3 -0.8,-0.6 -0.2,-0.3 -0.4,-0.6 -0.5,-1 -0.1,-0.4 -0.2,-0.8 -0.2,-1.3 0,-0.5 0.1,-0.9 0.2,-1.3 0.1,-0.4 0.3,-0.7 0.5,-1 0.2,-0.3 0.5,-0.5 0.9,-0.6 0.3,-0.1 0.7,-0.2 1.2,-0.2 0.4,0 0.8,0.1 1.1,0.2 0.3,0.1 0.6,0.3 0.8,0.6 0.2,0.3 0.4,0.6 0.5,0.9 0.3,0.5 0.3,0.9 0.3,1.4 m -0.8,0.1 c 0,-0.3 0,-0.7 -0.1,-0.9 -0.1,-0.3 -0.2,-0.5 -0.3,-0.8 -0.1,-0.2 -0.3,-0.4 -0.6,-0.5 -0.2,-0.1 -0.5,-0.2 -0.9,-0.2 -0.3,0 -0.6,0.1 -0.9,0.2 -0.2,0.1 -0.4,0.3 -0.6,0.5 -0.1,0.2 -0.3,0.5 -0.3,0.8 -0.1,0.3 -0.1,0.6 -0.1,0.9 0,0.3 0,0.7 0.1,1 0.1,0.3 0.2,0.5 0.3,0.8 0.1,0.2 0.3,0.4 0.6,0.5 0.2,0.1 0.5,0.2 0.9,0.2 0.3,0 0.6,-0.1 0.9,-0.2 0.2,-0.1 0.4,-0.3 0.6,-0.5 0.1,-0.2 0.2,-0.5 0.3,-0.8 0.1,-0.4 0.1,-0.7 0.1,-1" inkscape:connector-curvature="0" style="fill:#000000"/>
	<svg:path id="path159" d="m 146.4,146.8 c 0,0.1 0,0.1 0,0.1 0,0 0,0.1 0,0.1 0,0 0,0 -0.1,0.1 0,0 0,0 -0.1,0 h -2.9 c -0.1,0 -0.1,0 -0.2,-0.1 -0.1,0 -0.1,-0.1 -0.1,-0.3 v -5.3 c 0,-0.1 0,-0.2 0.1,-0.3 0.1,0 0.1,-0.1 0.2,-0.1 h 2.8 c 0,0 0,0 0.1,0 0,0 0,0 0,0.1 0,0 0,0.1 0,0.1 0,0 0,0.1 0,0.2 0,0.1 0,0.1 0,0.1 0,0 0,0.1 0,0.1 0,0 0,0 0,0.1 0,0 0,0 -0.1,0 h -2.3 v 1.9 h 2 c 0,0 0,0 0.1,0 0,0 0,0 0,0.1 0,0 0,0.1 0,0.1 0,0 0,0.1 0,0.2 0,0.1 0,0.1 0,0.1 0,0 0,0.1 0,0.1 0,0 0,0 0,0.1 0,0 0,0 -0.1,0 h -2 v 2.1 h 2.4 c 0,0 0,0 0.1,0 0,0 0,0 0.1,0.1 0,0 0,0.1 0,0.1 0,0.1 0,0.2 0,0.2" inkscape:connector-curvature="0" style="fill:#000000"/>
	<svg:path id="path161" d="m 155.7,145.5 c 0,0.3 0,0.5 -0.2,0.7 -0.1,0.2 -0.2,0.4 -0.4,0.6 -0.2,0.2 -0.4,0.3 -0.6,0.3 -0.2,0.1 -0.5,0.1 -0.8,0.1 -0.2,0 -0.4,0 -0.6,-0.1 -0.2,0 -0.3,-0.1 -0.5,-0.1 -0.1,0 -0.2,-0.1 -0.3,-0.2 -0.1,-0.1 -0.2,-0.1 -0.2,-0.1 0,0 -0.1,-0.1 -0.1,-0.1 0,-0.1 0,-0.1 0,-0.2 0,-0.1 0,-0.1 0,-0.2 0,0 0,-0.1 0,-0.1 0,0 0,0 0,-0.1 0,0 0,0 0.1,0 0,0 0.1,0 0.2,0.1 0.1,0.1 0.2,0.1 0.3,0.2 0.1,0.1 0.3,0.1 0.4,0.2 0.2,0.1 0.4,0.1 0.6,0.1 0.2,0 0.3,0 0.5,-0.1 0.1,0 0.3,-0.1 0.4,-0.2 0.1,-0.1 0.2,-0.2 0.2,-0.3 0.1,-0.1 0.1,-0.3 0.1,-0.4 0,-0.2 0,-0.3 -0.1,-0.4 -0.1,-0.1 -0.2,-0.2 -0.3,-0.3 -0.1,-0.1 -0.3,-0.2 -0.4,-0.2 -0.2,-0.1 -0.3,-0.2 -0.5,-0.2 -0.2,-0.1 -0.3,-0.2 -0.5,-0.3 -0.2,-0.1 -0.3,-0.2 -0.4,-0.3 -0.1,-0.1 -0.2,-0.3 -0.3,-0.5 -0.1,-0.2 -0.1,-0.4 -0.1,-0.6 0,-0.2 0,-0.5 0.1,-0.7 0.1,-0.2 0.2,-0.4 0.4,-0.5 0.2,-0.1 0.4,-0.2 0.6,-0.3 0.2,-0.1 0.5,-0.1 0.7,-0.1 0.1,0 0.3,0 0.4,0 0.1,0 0.3,0.1 0.4,0.1 0.1,0 0.2,0.1 0.3,0.1 0.1,0 0.2,0.1 0.2,0.1 0,0 0,0.1 0.1,0.1 0,0 0,0 0,0.1 0,0 0,0.1 0,0.1 0,0 0,0.1 0,0.1 0,0.1 0,0.1 0,0.1 0,0 0,0.1 0,0.1 0,0 0,0.1 0,0.1 0,0 0,0 -0.1,0 0,0 -0.1,0 -0.2,-0.1 -0.1,0 -0.2,-0.1 -0.3,-0.1 -0.1,-0.1 -0.2,-0.1 -0.4,-0.1 -0.1,0 -0.3,-0.1 -0.5,-0.1 -0.2,0 -0.3,0 -0.4,0.1 -0.1,0 -0.2,0.1 -0.3,0.2 -0.1,0.1 -0.1,0.2 -0.2,0.3 0,0.1 -0.1,0.2 -0.1,0.3 0,0.2 0,0.3 0.1,0.4 0.1,0.1 0.2,0.2 0.3,0.3 0.1,0.1 0.3,0.2 0.4,0.3 0.2,0.1 0.3,0.2 0.5,0.2 0.2,0.1 0.3,0.2 0.5,0.3 0.2,0.1 0.3,0.2 0.4,0.3 0.1,0.1 0.2,0.3 0.3,0.5 0.3,0 0.3,0.2 0.3,0.5" inkscape:connector-curvature="0" style="fill:#000000"/>
	<svg:path id="path163" d="m 165.4,142.9 c 0,0.3 -0.1,0.6 -0.1,0.8 -0.1,0.2 -0.2,0.4 -0.4,0.6 -0.2,0.2 -0.4,0.3 -0.7,0.4 -0.3,0.1 -0.6,0.1 -1,0.1 h -0.7 v 2.1 c 0,0 0,0 0,0.1 0,0 0,0 -0.1,0 0,0 -0.1,0 -0.1,0 -0.1,0 -0.1,0 -0.2,0 -0.1,0 -0.1,0 -0.2,0 0,0 -0.1,0 -0.1,0 0,0 -0.1,0 -0.1,0 0,0 0,0 0,-0.1 v -5.5 c 0,-0.1 0,-0.2 0.1,-0.3 0.1,-0.1 0.1,-0.1 0.2,-0.1 h 1.3 c 0.1,0 0.3,0 0.4,0 0.1,0 0.3,0 0.4,0.1 0.2,0 0.3,0.1 0.5,0.2 0.2,0.1 0.3,0.2 0.4,0.4 0.1,0.1 0.2,0.3 0.3,0.5 0.1,0.3 0.1,0.5 0.1,0.7 m -0.8,0.1 c 0,-0.2 0,-0.4 -0.1,-0.6 -0.1,-0.2 -0.2,-0.3 -0.3,-0.4 -0.1,-0.1 -0.3,-0.1 -0.4,-0.2 -0.1,0 -0.3,0 -0.4,0 h -0.7 v 2.4 h 0.7 c 0.2,0 0.4,0 0.6,-0.1 0.2,-0.1 0.3,-0.1 0.4,-0.3 0.1,-0.1 0.2,-0.2 0.2,-0.4 0,-0.1 0,-0.2 0,-0.4" inkscape:connector-curvature="0" style="fill:#000000"/>
	<svg:path id="path165" d="m 176.5,144.1 c 0,0.5 -0.1,0.9 -0.2,1.3 -0.1,0.4 -0.3,0.7 -0.5,1 -0.2,0.3 -0.5,0.5 -0.9,0.6 -0.3,0.1 -0.7,0.2 -1.2,0.2 -0.4,0 -0.8,-0.1 -1.2,-0.2 -0.3,-0.1 -0.6,-0.3 -0.8,-0.6 -0.2,-0.3 -0.4,-0.6 -0.5,-1 -0.1,-0.4 -0.2,-0.8 -0.2,-1.3 0,-0.5 0.1,-0.9 0.2,-1.3 0.1,-0.4 0.3,-0.7 0.5,-1 0.2,-0.3 0.5,-0.5 0.9,-0.6 0.3,-0.1 0.7,-0.2 1.2,-0.2 0.4,0 0.8,0.1 1.1,0.2 0.3,0.1 0.6,0.3 0.8,0.6 0.2,0.3 0.4,0.6 0.5,0.9 0.3,0.5 0.3,0.9 0.3,1.4 m -0.8,0.1 c 0,-0.3 0,-0.7 -0.1,-0.9 -0.1,-0.3 -0.2,-0.5 -0.3,-0.8 -0.1,-0.2 -0.3,-0.4 -0.6,-0.5 -0.2,-0.1 -0.5,-0.2 -0.9,-0.2 -0.3,0 -0.6,0.1 -0.9,0.2 -0.2,0.1 -0.4,0.3 -0.6,0.5 -0.1,0.2 -0.2,0.5 -0.3,0.8 -0.1,0.3 -0.1,0.6 -0.1,0.9 0,0.3 0,0.7 0.1,1 0.1,0.3 0.2,0.5 0.3,0.8 0.1,0.2 0.3,0.4 0.6,0.5 0.2,0.1 0.5,0.2 0.9,0.2 0.3,0 0.6,-0.1 0.9,-0.2 0.2,-0.1 0.4,-0.3 0.6,-0.5 0.1,-0.2 0.2,-0.5 0.3,-0.8 0.1,-0.4 0.1,-0.7 0.1,-1" inkscape:connector-curvature="0" style="fill:#000000"/>
	<svg:path id="path167" d="m 186.7,147 c 0,0.1 0,0.1 0,0 0,0.1 0,0.1 -0.1,0.1 0,0 -0.1,0 -0.1,0 -0.1,0 -0.1,0 -0.2,0 -0.1,0 -0.1,0 -0.2,0 0,0 -0.1,0 -0.1,0 0,0 -0.1,0 -0.1,-0.1 0,0 0,-0.1 0,-0.1 l -0.5,-1.4 c -0.1,-0.2 -0.1,-0.3 -0.2,-0.4 -0.1,-0.1 -0.2,-0.2 -0.2,-0.3 -0.1,-0.1 -0.2,-0.2 -0.3,-0.2 -0.1,-0.1 -0.3,-0.1 -0.5,-0.1 h -0.5 v 2.5 c 0,0 0,0 0,0.1 0,0 0,0 -0.1,0 0,0 -0.1,0 -0.1,0 -0.1,0 -0.1,0 -0.2,0 -0.1,0 -0.1,0 -0.2,0 -0.1,0 -0.1,0 -0.1,0 0,0 -0.1,0 -0.1,0 0,0 0,0 0,-0.1 v -5.5 c 0,-0.1 0,-0.2 0.1,-0.3 0.1,0 0.1,-0.1 0.2,-0.1 h 1.3 c 0.1,0 0.3,0 0.4,0 0.1,0 0.2,0 0.3,0 0.2,0 0.4,0.1 0.6,0.2 0.2,0.1 0.3,0.2 0.4,0.3 0.1,0.1 0.2,0.3 0.3,0.5 0.1,0.2 0.1,0.4 0.1,0.6 0,0.2 0,0.4 -0.1,0.5 -0.1,0.2 -0.1,0.3 -0.2,0.4 -0.1,0.1 -0.2,0.2 -0.4,0.3 -0.1,0.1 -0.3,0.2 -0.5,0.2 0.1,0 0.2,0.1 0.3,0.2 0.1,0.1 0.2,0.1 0.2,0.2 0.1,0.1 0.1,0.2 0.2,0.3 0.1,0.1 0.1,0.3 0.2,0.4 l 0.5,1.3 c 0,0.1 0.1,0.2 0.1,0.2 -0.2,0.3 -0.2,0.3 -0.2,0.3 m -1.2,-4.2 c 0,-0.2 -0.1,-0.4 -0.2,-0.6 -0.1,-0.2 -0.3,-0.3 -0.5,-0.3 -0.1,0 -0.2,0 -0.3,0 -0.1,0 -0.2,0 -0.4,0 h -0.7 v 2 h 0.8 c 0.2,0 0.4,0 0.5,-0.1 0.2,0 0.3,-0.1 0.4,-0.2 0.1,-0.1 0.2,-0.2 0.2,-0.3 0.2,-0.2 0.2,-0.3 0.2,-0.5" inkscape:connector-curvature="0" style="fill:#000000"/>
	<svg:path id="path169" d="m 196.4,141.5 c 0,0.1 0,0.1 0,0.2 0,0 0,0.1 0,0.1 0,0 0,0 0,0.1 0,0 0,0 -0.1,0 h -1.7 v 5.2 c 0,0 0,0 0,0.1 0,0 0,0 -0.1,0 0,0 -0.1,0 -0.1,0 0,0 -0.1,0 -0.2,0 -0.1,0 -0.1,0 -0.2,0 -0.1,0 -0.1,0 -0.1,0 0,0 -0.1,0 -0.1,0 0,0 0,0 0,-0.1 v -5.2 h -1.7 c 0,0 0,0 -0.1,0 0,0 0,0 0,-0.1 0,0 0,-0.1 0,-0.1 0,0 0,-0.1 0,-0.2 0,-0.1 0,-0.1 0,-0.2 0,0 0,-0.1 0,-0.1 0,0 0,0 0,-0.1 0,0 0,0 0.1,0 h 4.2 c 0,0 0,0 0.1,0 0,0 0,0 0,0.1 0,0 0,0.1 0,0.1 0,0.1 0,0.2 0,0.2" inkscape:connector-curvature="0" style="fill:#000000"/>
	<svg:path id="path171" d="m 205.3,145.5 c 0,0.3 0,0.5 -0.2,0.7 -0.1,0.2 -0.2,0.4 -0.4,0.6 -0.2,0.2 -0.4,0.3 -0.6,0.3 -0.2,0.1 -0.5,0.1 -0.8,0.1 -0.2,0 -0.4,0 -0.6,-0.1 -0.2,0 -0.3,-0.1 -0.5,-0.1 -0.1,0 -0.2,-0.1 -0.3,-0.2 -0.1,-0.1 -0.2,-0.1 -0.2,-0.1 0,0 -0.1,-0.1 -0.1,-0.1 0,-0.1 0,-0.1 0,-0.2 0,-0.1 0,-0.1 0,-0.2 0,0 0,-0.1 0,-0.1 0,0 0,0 0,-0.1 0,0 0,0 0.1,0 0,0 0.1,0 0.2,0.1 0.1,0.1 0.2,0.1 0.3,0.2 0.1,0.1 0.3,0.1 0.4,0.2 0.2,0.1 0.4,0.1 0.6,0.1 0.2,0 0.3,0 0.5,-0.1 0.1,0 0.3,-0.1 0.4,-0.2 0.1,-0.1 0.2,-0.2 0.2,-0.3 0.1,-0.1 0.1,-0.3 0.1,-0.4 0,-0.2 0,-0.3 -0.1,-0.4 -0.1,-0.1 -0.2,-0.2 -0.3,-0.3 -0.1,-0.1 -0.3,-0.2 -0.4,-0.2 -0.2,-0.1 -0.3,-0.2 -0.5,-0.2 -0.2,-0.1 -0.3,-0.2 -0.5,-0.3 -0.2,-0.1 -0.3,-0.2 -0.4,-0.3 -0.1,-0.1 -0.2,-0.3 -0.3,-0.5 -0.1,-0.2 -0.1,-0.4 -0.1,-0.6 0,-0.2 0,-0.5 0.1,-0.7 0.1,-0.2 0.2,-0.4 0.4,-0.5 0.2,-0.1 0.4,-0.2 0.6,-0.3 0.2,-0.1 0.5,-0.1 0.7,-0.1 0.1,0 0.3,0 0.4,0 0.1,0 0.3,0.1 0.4,0.1 0.1,0 0.2,0.1 0.3,0.1 0.1,0 0.2,0.1 0.2,0.1 0,0 0,0.1 0.1,0.1 0,0 0,0 0,0.1 0,0 0,0.1 0,0.1 0,0 0,0.1 0,0.1 0,0.1 0,0.1 0,0.1 0,0 0,0.1 0,0.1 0,0 0,0.1 0,0.1 0,0 0,0 -0.1,0 0,0 -0.1,0 -0.2,-0.1 -0.1,0 -0.2,-0.1 -0.3,-0.1 -0.1,-0.1 -0.2,-0.1 -0.4,-0.1 -0.1,0 -0.3,-0.1 -0.5,-0.1 -0.2,0 -0.3,0 -0.4,0.1 -0.1,0 -0.2,0.1 -0.3,0.2 -0.1,0.1 -0.1,0.2 -0.2,0.3 0,0.1 -0.1,0.2 -0.1,0.3 0,0.2 0,0.3 0.1,0.4 0.1,0.1 0.2,0.2 0.3,0.3 0.1,0.1 0.3,0.2 0.4,0.3 0.2,0.1 0.3,0.2 0.5,0.2 0.2,0.1 0.3,0.2 0.5,0.3 0.2,0.1 0.3,0.2 0.4,0.3 0.1,0.1 0.2,0.3 0.3,0.5 0.3,0 0.3,0.2 0.3,0.5" inkscape:connector-curvature="0" style="fill:#000000"/>
	<svg:path id="path173" d="m 195.3,44.6 c 4,-4.3 5.9,-10 6.4,-11.8 -1.7,1.8 -3.9,3.6 -6.4,5.1 -9.8,5.6 -17.3,7.6 -25.9,10.1 -5.7,1.7 -15.2,6.3 -15.2,6.3 0,0 4.7,-4.6 9.2,-7.2 6.5,-3.8 31.1,-9.2 36.5,-17.9 3,-4.8 4.6,-9 5.4,-12.7 -0.1,0.1 -11.2,13.9 -29.3,18.1 -3.4,0.8 -9,2.4 -13.3,3.9 -2.5,0.9 -5,1.8 -7.4,2.9 -2.8,1.3 -5.2,3.2 -7.2,5.6 -2,2.5 -3.8,5.1 -5.5,7.7 -3.4,5.1 -7.7,9.3 -13,12.4 -1.3,0.8 -2.7,1.5 -4.1,2 l 0.3,0.9 30.4,-0.2 -24.7,17.7 1.7,5.2 9.6,5.9 -4.2,-11.7 5.9,2.3 c 9.4,-6.7 30.7,-9.2 33,-9.5 12.1,-1.5 17.5,-14.8 19,-19.3 -1.6,1.6 -3.6,3.2 -5.8,4.5 -9.8,5.6 -17.3,7.6 -25.9,10.1 -5.6,1.7 -15.2,6.3 -15.2,6.3 0,0 4.7,-4.6 9.2,-7.2 6.5,-3.8 30,-8.6 35.5,-17.3 2.7,-4.4 4.3,-8.3 5.2,-11.8 -0.1,0.1 -0.3,0.3 -0.6,0.5 -1.8,2 -4.2,4.1 -7.1,5.8 -9.8,5.6 -16.3,7 -24.8,9.5 -5.6,1.7 -15.2,6.3 -15.2,6.3 0,0 4.7,-4.6 9.2,-7.2 5.9,-3.3 26.4,-8 34.3,-15.3 z" inkscape:connector-curvature="0" style="fill:#000000"/>
	<svg:path id="path175" d="m 99.7,93.4 2,-5.9 -24.7,-17.7 30.4,0.2 0.4,-1.2 c -1.1,-0.5 -2.2,-1 -3.2,-1.7 C 99.3,64 95,59.8 91.6,54.7 89.8,52.1 88.1,49.4 86.1,47 84.1,44.6 81.8,42.7 78.9,41.4 76.5,40.3 74,39.4 71.5,38.5 67.1,37 61.5,35.4 58.1,34.6 40,30.4 28.8,16.6 28.8,16.5 c 0.8,3.7 2.4,7.9 5.4,12.7 5.4,8.7 30,14.2 36.5,17.9 4.5,2.6 9.2,7.2 9.2,7.2 0,0 -9.6,-4.6 -15.2,-6.3 -8.6,-2.6 -16.1,-4.5 -25.9,-10.1 -2.6,-1.5 -4.7,-3.3 -6.5,-5.1 0.5,1.8 2.4,7.4 6.4,11.8 7.9,7.3 28.5,12.1 34.5,15.5 4.5,2.6 9.2,7.2 9.2,7.2 0,0 -9.6,-4.6 -15.2,-6.3 -8.7,-2.7 -15.2,-4 -25,-9.6 -2.9,-1.6 -5.2,-3.8 -7.1,-5.8 -0.2,-0.2 -0.4,-0.4 -0.6,-0.5 0.8,3.5 2.4,7.4 5.2,11.8 5.4,8.7 29,13.5 35.5,17.3 4.5,2.6 9.2,7.2 9.2,7.2 0,0 -9.6,-4.6 -15.2,-6.3 C 60.6,72.5 53.1,70.6 43.3,65 41,63.7 39.1,62.1 37.5,60.5 c 1.5,4.5 6.9,17.8 19,19.3 2.3,0.3 23.6,2.8 33.1,9.5 l 6,-2.3 -4.2,11.7 z" inkscape:connector-curvature="0" style="fill:#000000"/>
</svg:g></svg:g></svg>