M48
;DRILL file {KiCad 4.0.7} date 2018 August 25, Saturday 11:39:23
;FORMAT={-:-/ absolute / inch / decimal}
FMAT,2
INCH,TZ
T1C0.035
T2C0.039
T3C0.043
%
G90
G05
M72
T1
X0.9252Y1.2598
X0.9252Y1.1598
X1.1024Y0.6693
X1.1024Y0.5693
X1.4173Y1.6157
X1.4173Y1.5157
X1.4173Y1.1039
X1.4173Y1.0039
X1.7126Y0.6693
X1.7126Y0.5693
X1.9094Y1.2598
X1.9094Y1.1598
T2
X0.1575Y0.5134
X0.1575Y0.4134
X0.1575Y0.3134
X0.1575Y0.2134
X0.1575Y0.1134
X2.3437Y0.4043
X2.3437Y0.3043
X2.4437Y0.4043
X2.4437Y0.3043
X2.7362Y0.4937
X2.7362Y0.3937
X2.7362Y0.2346
X2.7362Y0.1346
T3
X2.3228Y1.7913
X2.3228Y1.6142
X2.3228Y1.4764
X2.3228Y1.2992
X2.5787Y1.7913
X2.5787Y1.6142
X2.5787Y1.4764
X2.5787Y1.2992
T0
M30
