G04 #@! TF.FileFunction,Legend,Bot*
%FSLAX46Y46*%
G04 Gerber Fmt 4.6, Leading zero omitted, Abs format (unit mm)*
G04 Created by KiCad (PCBNEW 4.0.7) date 2018 August 25, Saturday 11:39:21*
%MOMM*%
%LPD*%
G01*
G04 APERTURE LIST*
%ADD10C,0.100000*%
%ADD11C,0.150000*%
%ADD12C,0.152400*%
%ADD13C,0.120000*%
G04 APERTURE END LIST*
D10*
D11*
X53251593Y45709238D02*
X53148987Y45991146D01*
X51842054Y45196208D02*
X51739448Y45478115D01*
X54649039Y43770258D02*
X54836978Y43838662D01*
X50684021Y46477403D02*
X50803556Y46733745D01*
X51905622Y46922029D02*
X51649279Y47041563D01*
X51128648Y45255802D02*
X50684021Y46477403D01*
X50803556Y46733745D02*
X51649279Y47041563D01*
X51905622Y46922029D02*
X52350248Y45700428D01*
X49766093Y44759873D02*
X55122341Y46709388D01*
X51829961Y42744197D02*
X53427439Y43325632D01*
X49877681Y42991386D02*
X49604065Y43743140D01*
X55900006Y46034675D02*
X56173622Y45282921D01*
X64500000Y32000000D02*
X60000000Y32000000D01*
X65750000Y36000000D02*
X65750000Y34500000D01*
X60000000Y38500000D02*
X64500000Y38500000D01*
X58750000Y34500000D02*
X58750000Y36000000D01*
X60000000Y46500000D02*
X64500000Y46500000D01*
X58750000Y42500000D02*
X58750000Y44000000D01*
X64500000Y40000000D02*
X60000000Y40000000D01*
X65750000Y44000000D02*
X65750000Y42500000D01*
X23900000Y41675000D02*
X22900000Y41675000D01*
X22900000Y40325000D02*
X23900000Y40325000D01*
X18400000Y42825000D02*
X19400000Y42825000D01*
X19400000Y44175000D02*
X18400000Y44175000D01*
X14100000Y44325000D02*
X15100000Y44325000D01*
X15100000Y45675000D02*
X14100000Y45675000D01*
X9900000Y45825000D02*
X10900000Y45825000D01*
X10900000Y47175000D02*
X9900000Y47175000D01*
X5900000Y47825000D02*
X6900000Y47825000D01*
X6900000Y49175000D02*
X5900000Y49175000D01*
D12*
X44016000Y20641000D02*
X44016000Y19879000D01*
X44016000Y19879000D02*
X28014000Y19879000D01*
X28014000Y19879000D02*
X28014000Y20641000D01*
D13*
X43345370Y2388211D02*
G75*
G03X46192000Y6890000I-7845370J8111789D01*
G01*
X27654630Y18611789D02*
G75*
G03X24808000Y14110000I7845370J-8111789D01*
G01*
X27654630Y2388211D02*
G75*
G02X24808000Y6890000I7845370J8111789D01*
G01*
X43345370Y18611789D02*
G75*
G02X46192000Y14110000I-7845370J-8111789D01*
G01*
X49810000Y8600000D02*
X49810000Y6890000D01*
X46192000Y6890000D02*
X49810000Y6890000D01*
X39360000Y2390000D02*
X43347300Y2390000D01*
X37160000Y4590000D02*
X39360000Y2390000D01*
X33840000Y4590000D02*
X37160000Y4590000D01*
X33840000Y4590000D02*
X31640000Y2390000D01*
X27652700Y2390000D02*
X31640000Y2390000D01*
X21190000Y8600000D02*
X21190000Y6890000D01*
X21190000Y6890000D02*
X24808000Y6890000D01*
X24808000Y14110000D02*
X21190000Y14110000D01*
X21190000Y12400000D02*
X21190000Y14110000D01*
X43347300Y18610000D02*
X27652700Y18610000D01*
X49810000Y12400000D02*
X49810000Y14110000D01*
X49810000Y14110000D02*
X46192000Y14110000D01*
D11*
X54067735Y40786751D02*
X53949780Y40693144D01*
X53726043Y40611710D01*
X53620262Y40623884D01*
X53559228Y40652345D01*
X53481907Y40725552D01*
X53449334Y40815047D01*
X53461508Y40920828D01*
X53489969Y40981862D01*
X53563176Y41059183D01*
X53725879Y41169077D01*
X53799087Y41246398D01*
X53827547Y41307432D01*
X53839721Y41413213D01*
X53807148Y41502707D01*
X53729828Y41575915D01*
X53668794Y41604376D01*
X53563013Y41616550D01*
X53339276Y41535116D01*
X53221320Y41441509D01*
X52891803Y41372249D02*
X53010087Y40351124D01*
X52586797Y40957186D01*
X52652109Y40220830D01*
X52086352Y41079089D01*
X51280901Y40785929D02*
X51728375Y40948796D01*
X51935988Y40517610D01*
X51874954Y40546071D01*
X51769173Y40558245D01*
X51545436Y40476811D01*
X51472229Y40399491D01*
X51443768Y40338457D01*
X51431594Y40232675D01*
X51513028Y40008939D01*
X51590348Y39935731D01*
X51651382Y39907270D01*
X51757163Y39895096D01*
X51980900Y39976530D01*
X52054108Y40053851D01*
X52082569Y40114885D01*
X63583333Y39095238D02*
X63440476Y39047619D01*
X63202380Y39047619D01*
X63107142Y39095238D01*
X63059523Y39142857D01*
X63011904Y39238095D01*
X63011904Y39333333D01*
X63059523Y39428571D01*
X63107142Y39476190D01*
X63202380Y39523810D01*
X63392857Y39571429D01*
X63488095Y39619048D01*
X63535714Y39666667D01*
X63583333Y39761905D01*
X63583333Y39857143D01*
X63535714Y39952381D01*
X63488095Y40000000D01*
X63392857Y40047619D01*
X63154761Y40047619D01*
X63011904Y40000000D01*
X62678571Y40047619D02*
X62440476Y39047619D01*
X62249999Y39761905D01*
X62059523Y39047619D01*
X61821428Y40047619D01*
X61535714Y40047619D02*
X60916666Y40047619D01*
X61250000Y39666667D01*
X61107142Y39666667D01*
X61011904Y39619048D01*
X60964285Y39571429D01*
X60916666Y39476190D01*
X60916666Y39238095D01*
X60964285Y39142857D01*
X61011904Y39095238D01*
X61107142Y39047619D01*
X61392857Y39047619D01*
X61488095Y39095238D01*
X61535714Y39142857D01*
X70228573Y4071429D02*
X70085716Y4023810D01*
X70038097Y3976190D01*
X69990478Y3880952D01*
X69990478Y3738095D01*
X70038097Y3642857D01*
X70085716Y3595238D01*
X70180954Y3547619D01*
X70561907Y3547619D01*
X70561907Y4547619D01*
X70228573Y4547619D01*
X70133335Y4500000D01*
X70085716Y4452381D01*
X70038097Y4357143D01*
X70038097Y4261905D01*
X70085716Y4166667D01*
X70133335Y4119048D01*
X70228573Y4071429D01*
X70561907Y4071429D01*
X69133335Y3547619D02*
X69133335Y4071429D01*
X69180954Y4166667D01*
X69276192Y4214286D01*
X69466669Y4214286D01*
X69561907Y4166667D01*
X69133335Y3595238D02*
X69228573Y3547619D01*
X69466669Y3547619D01*
X69561907Y3595238D01*
X69609526Y3690476D01*
X69609526Y3785714D01*
X69561907Y3880952D01*
X69466669Y3928571D01*
X69228573Y3928571D01*
X69133335Y3976190D01*
X68228573Y3547619D02*
X68228573Y4547619D01*
X68228573Y3595238D02*
X68323811Y3547619D01*
X68514288Y3547619D01*
X68609526Y3595238D01*
X68657145Y3642857D01*
X68704764Y3738095D01*
X68704764Y4023810D01*
X68657145Y4119048D01*
X68609526Y4166667D01*
X68514288Y4214286D01*
X68323811Y4214286D01*
X68228573Y4166667D01*
X67323811Y4214286D02*
X67323811Y3404762D01*
X67371430Y3309524D01*
X67419049Y3261905D01*
X67514288Y3214286D01*
X67657145Y3214286D01*
X67752383Y3261905D01*
X67323811Y3595238D02*
X67419049Y3547619D01*
X67609526Y3547619D01*
X67704764Y3595238D01*
X67752383Y3642857D01*
X67800002Y3738095D01*
X67800002Y4023810D01*
X67752383Y4119048D01*
X67704764Y4166667D01*
X67609526Y4214286D01*
X67419049Y4214286D01*
X67323811Y4166667D01*
X66466668Y3595238D02*
X66561906Y3547619D01*
X66752383Y3547619D01*
X66847621Y3595238D01*
X66895240Y3690476D01*
X66895240Y4071429D01*
X66847621Y4166667D01*
X66752383Y4214286D01*
X66561906Y4214286D01*
X66466668Y4166667D01*
X66419049Y4071429D01*
X66419049Y3976190D01*
X66895240Y3880952D01*
X65847621Y3547619D02*
X65942859Y3595238D01*
X65990478Y3690476D01*
X65990478Y4547619D01*
X65466668Y3547619D02*
X65466668Y4214286D01*
X65466668Y4547619D02*
X65514287Y4500000D01*
X65466668Y4452381D01*
X65419049Y4500000D01*
X65466668Y4547619D01*
X65466668Y4452381D01*
X65133335Y4214286D02*
X64752383Y4214286D01*
X64990478Y3547619D02*
X64990478Y4404762D01*
X64942859Y4500000D01*
X64847621Y4547619D01*
X64752383Y4547619D01*
X64038096Y3595238D02*
X64133334Y3547619D01*
X64323811Y3547619D01*
X64419049Y3595238D01*
X64466668Y3690476D01*
X64466668Y4071429D01*
X64419049Y4166667D01*
X64323811Y4214286D01*
X64133334Y4214286D01*
X64038096Y4166667D01*
X63990477Y4071429D01*
X63990477Y3976190D01*
X64466668Y3880952D01*
X63800001Y3452381D02*
X63038096Y3452381D01*
X62847620Y3595238D02*
X62752382Y3547619D01*
X62561906Y3547619D01*
X62466667Y3595238D01*
X62419048Y3690476D01*
X62419048Y3738095D01*
X62466667Y3833333D01*
X62561906Y3880952D01*
X62704763Y3880952D01*
X62800001Y3928571D01*
X62847620Y4023810D01*
X62847620Y4071429D01*
X62800001Y4166667D01*
X62704763Y4214286D01*
X62561906Y4214286D01*
X62466667Y4166667D01*
X61990477Y3547619D02*
X61990477Y4547619D01*
X61561905Y3547619D02*
X61561905Y4071429D01*
X61609524Y4166667D01*
X61704762Y4214286D01*
X61847620Y4214286D01*
X61942858Y4166667D01*
X61990477Y4119048D01*
X61085715Y3547619D02*
X61085715Y4214286D01*
X61085715Y4547619D02*
X61133334Y4500000D01*
X61085715Y4452381D01*
X61038096Y4500000D01*
X61085715Y4547619D01*
X61085715Y4452381D01*
X60752382Y4214286D02*
X60371430Y4214286D01*
X60609525Y4547619D02*
X60609525Y3690476D01*
X60561906Y3595238D01*
X60466668Y3547619D01*
X60371430Y3547619D01*
X60180953Y4214286D02*
X59800001Y4214286D01*
X60038096Y4547619D02*
X60038096Y3690476D01*
X59990477Y3595238D01*
X59895239Y3547619D01*
X59800001Y3547619D01*
X59561905Y4214286D02*
X59323810Y3547619D01*
X59085714Y4214286D02*
X59323810Y3547619D01*
X59419048Y3309524D01*
X59466667Y3261905D01*
X59561905Y3214286D01*
X58942857Y3452381D02*
X58180952Y3452381D01*
X57514285Y3595238D02*
X57609523Y3547619D01*
X57800000Y3547619D01*
X57895238Y3595238D01*
X57942857Y3642857D01*
X57990476Y3738095D01*
X57990476Y4023810D01*
X57942857Y4119048D01*
X57895238Y4166667D01*
X57800000Y4214286D01*
X57609523Y4214286D01*
X57514285Y4166667D01*
X56942857Y3547619D02*
X57038095Y3595238D01*
X57085714Y3642857D01*
X57133333Y3738095D01*
X57133333Y4023810D01*
X57085714Y4119048D01*
X57038095Y4166667D01*
X56942857Y4214286D01*
X56799999Y4214286D01*
X56704761Y4166667D01*
X56657142Y4119048D01*
X56609523Y4023810D01*
X56609523Y3738095D01*
X56657142Y3642857D01*
X56704761Y3595238D01*
X56799999Y3547619D01*
X56942857Y3547619D01*
X56180952Y4214286D02*
X56180952Y3547619D01*
X56180952Y4119048D02*
X56133333Y4166667D01*
X56038095Y4214286D01*
X55895237Y4214286D01*
X55799999Y4166667D01*
X55752380Y4071429D01*
X55752380Y3547619D01*
X55276190Y4214286D02*
X55276190Y3547619D01*
X55276190Y4119048D02*
X55228571Y4166667D01*
X55133333Y4214286D01*
X54990475Y4214286D01*
X54895237Y4166667D01*
X54847618Y4071429D01*
X54847618Y3547619D01*
X53990475Y3595238D02*
X54085713Y3547619D01*
X54276190Y3547619D01*
X54371428Y3595238D01*
X54419047Y3690476D01*
X54419047Y4071429D01*
X54371428Y4166667D01*
X54276190Y4214286D01*
X54085713Y4214286D01*
X53990475Y4166667D01*
X53942856Y4071429D01*
X53942856Y3976190D01*
X54419047Y3880952D01*
X53085713Y3595238D02*
X53180951Y3547619D01*
X53371428Y3547619D01*
X53466666Y3595238D01*
X53514285Y3642857D01*
X53561904Y3738095D01*
X53561904Y4023810D01*
X53514285Y4119048D01*
X53466666Y4166667D01*
X53371428Y4214286D01*
X53180951Y4214286D01*
X53085713Y4166667D01*
X52799999Y4214286D02*
X52419047Y4214286D01*
X52657142Y4547619D02*
X52657142Y3690476D01*
X52609523Y3595238D01*
X52514285Y3547619D01*
X52419047Y3547619D01*
X51942856Y3547619D02*
X52038094Y3595238D01*
X52085713Y3642857D01*
X52133332Y3738095D01*
X52133332Y4023810D01*
X52085713Y4119048D01*
X52038094Y4166667D01*
X51942856Y4214286D01*
X51799998Y4214286D01*
X51704760Y4166667D01*
X51657141Y4119048D01*
X51609522Y4023810D01*
X51609522Y3738095D01*
X51657141Y3642857D01*
X51704760Y3595238D01*
X51799998Y3547619D01*
X51942856Y3547619D01*
X51180951Y3547619D02*
X51180951Y4214286D01*
X51180951Y4023810D02*
X51133332Y4119048D01*
X51085713Y4166667D01*
X50990475Y4214286D01*
X50895236Y4214286D01*
D10*
X64250000Y11416667D02*
X64150000Y11383333D01*
X63983333Y11383333D01*
X63916666Y11416667D01*
X63883333Y11450000D01*
X63850000Y11516667D01*
X63850000Y11583333D01*
X63883333Y11650000D01*
X63916666Y11683333D01*
X63983333Y11716667D01*
X64116666Y11750000D01*
X64183333Y11783333D01*
X64216666Y11816667D01*
X64250000Y11883333D01*
X64250000Y11950000D01*
X64216666Y12016667D01*
X64183333Y12050000D01*
X64116666Y12083333D01*
X63950000Y12083333D01*
X63850000Y12050000D01*
X63549999Y11383333D02*
X63549999Y12083333D01*
X63383333Y12083333D01*
X63283333Y12050000D01*
X63216666Y11983333D01*
X63183333Y11916667D01*
X63149999Y11783333D01*
X63149999Y11683333D01*
X63183333Y11550000D01*
X63216666Y11483333D01*
X63283333Y11416667D01*
X63383333Y11383333D01*
X63549999Y11383333D01*
X62883333Y11583333D02*
X62549999Y11583333D01*
X62949999Y11383333D02*
X62716666Y12083333D01*
X62483333Y11383333D01*
X64233334Y6016667D02*
X64133334Y5983333D01*
X63966667Y5983333D01*
X63900000Y6016667D01*
X63866667Y6050000D01*
X63833334Y6116667D01*
X63833334Y6183333D01*
X63866667Y6250000D01*
X63900000Y6283333D01*
X63966667Y6316667D01*
X64100000Y6350000D01*
X64166667Y6383333D01*
X64200000Y6416667D01*
X64233334Y6483333D01*
X64233334Y6550000D01*
X64200000Y6616667D01*
X64166667Y6650000D01*
X64100000Y6683333D01*
X63933334Y6683333D01*
X63833334Y6650000D01*
X63133333Y6050000D02*
X63166667Y6016667D01*
X63266667Y5983333D01*
X63333333Y5983333D01*
X63433333Y6016667D01*
X63500000Y6083333D01*
X63533333Y6150000D01*
X63566667Y6283333D01*
X63566667Y6383333D01*
X63533333Y6516667D01*
X63500000Y6583333D01*
X63433333Y6650000D01*
X63333333Y6683333D01*
X63266667Y6683333D01*
X63166667Y6650000D01*
X63133333Y6616667D01*
X62500000Y5983333D02*
X62833333Y5983333D01*
X62833333Y6683333D01*
X58633333Y6650000D02*
X58699999Y6683333D01*
X58799999Y6683333D01*
X58899999Y6650000D01*
X58966666Y6583333D01*
X58999999Y6516667D01*
X59033333Y6383333D01*
X59033333Y6283333D01*
X58999999Y6150000D01*
X58966666Y6083333D01*
X58899999Y6016667D01*
X58799999Y5983333D01*
X58733333Y5983333D01*
X58633333Y6016667D01*
X58599999Y6050000D01*
X58599999Y6283333D01*
X58733333Y6283333D01*
X58299999Y5983333D02*
X58299999Y6683333D01*
X57899999Y5983333D01*
X57899999Y6683333D01*
X57566666Y5983333D02*
X57566666Y6683333D01*
X57400000Y6683333D01*
X57300000Y6650000D01*
X57233333Y6583333D01*
X57200000Y6516667D01*
X57166666Y6383333D01*
X57166666Y6283333D01*
X57200000Y6150000D01*
X57233333Y6083333D01*
X57300000Y6016667D01*
X57400000Y5983333D01*
X57566666Y5983333D01*
X58966667Y12083333D02*
X58533334Y12083333D01*
X58766667Y11816667D01*
X58666667Y11816667D01*
X58600000Y11783333D01*
X58566667Y11750000D01*
X58533334Y11683333D01*
X58533334Y11516667D01*
X58566667Y11450000D01*
X58600000Y11416667D01*
X58666667Y11383333D01*
X58866667Y11383333D01*
X58933334Y11416667D01*
X58966667Y11450000D01*
X58333333Y12083333D02*
X58100000Y11383333D01*
X57866667Y12083333D01*
X57700000Y12083333D02*
X57266667Y12083333D01*
X57500000Y11816667D01*
X57400000Y11816667D01*
X57333333Y11783333D01*
X57300000Y11750000D01*
X57266667Y11683333D01*
X57266667Y11516667D01*
X57300000Y11450000D01*
X57333333Y11416667D01*
X57400000Y11383333D01*
X57600000Y11383333D01*
X57666667Y11416667D01*
X57700000Y11450000D01*
D11*
X63583333Y38595238D02*
X63440476Y38547619D01*
X63202380Y38547619D01*
X63107142Y38595238D01*
X63059523Y38642857D01*
X63011904Y38738095D01*
X63011904Y38833333D01*
X63059523Y38928571D01*
X63107142Y38976190D01*
X63202380Y39023810D01*
X63392857Y39071429D01*
X63488095Y39119048D01*
X63535714Y39166667D01*
X63583333Y39261905D01*
X63583333Y39357143D01*
X63535714Y39452381D01*
X63488095Y39500000D01*
X63392857Y39547619D01*
X63154761Y39547619D01*
X63011904Y39500000D01*
X62678571Y39547619D02*
X62440476Y38547619D01*
X62249999Y39261905D01*
X62059523Y38547619D01*
X61821428Y39547619D01*
X61011904Y39214286D02*
X61011904Y38547619D01*
X61250000Y39595238D02*
X61488095Y38880952D01*
X60869047Y38880952D01*
X23566666Y38647619D02*
X23900000Y39123810D01*
X24138095Y38647619D02*
X24138095Y39647619D01*
X23757142Y39647619D01*
X23661904Y39600000D01*
X23614285Y39552381D01*
X23566666Y39457143D01*
X23566666Y39314286D01*
X23614285Y39219048D01*
X23661904Y39171429D01*
X23757142Y39123810D01*
X24138095Y39123810D01*
X22614285Y38647619D02*
X23185714Y38647619D01*
X22900000Y38647619D02*
X22900000Y39647619D01*
X22995238Y39504762D01*
X23090476Y39409524D01*
X23185714Y39361905D01*
X19066666Y44947619D02*
X19400000Y45423810D01*
X19638095Y44947619D02*
X19638095Y45947619D01*
X19257142Y45947619D01*
X19161904Y45900000D01*
X19114285Y45852381D01*
X19066666Y45757143D01*
X19066666Y45614286D01*
X19114285Y45519048D01*
X19161904Y45471429D01*
X19257142Y45423810D01*
X19638095Y45423810D01*
X18685714Y45852381D02*
X18638095Y45900000D01*
X18542857Y45947619D01*
X18304761Y45947619D01*
X18209523Y45900000D01*
X18161904Y45852381D01*
X18114285Y45757143D01*
X18114285Y45661905D01*
X18161904Y45519048D01*
X18733333Y44947619D01*
X18114285Y44947619D01*
X14766666Y46447619D02*
X15100000Y46923810D01*
X15338095Y46447619D02*
X15338095Y47447619D01*
X14957142Y47447619D01*
X14861904Y47400000D01*
X14814285Y47352381D01*
X14766666Y47257143D01*
X14766666Y47114286D01*
X14814285Y47019048D01*
X14861904Y46971429D01*
X14957142Y46923810D01*
X15338095Y46923810D01*
X14433333Y47447619D02*
X13814285Y47447619D01*
X14147619Y47066667D01*
X14004761Y47066667D01*
X13909523Y47019048D01*
X13861904Y46971429D01*
X13814285Y46876190D01*
X13814285Y46638095D01*
X13861904Y46542857D01*
X13909523Y46495238D01*
X14004761Y46447619D01*
X14290476Y46447619D01*
X14385714Y46495238D01*
X14433333Y46542857D01*
X10566666Y47947619D02*
X10900000Y48423810D01*
X11138095Y47947619D02*
X11138095Y48947619D01*
X10757142Y48947619D01*
X10661904Y48900000D01*
X10614285Y48852381D01*
X10566666Y48757143D01*
X10566666Y48614286D01*
X10614285Y48519048D01*
X10661904Y48471429D01*
X10757142Y48423810D01*
X11138095Y48423810D01*
X9709523Y48614286D02*
X9709523Y47947619D01*
X9947619Y48995238D02*
X10185714Y48280952D01*
X9566666Y48280952D01*
X6566666Y49947619D02*
X6900000Y50423810D01*
X7138095Y49947619D02*
X7138095Y50947619D01*
X6757142Y50947619D01*
X6661904Y50900000D01*
X6614285Y50852381D01*
X6566666Y50757143D01*
X6566666Y50614286D01*
X6614285Y50519048D01*
X6661904Y50471429D01*
X6757142Y50423810D01*
X7138095Y50423810D01*
X5661904Y50947619D02*
X6138095Y50947619D01*
X6185714Y50471429D01*
X6138095Y50519048D01*
X6042857Y50566667D01*
X5804761Y50566667D01*
X5709523Y50519048D01*
X5661904Y50471429D01*
X5614285Y50376190D01*
X5614285Y50138095D01*
X5661904Y50042857D01*
X5709523Y49995238D01*
X5804761Y49947619D01*
X6042857Y49947619D01*
X6138095Y49995238D01*
X6185714Y50042857D01*
X33562381Y29911905D02*
X34371905Y29911905D01*
X34467143Y29864286D01*
X34514762Y29816667D01*
X34562381Y29721429D01*
X34562381Y29530952D01*
X34514762Y29435714D01*
X34467143Y29388095D01*
X34371905Y29340476D01*
X33562381Y29340476D01*
X34562381Y28340476D02*
X34562381Y28911905D01*
X34562381Y28626191D02*
X33562381Y28626191D01*
X33705238Y28721429D01*
X33800476Y28816667D01*
X33848095Y28911905D01*
X36285714Y2951429D02*
X36142857Y2903810D01*
X36095238Y2856190D01*
X36047619Y2760952D01*
X36047619Y2618095D01*
X36095238Y2522857D01*
X36142857Y2475238D01*
X36238095Y2427619D01*
X36619048Y2427619D01*
X36619048Y3427619D01*
X36285714Y3427619D01*
X36190476Y3380000D01*
X36142857Y3332381D01*
X36095238Y3237143D01*
X36095238Y3141905D01*
X36142857Y3046667D01*
X36190476Y2999048D01*
X36285714Y2951429D01*
X36619048Y2951429D01*
X35761905Y3427619D02*
X35190476Y3427619D01*
X35476191Y2427619D02*
X35476191Y3427619D01*
X34333333Y2427619D02*
X34904762Y2427619D01*
X34619048Y2427619D02*
X34619048Y3427619D01*
X34714286Y3284762D01*
X34809524Y3189524D01*
X34904762Y3141905D01*
M02*
