G04 #@! TF.FileFunction,Copper,L2,Bot,Signal*
%FSLAX46Y46*%
G04 Gerber Fmt 4.6, Leading zero omitted, Abs format (unit mm)*
G04 Created by KiCad (PCBNEW 4.0.7) date 2018 August 25, Saturday 11:39:21*
%MOMM*%
%LPD*%
G01*
G04 APERTURE LIST*
%ADD10C,0.100000*%
%ADD11C,2.000000*%
%ADD12R,1.800000X1.800000*%
%ADD13C,1.800000*%
%ADD14C,1.700000*%
%ADD15O,1.700000X1.700000*%
%ADD16R,1.200000X0.900000*%
%ADD17R,2.500000X1.100000*%
%ADD18R,1.100000X2.500000*%
%ADD19R,1.700000X1.700000*%
%ADD20R,2.540000X3.510000*%
%ADD21C,0.250000*%
G04 APERTURE END LIST*
D10*
G36*
X51300693Y41274546D02*
X50787662Y42684085D01*
X51445447Y42923500D01*
X51958478Y41513961D01*
X51300693Y41274546D01*
X51300693Y41274546D01*
G37*
G36*
X54119771Y42300606D02*
X53606740Y43710145D01*
X54264525Y43949560D01*
X54777556Y42540021D01*
X54119771Y42300606D01*
X54119771Y42300606D01*
G37*
G36*
X55529310Y42813636D02*
X55016279Y44223175D01*
X55674064Y44462590D01*
X56187095Y43053051D01*
X55529310Y42813636D01*
X55529310Y42813636D01*
G37*
G36*
X48749705Y43751431D02*
X48476089Y44503185D01*
X49415781Y44845205D01*
X49689397Y44093451D01*
X48749705Y43751431D01*
X48749705Y43751431D01*
G37*
G36*
X55609461Y46248179D02*
X55335845Y46999933D01*
X56275537Y47341953D01*
X56549153Y46590199D01*
X55609461Y46248179D01*
X55609461Y46248179D01*
G37*
G36*
X56361906Y44180855D02*
X56088290Y44932609D01*
X57027982Y45274629D01*
X57301598Y44522875D01*
X56361906Y44180855D01*
X56361906Y44180855D01*
G37*
G36*
X49502150Y41684108D02*
X49228534Y42435862D01*
X50168226Y42777882D01*
X50441842Y42026128D01*
X49502150Y41684108D01*
X49502150Y41684108D01*
G37*
D11*
X65500000Y33000000D03*
X65500000Y37500000D03*
X59000000Y33000000D03*
X59000000Y37500000D03*
D12*
X48500000Y32000000D03*
D13*
X48500000Y29460000D03*
D12*
X43500000Y17000000D03*
D13*
X43500000Y14460000D03*
D12*
X28000000Y17000000D03*
D13*
X28000000Y14460000D03*
D12*
X23500000Y32000000D03*
D13*
X23500000Y29460000D03*
D14*
X62070000Y10270000D03*
D15*
X62070000Y7730000D03*
X59530000Y10270000D03*
X59530000Y7730000D03*
D12*
X36000000Y28040000D03*
D13*
X36000000Y25500000D03*
D11*
X59000000Y45500000D03*
X59000000Y41000000D03*
X65500000Y45500000D03*
X65500000Y41000000D03*
D12*
X36000000Y41040000D03*
D13*
X36000000Y38500000D03*
D16*
X22300000Y41000000D03*
X24500000Y41000000D03*
X20000000Y43500000D03*
X17800000Y43500000D03*
X15700000Y45000000D03*
X13500000Y45000000D03*
X11500000Y46500000D03*
X9300000Y46500000D03*
X7500000Y48500000D03*
X5300000Y48500000D03*
D17*
X43700000Y35500000D03*
X43700000Y33500000D03*
X43700000Y31500000D03*
X43700000Y29500000D03*
X43700000Y27500000D03*
X43700000Y25500000D03*
X43700000Y23500000D03*
X43700000Y21500000D03*
X28300000Y21500000D03*
X28300000Y23500000D03*
X28300000Y25500000D03*
X28300000Y27500000D03*
X28300000Y29500000D03*
X28300000Y31500000D03*
X28300000Y33500000D03*
X28300000Y35500000D03*
D18*
X41010000Y19800000D03*
X39010000Y19800000D03*
X37010000Y19800000D03*
X35010000Y19800000D03*
X33010000Y19800000D03*
X31010000Y19800000D03*
D19*
X4000000Y2880000D03*
D15*
X4000000Y5420000D03*
X4000000Y7960000D03*
X4000000Y10500000D03*
X4000000Y13040000D03*
D20*
X50180000Y10500000D03*
X20820000Y10500000D03*
D19*
X69500000Y5960000D03*
D15*
X69500000Y3420000D03*
D19*
X69500000Y12540000D03*
D15*
X69500000Y10000000D03*
D21*
X30134999Y17984999D02*
X30134999Y18000000D01*
X2784999Y6784999D02*
X10284999Y6784999D01*
X16080001Y12580001D02*
X28580001Y12580001D01*
X30134999Y18000000D02*
X30134999Y23324999D01*
X67472920Y4244999D02*
X2255001Y4244999D01*
X69500000Y3420000D02*
X68297919Y3420000D01*
X68297919Y3420000D02*
X67472920Y4244999D01*
X2255001Y4244999D02*
X2000000Y4500000D01*
X2000000Y6000000D02*
X2784999Y6784999D01*
X30134999Y14134999D02*
X30134999Y18000000D01*
X2000000Y4500000D02*
X2000000Y6000000D01*
X28580001Y12580001D02*
X30134999Y14134999D01*
X10284999Y6784999D02*
X16080001Y12580001D01*
X69500000Y10000000D02*
X71000000Y8500000D01*
X71000000Y8500000D02*
X71000000Y4000000D01*
X71000000Y4000000D02*
X70420000Y3420000D01*
X70420000Y3420000D02*
X69500000Y3420000D01*
X68324999Y10000000D02*
X68364999Y9960000D01*
X68364999Y9960000D02*
X69500000Y9960000D01*
X68000000Y10000000D02*
X68324999Y10000000D01*
X66000000Y12000000D02*
X68000000Y10000000D01*
X61260000Y12000000D02*
X66000000Y12000000D01*
X59530000Y10270000D02*
X61260000Y12000000D01*
X43500000Y17000000D02*
X45000000Y15500000D01*
X45000000Y15500000D02*
X45000000Y14160000D01*
X45000000Y14160000D02*
X48660000Y10500000D01*
X48660000Y10500000D02*
X50180000Y10500000D01*
X50180000Y10500000D02*
X59300000Y10500000D01*
X59300000Y10500000D02*
X59530000Y10270000D01*
X27124999Y32624999D02*
X32500000Y32624999D01*
X32500000Y32624999D02*
X32624999Y32624999D01*
X46725001Y32624999D02*
X32500000Y32624999D01*
X48500000Y32000000D02*
X47350000Y32000000D01*
X47350000Y32000000D02*
X46725001Y32624999D01*
X37500000Y37500000D02*
X37500000Y40690000D01*
X37500000Y40690000D02*
X37150000Y41040000D01*
X37150000Y41040000D02*
X36000000Y41040000D01*
X32624999Y32624999D02*
X37500000Y37500000D01*
X23500000Y32000000D02*
X26500000Y32000000D01*
X26500000Y32000000D02*
X27124999Y32624999D01*
X36000000Y28040000D02*
X34850000Y28040000D01*
X34850000Y28040000D02*
X32265001Y30624999D01*
X32265001Y30624999D02*
X26025001Y30624999D01*
X26025001Y30624999D02*
X24650000Y32000000D01*
X24650000Y32000000D02*
X23500000Y32000000D01*
X28000000Y17000000D02*
X29150000Y17000000D01*
X29150000Y17000000D02*
X30134999Y17984999D01*
X30134999Y23324999D02*
X34850000Y28040000D01*
X4000000Y5420000D02*
X15625000Y5420000D01*
X34215000Y10715000D02*
X38000000Y14500000D01*
X15625000Y5420000D02*
X20920000Y10715000D01*
X20920000Y10715000D02*
X34215000Y10715000D01*
X46500000Y25914998D02*
X46914998Y25914998D01*
X38000000Y14500000D02*
X38000000Y22000000D01*
X38000000Y22000000D02*
X40500000Y24500000D01*
X40500000Y24500000D02*
X45085002Y24500000D01*
X45085002Y24500000D02*
X46500000Y25914998D01*
X46914998Y25914998D02*
X47000000Y26000000D01*
X47000000Y26000000D02*
X48136410Y26000000D01*
X48136410Y26000000D02*
X53136410Y31000000D01*
X53136410Y31000000D02*
X55000000Y31000000D01*
X65500000Y37500000D02*
X65500000Y41000000D01*
X60000000Y31000000D02*
X61000000Y32000000D01*
X54000000Y31000000D02*
X60000000Y31000000D01*
X61000000Y32000000D02*
X61000000Y35500000D01*
X61000000Y35500000D02*
X59000000Y37500000D01*
X48124999Y26624999D02*
X54500000Y33000000D01*
X54500000Y33000000D02*
X59000000Y33000000D01*
X36000000Y25500000D02*
X37124999Y26624999D01*
X37124999Y26624999D02*
X48124999Y26624999D01*
X54125320Y46000000D02*
X55398006Y46000000D01*
X55398006Y46000000D02*
X55474837Y45923169D01*
X55474837Y45923169D02*
X57162618Y45923169D01*
X57162618Y45923169D02*
X57585787Y45500000D01*
X57585787Y45500000D02*
X59000000Y45500000D01*
X53500000Y43817231D02*
X53500000Y45374680D01*
X53500000Y45374680D02*
X54125320Y46000000D01*
X54192148Y43125083D02*
X53500000Y43817231D01*
X14000000Y13500000D02*
X27040000Y13500000D01*
X6460000Y7960000D02*
X8460000Y7960000D01*
X8460000Y7960000D02*
X14000000Y13500000D01*
X4000000Y7960000D02*
X6460000Y7960000D01*
X27040000Y13500000D02*
X28000000Y14460000D01*
X36000000Y38500000D02*
X34500000Y40000000D01*
X50000000Y34000000D02*
X50000000Y29500000D01*
X34500000Y40000000D02*
X34500000Y42500000D01*
X34500000Y42500000D02*
X35000000Y43000000D01*
X35000000Y43000000D02*
X37000000Y43000000D01*
X37000000Y43000000D02*
X38000000Y42000000D01*
X38500000Y35500000D02*
X39500000Y34500000D01*
X38000000Y42000000D02*
X38000000Y41000000D01*
X38000000Y41000000D02*
X38500000Y40500000D01*
X38500000Y40500000D02*
X38500000Y35500000D01*
X50000000Y29500000D02*
X49960000Y29460000D01*
X39500000Y34500000D02*
X49500000Y34500000D01*
X49500000Y34500000D02*
X50000000Y34000000D01*
X49960000Y29460000D02*
X48500000Y29460000D01*
X23500000Y29460000D02*
X22460000Y30500000D01*
X22500000Y34500000D02*
X32000000Y34500000D01*
X32000000Y34500000D02*
X36000000Y38500000D01*
X22460000Y30500000D02*
X21500000Y30500000D01*
X21500000Y30500000D02*
X21000000Y31000000D01*
X21000000Y31000000D02*
X21000000Y33000000D01*
X21000000Y33000000D02*
X22500000Y34500000D01*
X25500000Y20500000D02*
X25500000Y27460000D01*
X25500000Y27460000D02*
X23500000Y29460000D01*
X26500000Y19500000D02*
X25500000Y20500000D01*
X26500000Y15960000D02*
X26500000Y19500000D01*
X28000000Y14460000D02*
X26500000Y15960000D01*
X54500000Y39500000D02*
X61000000Y39500000D01*
X51373070Y42099023D02*
X51900977Y42099023D01*
X51900977Y42099023D02*
X54500000Y39500000D01*
X61000000Y39500000D02*
X62500000Y38000000D01*
X49000000Y25500000D02*
X48500000Y25500000D01*
X62500000Y38000000D02*
X62500000Y31500000D01*
X62500000Y31500000D02*
X60500000Y29500000D01*
X49500000Y26000000D02*
X49000000Y25500000D01*
X60500000Y29500000D02*
X53500000Y29500000D01*
X53500000Y29500000D02*
X50000000Y26000000D01*
X50000000Y26000000D02*
X49500000Y26000000D01*
X48000000Y25000000D02*
X47000000Y25000000D01*
X48500000Y25500000D02*
X48000000Y25000000D01*
X45500000Y22500000D02*
X45375001Y22375001D01*
X45500000Y23500000D02*
X45500000Y22500000D01*
X47000000Y25000000D02*
X45500000Y23500000D01*
X45375001Y22375001D02*
X41875001Y22375001D01*
X41875001Y22375001D02*
X41000000Y21500000D01*
X41000000Y21500000D02*
X40000000Y21500000D01*
X40000000Y21500000D02*
X40000000Y9500000D01*
X40000000Y9500000D02*
X43500000Y6000000D01*
X43500000Y6000000D02*
X69500000Y6000000D01*
X64174999Y41825001D02*
X64174999Y30674999D01*
X55601687Y43638113D02*
X62361887Y43638113D01*
X60000000Y27500000D02*
X56500000Y27500000D01*
X62361887Y43638113D02*
X64174999Y41825001D01*
X47000000Y13500000D02*
X68500000Y13500000D01*
X64174999Y30674999D02*
X62000000Y28500000D01*
X68500000Y13500000D02*
X69500000Y12500000D01*
X62000000Y28500000D02*
X61000000Y28500000D01*
X49000000Y24500000D02*
X48500000Y24500000D01*
X51000000Y25500000D02*
X50500000Y25500000D01*
X61000000Y28500000D02*
X60000000Y27500000D01*
X56500000Y27500000D02*
X56000000Y27000000D01*
X52500000Y26000000D02*
X51500000Y26000000D01*
X56000000Y27000000D02*
X53500000Y27000000D01*
X47000000Y21000000D02*
X45000000Y19000000D01*
X51500000Y26000000D02*
X51000000Y25500000D01*
X53500000Y27000000D02*
X52500000Y26000000D01*
X50500000Y25500000D02*
X50000000Y25000000D01*
X50000000Y25000000D02*
X49500000Y25000000D01*
X49500000Y25000000D02*
X49000000Y24500000D01*
X48500000Y24500000D02*
X48000000Y24000000D01*
X45000000Y17500000D02*
X46000000Y16500000D01*
X48000000Y24000000D02*
X47500000Y24000000D01*
X47500000Y24000000D02*
X47000000Y23500000D01*
X47000000Y23500000D02*
X47000000Y21000000D01*
X46000000Y14500000D02*
X47000000Y13500000D01*
X45000000Y19000000D02*
X45000000Y17500000D01*
X46000000Y16500000D02*
X46000000Y14500000D01*
M02*
