G04 #@! TF.FileFunction,Legend,Bot*
%FSLAX46Y46*%
G04 Gerber Fmt 4.6, Leading zero omitted, Abs format (unit mm)*
G04 Created by KiCad (PCBNEW 4.0.7) date 2018 September 05, Wednesday 09:20:39*
%MOMM*%
%LPD*%
G01*
G04 APERTURE LIST*
%ADD10C,0.100000*%
%ADD11C,0.187500*%
%ADD12C,0.150000*%
%ADD13C,0.152400*%
%ADD14C,0.120000*%
%ADD15C,0.125000*%
%ADD16C,0.300000*%
%ADD17C,1.300000*%
%ADD18C,2.400000*%
%ADD19C,2.100000*%
%ADD20O,2.100000X2.100000*%
%ADD21R,1.300000X1.600000*%
%ADD22R,2.900000X1.500000*%
%ADD23R,1.500000X2.900000*%
%ADD24R,2.100000X2.100000*%
%ADD25C,4.800000*%
%ADD26C,1.000000*%
%ADD27C,1.900000*%
%ADD28C,2.600000*%
%ADD29R,2.940000X3.910000*%
%ADD30R,2.200000X2.200000*%
%ADD31C,2.200000*%
G04 APERTURE END LIST*
D10*
X38178570Y29960714D02*
X38011904Y29960714D01*
X37940475Y29698810D02*
X38178570Y29698810D01*
X38178570Y30198810D01*
X37940475Y30198810D01*
X37749999Y29722619D02*
X37678570Y29698810D01*
X37559523Y29698810D01*
X37511904Y29722619D01*
X37488094Y29746429D01*
X37464285Y29794048D01*
X37464285Y29841667D01*
X37488094Y29889286D01*
X37511904Y29913095D01*
X37559523Y29936905D01*
X37654761Y29960714D01*
X37702380Y29984524D01*
X37726189Y30008333D01*
X37749999Y30055952D01*
X37749999Y30103571D01*
X37726189Y30151190D01*
X37702380Y30175000D01*
X37654761Y30198810D01*
X37535713Y30198810D01*
X37464285Y30175000D01*
X37249999Y29698810D02*
X37249999Y30198810D01*
X37059523Y30198810D01*
X37011904Y30175000D01*
X36988095Y30151190D01*
X36964285Y30103571D01*
X36964285Y30032143D01*
X36988095Y29984524D01*
X37011904Y29960714D01*
X37059523Y29936905D01*
X37249999Y29936905D01*
X36154762Y29698810D02*
X36154762Y29960714D01*
X36178571Y30008333D01*
X36226190Y30032143D01*
X36321428Y30032143D01*
X36369047Y30008333D01*
X36154762Y29722619D02*
X36202381Y29698810D01*
X36321428Y29698810D01*
X36369047Y29722619D01*
X36392857Y29770238D01*
X36392857Y29817857D01*
X36369047Y29865476D01*
X36321428Y29889286D01*
X36202381Y29889286D01*
X36154762Y29913095D01*
X35845238Y29698810D02*
X35892857Y29722619D01*
X35916666Y29770238D01*
X35916666Y30198810D01*
X35583333Y29698810D02*
X35630952Y29722619D01*
X35654761Y29770238D01*
X35654761Y30198810D01*
X35321428Y29698810D02*
X35369047Y29722619D01*
X35392856Y29746429D01*
X35416666Y29794048D01*
X35416666Y29936905D01*
X35392856Y29984524D01*
X35369047Y30008333D01*
X35321428Y30032143D01*
X35249999Y30032143D01*
X35202380Y30008333D01*
X35178571Y29984524D01*
X35154761Y29936905D01*
X35154761Y29794048D01*
X35178571Y29746429D01*
X35202380Y29722619D01*
X35249999Y29698810D01*
X35321428Y29698810D01*
X34988094Y30032143D02*
X34892856Y29698810D01*
X34797618Y29936905D01*
X34702380Y29698810D01*
X34607142Y30032143D01*
X34440475Y29722619D02*
X34392856Y29698810D01*
X34297618Y29698810D01*
X34249999Y29722619D01*
X34226189Y29770238D01*
X34226189Y29794048D01*
X34249999Y29841667D01*
X34297618Y29865476D01*
X34369046Y29865476D01*
X34416665Y29889286D01*
X34440475Y29936905D01*
X34440475Y29960714D01*
X34416665Y30008333D01*
X34369046Y30032143D01*
X34297618Y30032143D01*
X34249999Y30008333D01*
X33630951Y29698810D02*
X33630951Y30198810D01*
X33416666Y30151190D02*
X33392856Y30175000D01*
X33345237Y30198810D01*
X33226190Y30198810D01*
X33178571Y30175000D01*
X33154761Y30151190D01*
X33130952Y30103571D01*
X33130952Y30055952D01*
X33154761Y29984524D01*
X33440475Y29698810D01*
X33130952Y29698810D01*
X32630952Y29746429D02*
X32654762Y29722619D01*
X32726190Y29698810D01*
X32773809Y29698810D01*
X32845238Y29722619D01*
X32892857Y29770238D01*
X32916666Y29817857D01*
X32940476Y29913095D01*
X32940476Y29984524D01*
X32916666Y30079762D01*
X32892857Y30127381D01*
X32845238Y30175000D01*
X32773809Y30198810D01*
X32726190Y30198810D01*
X32654762Y30175000D01*
X32630952Y30151190D01*
X31821429Y29722619D02*
X31869048Y29698810D01*
X31964286Y29698810D01*
X32011905Y29722619D01*
X32035714Y29746429D01*
X32059524Y29794048D01*
X32059524Y29936905D01*
X32035714Y29984524D01*
X32011905Y30008333D01*
X31964286Y30032143D01*
X31869048Y30032143D01*
X31821429Y30008333D01*
X31535715Y29698810D02*
X31583334Y29722619D01*
X31607143Y29746429D01*
X31630953Y29794048D01*
X31630953Y29936905D01*
X31607143Y29984524D01*
X31583334Y30008333D01*
X31535715Y30032143D01*
X31464286Y30032143D01*
X31416667Y30008333D01*
X31392858Y29984524D01*
X31369048Y29936905D01*
X31369048Y29794048D01*
X31392858Y29746429D01*
X31416667Y29722619D01*
X31464286Y29698810D01*
X31535715Y29698810D01*
X31154762Y29698810D02*
X31154762Y30032143D01*
X31154762Y29984524D02*
X31130953Y30008333D01*
X31083334Y30032143D01*
X31011905Y30032143D01*
X30964286Y30008333D01*
X30940477Y29960714D01*
X30940477Y29698810D01*
X30940477Y29960714D02*
X30916667Y30008333D01*
X30869048Y30032143D01*
X30797620Y30032143D01*
X30750000Y30008333D01*
X30726191Y29960714D01*
X30726191Y29698810D01*
X30488095Y29698810D02*
X30488095Y30032143D01*
X30488095Y29984524D02*
X30464286Y30008333D01*
X30416667Y30032143D01*
X30345238Y30032143D01*
X30297619Y30008333D01*
X30273810Y29960714D01*
X30273810Y29698810D01*
X30273810Y29960714D02*
X30250000Y30008333D01*
X30202381Y30032143D01*
X30130953Y30032143D01*
X30083333Y30008333D01*
X30059524Y29960714D01*
X30059524Y29698810D01*
X29821428Y29746429D02*
X29797619Y29722619D01*
X29821428Y29698810D01*
X29845238Y29722619D01*
X29821428Y29746429D01*
X29821428Y29698810D01*
X37071427Y29182143D02*
X36880951Y29182143D01*
X36999998Y28848810D02*
X36999998Y29277381D01*
X36976189Y29325000D01*
X36928570Y29348810D01*
X36880951Y29348810D01*
X36642856Y28848810D02*
X36690475Y28872619D01*
X36714284Y28896429D01*
X36738094Y28944048D01*
X36738094Y29086905D01*
X36714284Y29134524D01*
X36690475Y29158333D01*
X36642856Y29182143D01*
X36571427Y29182143D01*
X36523808Y29158333D01*
X36499999Y29134524D01*
X36476189Y29086905D01*
X36476189Y28944048D01*
X36499999Y28896429D01*
X36523808Y28872619D01*
X36571427Y28848810D01*
X36642856Y28848810D01*
X36261903Y28848810D02*
X36261903Y29182143D01*
X36261903Y29086905D02*
X36238094Y29134524D01*
X36214284Y29158333D01*
X36166665Y29182143D01*
X36119046Y29182143D01*
X35595237Y28872619D02*
X35523808Y28848810D01*
X35404761Y28848810D01*
X35357142Y28872619D01*
X35333332Y28896429D01*
X35309523Y28944048D01*
X35309523Y28991667D01*
X35333332Y29039286D01*
X35357142Y29063095D01*
X35404761Y29086905D01*
X35499999Y29110714D01*
X35547618Y29134524D01*
X35571427Y29158333D01*
X35595237Y29205952D01*
X35595237Y29253571D01*
X35571427Y29301190D01*
X35547618Y29325000D01*
X35499999Y29348810D01*
X35380951Y29348810D01*
X35309523Y29325000D01*
X35095237Y28848810D02*
X35095237Y29348810D01*
X34880952Y28848810D02*
X34880952Y29110714D01*
X34904761Y29158333D01*
X34952380Y29182143D01*
X35023809Y29182143D01*
X35071428Y29158333D01*
X35095237Y29134524D01*
X34642856Y28848810D02*
X34642856Y29182143D01*
X34642856Y29348810D02*
X34666666Y29325000D01*
X34642856Y29301190D01*
X34619047Y29325000D01*
X34642856Y29348810D01*
X34642856Y29301190D01*
X34476190Y29182143D02*
X34285714Y29182143D01*
X34404761Y29348810D02*
X34404761Y28920238D01*
X34380952Y28872619D01*
X34333333Y28848810D01*
X34285714Y28848810D01*
X34190476Y29182143D02*
X34000000Y29182143D01*
X34119047Y29348810D02*
X34119047Y28920238D01*
X34095238Y28872619D01*
X34047619Y28848810D01*
X34000000Y28848810D01*
X33880952Y29182143D02*
X33761905Y28848810D01*
X33642857Y29182143D02*
X33761905Y28848810D01*
X33809524Y28729762D01*
X33833333Y28705952D01*
X33880952Y28682143D01*
X33095239Y28991667D02*
X32857144Y28991667D01*
X33142858Y28848810D02*
X32976191Y29348810D01*
X32809525Y28848810D01*
X32428573Y28848810D02*
X32428573Y29348810D01*
X32428573Y28872619D02*
X32476192Y28848810D01*
X32571430Y28848810D01*
X32619049Y28872619D01*
X32642858Y28896429D01*
X32666668Y28944048D01*
X32666668Y29086905D01*
X32642858Y29134524D01*
X32619049Y29158333D01*
X32571430Y29182143D01*
X32476192Y29182143D01*
X32428573Y29158333D01*
X31976192Y28848810D02*
X31976192Y29348810D01*
X31976192Y28872619D02*
X32023811Y28848810D01*
X32119049Y28848810D01*
X32166668Y28872619D01*
X32190477Y28896429D01*
X32214287Y28944048D01*
X32214287Y29086905D01*
X32190477Y29134524D01*
X32166668Y29158333D01*
X32119049Y29182143D01*
X32023811Y29182143D01*
X31976192Y29158333D01*
X31642858Y29348810D02*
X31547620Y29348810D01*
X31500001Y29325000D01*
X31452382Y29277381D01*
X31428573Y29182143D01*
X31428573Y29015476D01*
X31452382Y28920238D01*
X31500001Y28872619D01*
X31547620Y28848810D01*
X31642858Y28848810D01*
X31690477Y28872619D01*
X31738096Y28920238D01*
X31761906Y29015476D01*
X31761906Y29182143D01*
X31738096Y29277381D01*
X31690477Y29325000D01*
X31642858Y29348810D01*
X31214286Y29182143D02*
X31214286Y28848810D01*
X31214286Y29134524D02*
X31190477Y29158333D01*
X31142858Y29182143D01*
X31071429Y29182143D01*
X31023810Y29158333D01*
X31000001Y29110714D01*
X31000001Y28848810D01*
X8869047Y46797619D02*
X8797618Y46773810D01*
X8678571Y46773810D01*
X8630952Y46797619D01*
X8607142Y46821429D01*
X8583333Y46869048D01*
X8583333Y46916667D01*
X8607142Y46964286D01*
X8630952Y46988095D01*
X8678571Y47011905D01*
X8773809Y47035714D01*
X8821428Y47059524D01*
X8845237Y47083333D01*
X8869047Y47130952D01*
X8869047Y47178571D01*
X8845237Y47226190D01*
X8821428Y47250000D01*
X8773809Y47273810D01*
X8654761Y47273810D01*
X8583333Y47250000D01*
X8416666Y47273810D02*
X8297619Y46773810D01*
X8202381Y47130952D01*
X8107143Y46773810D01*
X7988095Y47273810D01*
X7535714Y46773810D02*
X7821428Y46773810D01*
X7678571Y46773810D02*
X7678571Y47273810D01*
X7726190Y47202381D01*
X7773809Y47154762D01*
X7821428Y47130952D01*
X6940476Y47107143D02*
X6940476Y46607143D01*
X6940476Y47083333D02*
X6892857Y47107143D01*
X6797619Y47107143D01*
X6750000Y47083333D01*
X6726191Y47059524D01*
X6702381Y47011905D01*
X6702381Y46869048D01*
X6726191Y46821429D01*
X6750000Y46797619D01*
X6797619Y46773810D01*
X6892857Y46773810D01*
X6940476Y46797619D01*
X6416667Y46773810D02*
X6464286Y46797619D01*
X6488095Y46821429D01*
X6511905Y46869048D01*
X6511905Y47011905D01*
X6488095Y47059524D01*
X6464286Y47083333D01*
X6416667Y47107143D01*
X6345238Y47107143D01*
X6297619Y47083333D01*
X6273810Y47059524D01*
X6250000Y47011905D01*
X6250000Y46869048D01*
X6273810Y46821429D01*
X6297619Y46797619D01*
X6345238Y46773810D01*
X6416667Y46773810D01*
X6083333Y47107143D02*
X5988095Y46773810D01*
X5892857Y47011905D01*
X5797619Y46773810D01*
X5702381Y47107143D01*
X5321428Y46797619D02*
X5369047Y46773810D01*
X5464285Y46773810D01*
X5511904Y46797619D01*
X5535714Y46845238D01*
X5535714Y47035714D01*
X5511904Y47083333D01*
X5464285Y47107143D01*
X5369047Y47107143D01*
X5321428Y47083333D01*
X5297619Y47035714D01*
X5297619Y46988095D01*
X5535714Y46940476D01*
X5083333Y46773810D02*
X5083333Y47107143D01*
X5083333Y47011905D02*
X5059524Y47059524D01*
X5035714Y47083333D01*
X4988095Y47107143D01*
X4940476Y47107143D01*
X4797619Y46797619D02*
X4750000Y46773810D01*
X4654762Y46773810D01*
X4607143Y46797619D01*
X4583333Y46845238D01*
X4583333Y46869048D01*
X4607143Y46916667D01*
X4654762Y46940476D01*
X4726190Y46940476D01*
X4773809Y46964286D01*
X4797619Y47011905D01*
X4797619Y47035714D01*
X4773809Y47083333D01*
X4726190Y47107143D01*
X4654762Y47107143D01*
X4607143Y47083333D01*
X3988095Y46773810D02*
X3988095Y47273810D01*
X3869048Y47273810D01*
X3797619Y47250000D01*
X3750000Y47202381D01*
X3726191Y47154762D01*
X3702381Y47059524D01*
X3702381Y46988095D01*
X3726191Y46892857D01*
X3750000Y46845238D01*
X3797619Y46797619D01*
X3869048Y46773810D01*
X3988095Y46773810D01*
X3226191Y46773810D02*
X3511905Y46773810D01*
X3369048Y46773810D02*
X3369048Y47273810D01*
X3416667Y47202381D01*
X3464286Y47154762D01*
X3511905Y47130952D01*
X3011905Y46964286D02*
X2630953Y46964286D01*
X2154762Y47273810D02*
X2392857Y47273810D01*
X2416667Y47035714D01*
X2392857Y47059524D01*
X2345238Y47083333D01*
X2226191Y47083333D01*
X2178572Y47059524D01*
X2154762Y47035714D01*
X2130953Y46988095D01*
X2130953Y46869048D01*
X2154762Y46821429D01*
X2178572Y46797619D01*
X2226191Y46773810D01*
X2345238Y46773810D01*
X2392857Y46797619D01*
X2416667Y46821429D01*
X59071428Y27797619D02*
X58999999Y27773810D01*
X58880952Y27773810D01*
X58833333Y27797619D01*
X58809523Y27821429D01*
X58785714Y27869048D01*
X58785714Y27916667D01*
X58809523Y27964286D01*
X58833333Y27988095D01*
X58880952Y28011905D01*
X58976190Y28035714D01*
X59023809Y28059524D01*
X59047618Y28083333D01*
X59071428Y28130952D01*
X59071428Y28178571D01*
X59047618Y28226190D01*
X59023809Y28250000D01*
X58976190Y28273810D01*
X58857142Y28273810D01*
X58785714Y28250000D01*
X58619047Y28273810D02*
X58500000Y27773810D01*
X58404762Y28130952D01*
X58309524Y27773810D01*
X58190476Y28273810D01*
X58047618Y28273810D02*
X57738095Y28273810D01*
X57904761Y28083333D01*
X57833333Y28083333D01*
X57785714Y28059524D01*
X57761904Y28035714D01*
X57738095Y27988095D01*
X57738095Y27869048D01*
X57761904Y27821429D01*
X57785714Y27797619D01*
X57833333Y27773810D01*
X57976190Y27773810D01*
X58023809Y27797619D01*
X58047618Y27821429D01*
X57142857Y28107143D02*
X57142857Y27607143D01*
X57142857Y28083333D02*
X57095238Y28107143D01*
X57000000Y28107143D01*
X56952381Y28083333D01*
X56928572Y28059524D01*
X56904762Y28011905D01*
X56904762Y27869048D01*
X56928572Y27821429D01*
X56952381Y27797619D01*
X57000000Y27773810D01*
X57095238Y27773810D01*
X57142857Y27797619D01*
X56619048Y27773810D02*
X56666667Y27797619D01*
X56690476Y27821429D01*
X56714286Y27869048D01*
X56714286Y28011905D01*
X56690476Y28059524D01*
X56666667Y28083333D01*
X56619048Y28107143D01*
X56547619Y28107143D01*
X56500000Y28083333D01*
X56476191Y28059524D01*
X56452381Y28011905D01*
X56452381Y27869048D01*
X56476191Y27821429D01*
X56500000Y27797619D01*
X56547619Y27773810D01*
X56619048Y27773810D01*
X56285714Y28107143D02*
X56190476Y27773810D01*
X56095238Y28011905D01*
X56000000Y27773810D01*
X55904762Y28107143D01*
X55523809Y27797619D02*
X55571428Y27773810D01*
X55666666Y27773810D01*
X55714285Y27797619D01*
X55738095Y27845238D01*
X55738095Y28035714D01*
X55714285Y28083333D01*
X55666666Y28107143D01*
X55571428Y28107143D01*
X55523809Y28083333D01*
X55500000Y28035714D01*
X55500000Y27988095D01*
X55738095Y27940476D01*
X55285714Y27773810D02*
X55285714Y28107143D01*
X55285714Y28011905D02*
X55261905Y28059524D01*
X55238095Y28083333D01*
X55190476Y28107143D01*
X55142857Y28107143D01*
X55000000Y27797619D02*
X54952381Y27773810D01*
X54857143Y27773810D01*
X54809524Y27797619D01*
X54785714Y27845238D01*
X54785714Y27869048D01*
X54809524Y27916667D01*
X54857143Y27940476D01*
X54928571Y27940476D01*
X54976190Y27964286D01*
X55000000Y28011905D01*
X55000000Y28035714D01*
X54976190Y28083333D01*
X54928571Y28107143D01*
X54857143Y28107143D01*
X54809524Y28083333D01*
X54190476Y27773810D02*
X54190476Y28273810D01*
X54071429Y28273810D01*
X54000000Y28250000D01*
X53952381Y28202381D01*
X53928572Y28154762D01*
X53904762Y28059524D01*
X53904762Y27988095D01*
X53928572Y27892857D01*
X53952381Y27845238D01*
X54000000Y27797619D01*
X54071429Y27773810D01*
X54190476Y27773810D01*
X53476191Y28273810D02*
X53571429Y28273810D01*
X53619048Y28250000D01*
X53642857Y28226190D01*
X53690476Y28154762D01*
X53714286Y28059524D01*
X53714286Y27869048D01*
X53690476Y27821429D01*
X53666667Y27797619D01*
X53619048Y27773810D01*
X53523810Y27773810D01*
X53476191Y27797619D01*
X53452381Y27821429D01*
X53428572Y27869048D01*
X53428572Y27988095D01*
X53452381Y28035714D01*
X53476191Y28059524D01*
X53523810Y28083333D01*
X53619048Y28083333D01*
X53666667Y28059524D01*
X53690476Y28035714D01*
X53714286Y27988095D01*
X48369046Y37897619D02*
X48297617Y37873810D01*
X48178570Y37873810D01*
X48130951Y37897619D01*
X48107141Y37921429D01*
X48083332Y37969048D01*
X48083332Y38016667D01*
X48107141Y38064286D01*
X48130951Y38088095D01*
X48178570Y38111905D01*
X48273808Y38135714D01*
X48321427Y38159524D01*
X48345236Y38183333D01*
X48369046Y38230952D01*
X48369046Y38278571D01*
X48345236Y38326190D01*
X48321427Y38350000D01*
X48273808Y38373810D01*
X48154760Y38373810D01*
X48083332Y38350000D01*
X47916665Y38373810D02*
X47797618Y37873810D01*
X47702380Y38230952D01*
X47607142Y37873810D01*
X47488094Y38373810D01*
X47059522Y38373810D02*
X47297617Y38373810D01*
X47321427Y38135714D01*
X47297617Y38159524D01*
X47249998Y38183333D01*
X47130951Y38183333D01*
X47083332Y38159524D01*
X47059522Y38135714D01*
X47035713Y38088095D01*
X47035713Y37969048D01*
X47059522Y37921429D01*
X47083332Y37897619D01*
X47130951Y37873810D01*
X47249998Y37873810D01*
X47297617Y37897619D01*
X47321427Y37921429D01*
X46464285Y37897619D02*
X46416666Y37873810D01*
X46321428Y37873810D01*
X46273809Y37897619D01*
X46249999Y37945238D01*
X46249999Y37969048D01*
X46273809Y38016667D01*
X46321428Y38040476D01*
X46392856Y38040476D01*
X46440475Y38064286D01*
X46464285Y38111905D01*
X46464285Y38135714D01*
X46440475Y38183333D01*
X46392856Y38207143D01*
X46321428Y38207143D01*
X46273809Y38183333D01*
X45845237Y37897619D02*
X45892856Y37873810D01*
X45988094Y37873810D01*
X46035713Y37897619D01*
X46059523Y37945238D01*
X46059523Y38135714D01*
X46035713Y38183333D01*
X45988094Y38207143D01*
X45892856Y38207143D01*
X45845237Y38183333D01*
X45821428Y38135714D01*
X45821428Y38088095D01*
X46059523Y38040476D01*
X45535714Y37873810D02*
X45583333Y37897619D01*
X45607142Y37945238D01*
X45607142Y38373810D01*
X45154761Y37897619D02*
X45202380Y37873810D01*
X45297618Y37873810D01*
X45345237Y37897619D01*
X45369047Y37945238D01*
X45369047Y38135714D01*
X45345237Y38183333D01*
X45297618Y38207143D01*
X45202380Y38207143D01*
X45154761Y38183333D01*
X45130952Y38135714D01*
X45130952Y38088095D01*
X45369047Y38040476D01*
X44702381Y37897619D02*
X44750000Y37873810D01*
X44845238Y37873810D01*
X44892857Y37897619D01*
X44916666Y37921429D01*
X44940476Y37969048D01*
X44940476Y38111905D01*
X44916666Y38159524D01*
X44892857Y38183333D01*
X44845238Y38207143D01*
X44750000Y38207143D01*
X44702381Y38183333D01*
X44559524Y38207143D02*
X44369048Y38207143D01*
X44488095Y38373810D02*
X44488095Y37945238D01*
X44464286Y37897619D01*
X44416667Y37873810D01*
X44369048Y37873810D01*
X44226191Y37897619D02*
X44178572Y37873810D01*
X44083334Y37873810D01*
X44035715Y37897619D01*
X44011905Y37945238D01*
X44011905Y37969048D01*
X44035715Y38016667D01*
X44083334Y38040476D01*
X44154762Y38040476D01*
X44202381Y38064286D01*
X44226191Y38111905D01*
X44226191Y38135714D01*
X44202381Y38183333D01*
X44154762Y38207143D01*
X44083334Y38207143D01*
X44035715Y38183333D01*
X48321427Y37357143D02*
X48226189Y37023810D01*
X48130951Y37261905D01*
X48035713Y37023810D01*
X47940475Y37357143D01*
X47749998Y37023810D02*
X47749998Y37523810D01*
X47535713Y37023810D02*
X47535713Y37285714D01*
X47559522Y37333333D01*
X47607141Y37357143D01*
X47678570Y37357143D01*
X47726189Y37333333D01*
X47749998Y37309524D01*
X47107141Y37047619D02*
X47154760Y37023810D01*
X47249998Y37023810D01*
X47297617Y37047619D01*
X47321427Y37095238D01*
X47321427Y37285714D01*
X47297617Y37333333D01*
X47249998Y37357143D01*
X47154760Y37357143D01*
X47107141Y37333333D01*
X47083332Y37285714D01*
X47083332Y37238095D01*
X47321427Y37190476D01*
X46940475Y37357143D02*
X46749999Y37357143D01*
X46869046Y37523810D02*
X46869046Y37095238D01*
X46845237Y37047619D01*
X46797618Y37023810D01*
X46749999Y37023810D01*
X46583332Y37023810D02*
X46583332Y37523810D01*
X46369047Y37023810D02*
X46369047Y37285714D01*
X46392856Y37333333D01*
X46440475Y37357143D01*
X46511904Y37357143D01*
X46559523Y37333333D01*
X46583332Y37309524D01*
X45940475Y37047619D02*
X45988094Y37023810D01*
X46083332Y37023810D01*
X46130951Y37047619D01*
X46154761Y37095238D01*
X46154761Y37285714D01*
X46130951Y37333333D01*
X46083332Y37357143D01*
X45988094Y37357143D01*
X45940475Y37333333D01*
X45916666Y37285714D01*
X45916666Y37238095D01*
X46154761Y37190476D01*
X45702380Y37023810D02*
X45702380Y37357143D01*
X45702380Y37261905D02*
X45678571Y37309524D01*
X45654761Y37333333D01*
X45607142Y37357143D01*
X45559523Y37357143D01*
X45035714Y37047619D02*
X44964285Y37023810D01*
X44845238Y37023810D01*
X44797619Y37047619D01*
X44773809Y37071429D01*
X44750000Y37119048D01*
X44750000Y37166667D01*
X44773809Y37214286D01*
X44797619Y37238095D01*
X44845238Y37261905D01*
X44940476Y37285714D01*
X44988095Y37309524D01*
X45011904Y37333333D01*
X45035714Y37380952D01*
X45035714Y37428571D01*
X45011904Y37476190D01*
X44988095Y37500000D01*
X44940476Y37523810D01*
X44821428Y37523810D01*
X44750000Y37500000D01*
X44583333Y37523810D02*
X44464286Y37023810D01*
X44369048Y37380952D01*
X44273810Y37023810D01*
X44154762Y37523810D01*
X43750000Y37357143D02*
X43750000Y37023810D01*
X43869047Y37547619D02*
X43988095Y37190476D01*
X43678571Y37190476D01*
X48976189Y36507143D02*
X48976189Y36007143D01*
X48976189Y36483333D02*
X48928570Y36507143D01*
X48833332Y36507143D01*
X48785713Y36483333D01*
X48761904Y36459524D01*
X48738094Y36411905D01*
X48738094Y36269048D01*
X48761904Y36221429D01*
X48785713Y36197619D01*
X48833332Y36173810D01*
X48928570Y36173810D01*
X48976189Y36197619D01*
X48452380Y36173810D02*
X48499999Y36197619D01*
X48523808Y36221429D01*
X48547618Y36269048D01*
X48547618Y36411905D01*
X48523808Y36459524D01*
X48499999Y36483333D01*
X48452380Y36507143D01*
X48380951Y36507143D01*
X48333332Y36483333D01*
X48309523Y36459524D01*
X48285713Y36411905D01*
X48285713Y36269048D01*
X48309523Y36221429D01*
X48333332Y36197619D01*
X48380951Y36173810D01*
X48452380Y36173810D01*
X48119046Y36507143D02*
X48023808Y36173810D01*
X47928570Y36411905D01*
X47833332Y36173810D01*
X47738094Y36507143D01*
X47357141Y36197619D02*
X47404760Y36173810D01*
X47499998Y36173810D01*
X47547617Y36197619D01*
X47571427Y36245238D01*
X47571427Y36435714D01*
X47547617Y36483333D01*
X47499998Y36507143D01*
X47404760Y36507143D01*
X47357141Y36483333D01*
X47333332Y36435714D01*
X47333332Y36388095D01*
X47571427Y36340476D01*
X47119046Y36173810D02*
X47119046Y36507143D01*
X47119046Y36411905D02*
X47095237Y36459524D01*
X47071427Y36483333D01*
X47023808Y36507143D01*
X46976189Y36507143D01*
X46833332Y36197619D02*
X46785713Y36173810D01*
X46690475Y36173810D01*
X46642856Y36197619D01*
X46619046Y36245238D01*
X46619046Y36269048D01*
X46642856Y36316667D01*
X46690475Y36340476D01*
X46761903Y36340476D01*
X46809522Y36364286D01*
X46833332Y36411905D01*
X46833332Y36435714D01*
X46809522Y36483333D01*
X46761903Y36507143D01*
X46690475Y36507143D01*
X46642856Y36483333D01*
X45880951Y36673810D02*
X45880951Y36316667D01*
X45904761Y36245238D01*
X45952380Y36197619D01*
X46023808Y36173810D01*
X46071427Y36173810D01*
X45380952Y36173810D02*
X45666666Y36173810D01*
X45523809Y36173810D02*
X45523809Y36673810D01*
X45571428Y36602381D01*
X45619047Y36554762D01*
X45666666Y36530952D01*
X44714286Y36173810D02*
X44761905Y36197619D01*
X44785714Y36221429D01*
X44809524Y36269048D01*
X44809524Y36411905D01*
X44785714Y36459524D01*
X44761905Y36483333D01*
X44714286Y36507143D01*
X44642857Y36507143D01*
X44595238Y36483333D01*
X44571429Y36459524D01*
X44547619Y36411905D01*
X44547619Y36269048D01*
X44571429Y36221429D01*
X44595238Y36197619D01*
X44642857Y36173810D01*
X44714286Y36173810D01*
X44333333Y36173810D02*
X44333333Y36507143D01*
X44333333Y36411905D02*
X44309524Y36459524D01*
X44285714Y36483333D01*
X44238095Y36507143D01*
X44190476Y36507143D01*
X43500000Y36673810D02*
X43500000Y36316667D01*
X43523810Y36245238D01*
X43571429Y36197619D01*
X43642857Y36173810D01*
X43690476Y36173810D01*
X43285715Y36626190D02*
X43261905Y36650000D01*
X43214286Y36673810D01*
X43095239Y36673810D01*
X43047620Y36650000D01*
X43023810Y36626190D01*
X43000001Y36578571D01*
X43000001Y36530952D01*
X43023810Y36459524D01*
X43309524Y36173810D01*
X43000001Y36173810D01*
X53630951Y34607143D02*
X53630951Y35321429D01*
X53011904Y35250000D02*
X53059523Y35273810D01*
X53130951Y35273810D01*
X53202380Y35250000D01*
X53249999Y35202381D01*
X53273808Y35154762D01*
X53297618Y35059524D01*
X53297618Y34988095D01*
X53273808Y34892857D01*
X53249999Y34845238D01*
X53202380Y34797619D01*
X53130951Y34773810D01*
X53083332Y34773810D01*
X53011904Y34797619D01*
X52988094Y34821429D01*
X52988094Y34988095D01*
X53083332Y34988095D01*
X52773808Y34773810D02*
X52773808Y35273810D01*
X52488094Y34773810D01*
X52488094Y35273810D01*
X52249998Y34773810D02*
X52249998Y35273810D01*
X52130951Y35273810D01*
X52059522Y35250000D01*
X52011903Y35202381D01*
X51988094Y35154762D01*
X51964284Y35059524D01*
X51964284Y34988095D01*
X51988094Y34892857D01*
X52011903Y34845238D01*
X52059522Y34797619D01*
X52130951Y34773810D01*
X52249998Y34773810D01*
X51416665Y35273810D02*
X51107142Y35273810D01*
X51273808Y35083333D01*
X51202380Y35083333D01*
X51154761Y35059524D01*
X51130951Y35035714D01*
X51107142Y34988095D01*
X51107142Y34869048D01*
X51130951Y34821429D01*
X51154761Y34797619D01*
X51202380Y34773810D01*
X51345237Y34773810D01*
X51392856Y34797619D01*
X51416665Y34821429D01*
X50964285Y35273810D02*
X50797618Y34773810D01*
X50630952Y35273810D01*
X50511904Y35273810D02*
X50202381Y35273810D01*
X50369047Y35083333D01*
X50297619Y35083333D01*
X50250000Y35059524D01*
X50226190Y35035714D01*
X50202381Y34988095D01*
X50202381Y34869048D01*
X50226190Y34821429D01*
X50250000Y34797619D01*
X50297619Y34773810D01*
X50440476Y34773810D01*
X50488095Y34797619D01*
X50511904Y34821429D01*
X49869048Y34607143D02*
X49869048Y35321429D01*
D11*
X56178571Y9660714D02*
X55714285Y9660714D01*
X55964285Y9375000D01*
X55857143Y9375000D01*
X55785714Y9339286D01*
X55750000Y9303571D01*
X55714285Y9232143D01*
X55714285Y9053571D01*
X55750000Y8982143D01*
X55785714Y8946429D01*
X55857143Y8910714D01*
X56071428Y8910714D01*
X56142857Y8946429D01*
X56178571Y8982143D01*
X55499999Y9660714D02*
X55249999Y8910714D01*
X54999999Y9660714D01*
X54821428Y9660714D02*
X54357142Y9660714D01*
X54607142Y9375000D01*
X54500000Y9375000D01*
X54428571Y9339286D01*
X54392857Y9303571D01*
X54357142Y9232143D01*
X54357142Y9053571D01*
X54392857Y8982143D01*
X54428571Y8946429D01*
X54500000Y8910714D01*
X54714285Y8910714D01*
X54785714Y8946429D01*
X54821428Y8982143D01*
X53249999Y8625000D02*
X53285713Y8660714D01*
X53357142Y8767857D01*
X53392856Y8839286D01*
X53428570Y8946429D01*
X53464285Y9125000D01*
X53464285Y9267857D01*
X53428570Y9446429D01*
X53392856Y9553571D01*
X53357142Y9625000D01*
X53285713Y9732143D01*
X53249999Y9767857D01*
X52964285Y9196429D02*
X52392856Y9196429D01*
X52678570Y8910714D02*
X52678570Y9482143D01*
X52107142Y8625000D02*
X52071428Y8660714D01*
X51999999Y8767857D01*
X51964285Y8839286D01*
X51928571Y8946429D01*
X51892856Y9125000D01*
X51892856Y9267857D01*
X51928571Y9446429D01*
X51964285Y9553571D01*
X51999999Y9625000D01*
X52071428Y9732143D01*
X52107142Y9767857D01*
X16821428Y9625000D02*
X16892857Y9660714D01*
X17000000Y9660714D01*
X17107143Y9625000D01*
X17178571Y9553571D01*
X17214286Y9482143D01*
X17250000Y9339286D01*
X17250000Y9232143D01*
X17214286Y9089286D01*
X17178571Y9017857D01*
X17107143Y8946429D01*
X17000000Y8910714D01*
X16928571Y8910714D01*
X16821428Y8946429D01*
X16785714Y8982143D01*
X16785714Y9232143D01*
X16928571Y9232143D01*
X16464286Y8910714D02*
X16464286Y9660714D01*
X16035714Y8910714D01*
X16035714Y9660714D01*
X15678572Y8910714D02*
X15678572Y9660714D01*
X15500000Y9660714D01*
X15392857Y9625000D01*
X15321429Y9553571D01*
X15285714Y9482143D01*
X15250000Y9339286D01*
X15250000Y9232143D01*
X15285714Y9089286D01*
X15321429Y9017857D01*
X15392857Y8946429D01*
X15500000Y8910714D01*
X15678572Y8910714D01*
X14142857Y8625000D02*
X14178571Y8660714D01*
X14250000Y8767857D01*
X14285714Y8839286D01*
X14321428Y8946429D01*
X14357143Y9125000D01*
X14357143Y9267857D01*
X14321428Y9446429D01*
X14285714Y9553571D01*
X14250000Y9625000D01*
X14178571Y9732143D01*
X14142857Y9767857D01*
X13857143Y9196429D02*
X13285714Y9196429D01*
X13000000Y8625000D02*
X12964286Y8660714D01*
X12892857Y8767857D01*
X12857143Y8839286D01*
X12821429Y8946429D01*
X12785714Y9125000D01*
X12785714Y9267857D01*
X12821429Y9446429D01*
X12857143Y9553571D01*
X12892857Y9625000D01*
X12964286Y9732143D01*
X13000000Y9767857D01*
D10*
X56089285Y30910714D02*
X56660714Y30696429D01*
X56089285Y30482143D01*
X54839285Y30410714D02*
X54839285Y30803571D01*
X54874999Y30875000D01*
X54946428Y30910714D01*
X55089285Y30910714D01*
X55160714Y30875000D01*
X54839285Y30446429D02*
X54910714Y30410714D01*
X55089285Y30410714D01*
X55160714Y30446429D01*
X55196428Y30517857D01*
X55196428Y30589286D01*
X55160714Y30660714D01*
X55089285Y30696429D01*
X54910714Y30696429D01*
X54839285Y30732143D01*
X54375000Y30410714D02*
X54446428Y30446429D01*
X54482143Y30517857D01*
X54482143Y31160714D01*
X53982143Y30410714D02*
X54053571Y30446429D01*
X54089286Y30517857D01*
X54089286Y31160714D01*
X53017857Y30410714D02*
X53089285Y30446429D01*
X53125000Y30482143D01*
X53160714Y30553571D01*
X53160714Y30767857D01*
X53125000Y30839286D01*
X53089285Y30875000D01*
X53017857Y30910714D01*
X52910714Y30910714D01*
X52839285Y30875000D01*
X52803571Y30839286D01*
X52767857Y30767857D01*
X52767857Y30553571D01*
X52803571Y30482143D01*
X52839285Y30446429D01*
X52910714Y30410714D01*
X53017857Y30410714D01*
X52446429Y30910714D02*
X52446429Y30160714D01*
X52446429Y30875000D02*
X52375000Y30910714D01*
X52232143Y30910714D01*
X52160714Y30875000D01*
X52125000Y30839286D01*
X52089286Y30767857D01*
X52089286Y30553571D01*
X52125000Y30482143D01*
X52160714Y30446429D01*
X52232143Y30410714D01*
X52375000Y30410714D01*
X52446429Y30446429D01*
X51875000Y30910714D02*
X51589286Y30910714D01*
X51767858Y31160714D02*
X51767858Y30517857D01*
X51732143Y30446429D01*
X51660715Y30410714D01*
X51589286Y30410714D01*
X51339287Y30482143D02*
X51303572Y30446429D01*
X51339287Y30410714D01*
X51375001Y30446429D01*
X51339287Y30482143D01*
X51339287Y30410714D01*
X50517857Y31089286D02*
X50375000Y31196429D01*
X50232143Y31089286D01*
D12*
X52251593Y44459238D02*
X52148987Y44741146D01*
X50842054Y43946208D02*
X50739448Y44228115D01*
X53649039Y42520258D02*
X53836978Y42588662D01*
X49684021Y45227403D02*
X49803556Y45483745D01*
X50905622Y45672029D02*
X50649279Y45791563D01*
X50128648Y44005802D02*
X49684021Y45227403D01*
X49803556Y45483745D02*
X50649279Y45791563D01*
X50905622Y45672029D02*
X51350248Y44450428D01*
X48766093Y43509873D02*
X54122341Y45459388D01*
X50829961Y41494197D02*
X52427439Y42075632D01*
X48877681Y41741386D02*
X48604065Y42493140D01*
X54900006Y44784675D02*
X55173622Y44032921D01*
X63500000Y30750000D02*
X59000000Y30750000D01*
X64750000Y34750000D02*
X64750000Y33250000D01*
X59000000Y37250000D02*
X63500000Y37250000D01*
X57750000Y33250000D02*
X57750000Y34750000D01*
X59000000Y45250000D02*
X63500000Y45250000D01*
X57750000Y41250000D02*
X57750000Y42750000D01*
X63500000Y38750000D02*
X59000000Y38750000D01*
X64750000Y42750000D02*
X64750000Y41250000D01*
X17325000Y29350000D02*
X17325000Y28350000D01*
X18675000Y28350000D02*
X18675000Y29350000D01*
X14825000Y29350000D02*
X14825000Y28350000D01*
X16175000Y28350000D02*
X16175000Y29350000D01*
X13675000Y28350000D02*
X13675000Y29350000D01*
X12325000Y29350000D02*
X12325000Y28350000D01*
X11175000Y28350000D02*
X11175000Y29350000D01*
X9825000Y29350000D02*
X9825000Y28350000D01*
X8175000Y31650000D02*
X8175000Y32650000D01*
X6825000Y32650000D02*
X6825000Y31650000D01*
D13*
X43016000Y19391000D02*
X43016000Y18629000D01*
X43016000Y18629000D02*
X27014000Y18629000D01*
X27014000Y18629000D02*
X27014000Y19391000D01*
D14*
X49170000Y35420000D02*
X49170000Y38080000D01*
X51770000Y35420000D02*
X49170000Y35420000D01*
X51770000Y38080000D02*
X49170000Y38080000D01*
X51770000Y35420000D02*
X51770000Y38080000D01*
X53040000Y35420000D02*
X54370000Y35420000D01*
X54370000Y35420000D02*
X54370000Y36750000D01*
X49130000Y31920000D02*
X49130000Y34580000D01*
X51730000Y31920000D02*
X49130000Y31920000D01*
X51730000Y34580000D02*
X49130000Y34580000D01*
X51730000Y31920000D02*
X51730000Y34580000D01*
X53000000Y31920000D02*
X54330000Y31920000D01*
X54330000Y31920000D02*
X54330000Y33250000D01*
D12*
X9310085Y42775613D02*
X17576936Y40405132D01*
X10578017Y47197417D02*
X12692793Y46591015D01*
X16633966Y45460901D02*
X18844868Y44826936D01*
D14*
X42345370Y1138211D02*
G75*
G03X45192000Y5640000I-7845370J8111789D01*
G01*
X26654630Y17361789D02*
G75*
G03X23808000Y12860000I7845370J-8111789D01*
G01*
X26654630Y1138211D02*
G75*
G02X23808000Y5640000I7845370J8111789D01*
G01*
X42345370Y17361789D02*
G75*
G02X45192000Y12860000I-7845370J-8111789D01*
G01*
X48810000Y7350000D02*
X48810000Y5640000D01*
X45192000Y5640000D02*
X48810000Y5640000D01*
X38360000Y1140000D02*
X42347300Y1140000D01*
X36160000Y3340000D02*
X38360000Y1140000D01*
X32840000Y3340000D02*
X36160000Y3340000D01*
X32840000Y3340000D02*
X30640000Y1140000D01*
X26652700Y1140000D02*
X30640000Y1140000D01*
X20190000Y7350000D02*
X20190000Y5640000D01*
X20190000Y5640000D02*
X23808000Y5640000D01*
X23808000Y12860000D02*
X20190000Y12860000D01*
X20190000Y11150000D02*
X20190000Y12860000D01*
X42347300Y17360000D02*
X26652700Y17360000D01*
X48810000Y11150000D02*
X48810000Y12860000D01*
X48810000Y12860000D02*
X45192000Y12860000D01*
D12*
X56718218Y40922582D02*
X56600263Y40828975D01*
X56376526Y40747541D01*
X56270745Y40759715D01*
X56209711Y40788176D01*
X56132391Y40861384D01*
X56099817Y40950878D01*
X56111991Y41056659D01*
X56140452Y41117693D01*
X56213659Y41195014D01*
X56376363Y41304909D01*
X56449570Y41382229D01*
X56478031Y41443263D01*
X56490205Y41549044D01*
X56457631Y41638539D01*
X56380311Y41711746D01*
X56319277Y41740207D01*
X56213496Y41752381D01*
X55989759Y41670947D01*
X55871804Y41577340D01*
X55542287Y41508081D02*
X55660571Y40486955D01*
X55237281Y41093017D01*
X55302592Y40356661D01*
X54736836Y41214920D01*
X53931385Y40921760D02*
X54378858Y41084627D01*
X54586472Y40653442D01*
X54525438Y40681902D01*
X54419657Y40694076D01*
X54195920Y40612642D01*
X54122712Y40535322D01*
X54094251Y40474288D01*
X54082078Y40368506D01*
X54163511Y40144770D01*
X54240832Y40071562D01*
X54301865Y40043102D01*
X54407647Y40030928D01*
X54631384Y40112361D01*
X54704591Y40189682D01*
X54733052Y40250716D01*
X52971785Y39102916D02*
X53000247Y39163950D01*
X53040881Y39330765D01*
X53053055Y39436546D01*
X53048942Y39587075D01*
X53012256Y39827098D01*
X52947109Y40006087D01*
X52820929Y40213537D01*
X52727322Y40331492D01*
X52650001Y40404700D01*
X52511647Y40506368D01*
X52450612Y40534828D01*
X52349272Y39281741D02*
X52422480Y39359061D01*
X52450941Y39420095D01*
X52463115Y39525876D01*
X52365394Y39794361D01*
X52288074Y39867568D01*
X52227040Y39896029D01*
X52121259Y39908203D01*
X51987016Y39859342D01*
X51913809Y39782022D01*
X51885348Y39720988D01*
X51873174Y39615207D01*
X51970894Y39346723D01*
X52048215Y39273515D01*
X52109249Y39245054D01*
X52215030Y39232880D01*
X52349272Y39281741D01*
X51405302Y39647616D02*
X51747323Y38707923D01*
X51421589Y39602869D02*
X51315808Y39615043D01*
X51136818Y39549896D01*
X51063610Y39472575D01*
X51035150Y39411541D01*
X51022976Y39305760D01*
X51120696Y39037276D01*
X51198017Y38964068D01*
X51259051Y38935608D01*
X51364832Y38923434D01*
X51543822Y38988581D01*
X51617029Y39065901D01*
X50689346Y39387029D02*
X50331368Y39256736D01*
X50441098Y39651400D02*
X50734258Y38845949D01*
X50722084Y38740168D01*
X50648876Y38662847D01*
X50559382Y38630274D01*
X50213577Y38605761D02*
X50185116Y38544727D01*
X50246150Y38516267D01*
X50274611Y38577301D01*
X50213577Y38605761D01*
X50246150Y38516267D01*
X50018466Y38027996D02*
X49957432Y38056456D01*
X49819077Y38158125D01*
X49741757Y38231332D01*
X49648150Y38349288D01*
X49521969Y38556737D01*
X49456822Y38735727D01*
X49420136Y38975750D01*
X49416023Y39126278D01*
X49428197Y39232059D01*
X49468832Y39398874D01*
X49497292Y39459908D01*
X62583333Y28845238D02*
X62440476Y28797619D01*
X62202380Y28797619D01*
X62107142Y28845238D01*
X62059523Y28892857D01*
X62011904Y28988095D01*
X62011904Y29083333D01*
X62059523Y29178571D01*
X62107142Y29226190D01*
X62202380Y29273810D01*
X62392857Y29321429D01*
X62488095Y29369048D01*
X62535714Y29416667D01*
X62583333Y29511905D01*
X62583333Y29607143D01*
X62535714Y29702381D01*
X62488095Y29750000D01*
X62392857Y29797619D01*
X62154761Y29797619D01*
X62011904Y29750000D01*
X61678571Y29797619D02*
X61440476Y28797619D01*
X61249999Y29511905D01*
X61059523Y28797619D01*
X60821428Y29797619D01*
X60535714Y29797619D02*
X59916666Y29797619D01*
X60250000Y29416667D01*
X60107142Y29416667D01*
X60011904Y29369048D01*
X59964285Y29321429D01*
X59916666Y29226190D01*
X59916666Y28988095D01*
X59964285Y28892857D01*
X60011904Y28845238D01*
X60107142Y28797619D01*
X60392857Y28797619D01*
X60488095Y28845238D01*
X60535714Y28892857D01*
D15*
X20988092Y37273810D02*
X20988092Y37773810D01*
X20869045Y37773810D01*
X20797616Y37750000D01*
X20749997Y37702381D01*
X20726188Y37654762D01*
X20702378Y37559524D01*
X20702378Y37488095D01*
X20726188Y37392857D01*
X20749997Y37345238D01*
X20797616Y37297619D01*
X20869045Y37273810D01*
X20988092Y37273810D01*
X20297616Y37297619D02*
X20345235Y37273810D01*
X20440473Y37273810D01*
X20488092Y37297619D01*
X20511902Y37345238D01*
X20511902Y37535714D01*
X20488092Y37583333D01*
X20440473Y37607143D01*
X20345235Y37607143D01*
X20297616Y37583333D01*
X20273807Y37535714D01*
X20273807Y37488095D01*
X20511902Y37440476D01*
X20130950Y37607143D02*
X19940474Y37607143D01*
X20059521Y37273810D02*
X20059521Y37702381D01*
X20035712Y37750000D01*
X19988093Y37773810D01*
X19940474Y37773810D01*
X19559522Y37297619D02*
X19607141Y37273810D01*
X19702379Y37273810D01*
X19749998Y37297619D01*
X19773807Y37321429D01*
X19797617Y37369048D01*
X19797617Y37511905D01*
X19773807Y37559524D01*
X19749998Y37583333D01*
X19702379Y37607143D01*
X19607141Y37607143D01*
X19559522Y37583333D01*
X19273808Y37273810D02*
X19321427Y37297619D01*
X19345236Y37321429D01*
X19369046Y37369048D01*
X19369046Y37511905D01*
X19345236Y37559524D01*
X19321427Y37583333D01*
X19273808Y37607143D01*
X19202379Y37607143D01*
X19154760Y37583333D01*
X19130951Y37559524D01*
X19107141Y37511905D01*
X19107141Y37369048D01*
X19130951Y37321429D01*
X19154760Y37297619D01*
X19202379Y37273810D01*
X19273808Y37273810D01*
X18892855Y37607143D02*
X18892855Y37273810D01*
X18892855Y37559524D02*
X18869046Y37583333D01*
X18821427Y37607143D01*
X18749998Y37607143D01*
X18702379Y37583333D01*
X18678570Y37535714D01*
X18678570Y37273810D01*
X18083332Y37297619D02*
X18011903Y37273810D01*
X17892856Y37273810D01*
X17845237Y37297619D01*
X17821427Y37321429D01*
X17797618Y37369048D01*
X17797618Y37416667D01*
X17821427Y37464286D01*
X17845237Y37488095D01*
X17892856Y37511905D01*
X17988094Y37535714D01*
X18035713Y37559524D01*
X18059522Y37583333D01*
X18083332Y37630952D01*
X18083332Y37678571D01*
X18059522Y37726190D01*
X18035713Y37750000D01*
X17988094Y37773810D01*
X17869046Y37773810D01*
X17797618Y37750000D01*
X17583332Y37273810D02*
X17583332Y37773810D01*
X17369047Y37273810D02*
X17369047Y37535714D01*
X17392856Y37583333D01*
X17440475Y37607143D01*
X17511904Y37607143D01*
X17559523Y37583333D01*
X17583332Y37559524D01*
X17130951Y37273810D02*
X17130951Y37607143D01*
X17130951Y37773810D02*
X17154761Y37750000D01*
X17130951Y37726190D01*
X17107142Y37750000D01*
X17130951Y37773810D01*
X17130951Y37726190D01*
X16964285Y37607143D02*
X16773809Y37607143D01*
X16892856Y37773810D02*
X16892856Y37345238D01*
X16869047Y37297619D01*
X16821428Y37273810D01*
X16773809Y37273810D01*
X16678571Y37607143D02*
X16488095Y37607143D01*
X16607142Y37773810D02*
X16607142Y37345238D01*
X16583333Y37297619D01*
X16535714Y37273810D01*
X16488095Y37273810D01*
X16369047Y37607143D02*
X16250000Y37273810D01*
X16130952Y37607143D02*
X16250000Y37273810D01*
X16297619Y37154762D01*
X16321428Y37130952D01*
X16369047Y37107143D01*
X15583334Y37416667D02*
X15345239Y37416667D01*
X15630953Y37273810D02*
X15464286Y37773810D01*
X15297620Y37273810D01*
X14916668Y37273810D02*
X14916668Y37773810D01*
X14916668Y37297619D02*
X14964287Y37273810D01*
X15059525Y37273810D01*
X15107144Y37297619D01*
X15130953Y37321429D01*
X15154763Y37369048D01*
X15154763Y37511905D01*
X15130953Y37559524D01*
X15107144Y37583333D01*
X15059525Y37607143D01*
X14964287Y37607143D01*
X14916668Y37583333D01*
X14464287Y37273810D02*
X14464287Y37773810D01*
X14464287Y37297619D02*
X14511906Y37273810D01*
X14607144Y37273810D01*
X14654763Y37297619D01*
X14678572Y37321429D01*
X14702382Y37369048D01*
X14702382Y37511905D01*
X14678572Y37559524D01*
X14654763Y37583333D01*
X14607144Y37607143D01*
X14511906Y37607143D01*
X14464287Y37583333D01*
X14130953Y37773810D02*
X14035715Y37773810D01*
X13988096Y37750000D01*
X13940477Y37702381D01*
X13916668Y37607143D01*
X13916668Y37440476D01*
X13940477Y37345238D01*
X13988096Y37297619D01*
X14035715Y37273810D01*
X14130953Y37273810D01*
X14178572Y37297619D01*
X14226191Y37345238D01*
X14250001Y37440476D01*
X14250001Y37607143D01*
X14226191Y37702381D01*
X14178572Y37750000D01*
X14130953Y37773810D01*
X13702381Y37607143D02*
X13702381Y37273810D01*
X13702381Y37559524D02*
X13678572Y37583333D01*
X13630953Y37607143D01*
X13559524Y37607143D01*
X13511905Y37583333D01*
X13488096Y37535714D01*
X13488096Y37273810D01*
X12726191Y37083333D02*
X12750001Y37107143D01*
X12797620Y37178571D01*
X12821429Y37226190D01*
X12845239Y37297619D01*
X12869048Y37416667D01*
X12869048Y37511905D01*
X12845239Y37630952D01*
X12821429Y37702381D01*
X12797620Y37750000D01*
X12750001Y37821429D01*
X12726191Y37845238D01*
X12464287Y37273810D02*
X12511906Y37297619D01*
X12535715Y37321429D01*
X12559525Y37369048D01*
X12559525Y37511905D01*
X12535715Y37559524D01*
X12511906Y37583333D01*
X12464287Y37607143D01*
X12392858Y37607143D01*
X12345239Y37583333D01*
X12321430Y37559524D01*
X12297620Y37511905D01*
X12297620Y37369048D01*
X12321430Y37321429D01*
X12345239Y37297619D01*
X12392858Y37273810D01*
X12464287Y37273810D01*
X12083334Y37607143D02*
X12083334Y37107143D01*
X12083334Y37583333D02*
X12035715Y37607143D01*
X11940477Y37607143D01*
X11892858Y37583333D01*
X11869049Y37559524D01*
X11845239Y37511905D01*
X11845239Y37369048D01*
X11869049Y37321429D01*
X11892858Y37297619D01*
X11940477Y37273810D01*
X12035715Y37273810D01*
X12083334Y37297619D01*
X11702382Y37607143D02*
X11511906Y37607143D01*
X11630953Y37773810D02*
X11630953Y37345238D01*
X11607144Y37297619D01*
X11559525Y37273810D01*
X11511906Y37273810D01*
X11345239Y37321429D02*
X11321430Y37297619D01*
X11345239Y37273810D01*
X11369049Y37297619D01*
X11345239Y37321429D01*
X11345239Y37273810D01*
X11154763Y37083333D02*
X11130954Y37107143D01*
X11083335Y37178571D01*
X11059525Y37226190D01*
X11035716Y37297619D01*
X11011906Y37416667D01*
X11011906Y37511905D01*
X11035716Y37630952D01*
X11059525Y37702381D01*
X11083335Y37750000D01*
X11130954Y37821429D01*
X11154763Y37845238D01*
X10392859Y37607143D02*
X10011907Y37464286D01*
X10392859Y37321429D01*
D10*
X10680000Y40896667D02*
X10580000Y40863333D01*
X10413333Y40863333D01*
X10346666Y40896667D01*
X10313333Y40930000D01*
X10280000Y40996667D01*
X10280000Y41063333D01*
X10313333Y41130000D01*
X10346666Y41163333D01*
X10413333Y41196667D01*
X10546666Y41230000D01*
X10613333Y41263333D01*
X10646666Y41296667D01*
X10680000Y41363333D01*
X10680000Y41430000D01*
X10646666Y41496667D01*
X10613333Y41530000D01*
X10546666Y41563333D01*
X10380000Y41563333D01*
X10280000Y41530000D01*
X9979999Y40863333D02*
X9979999Y41563333D01*
X9813333Y41563333D01*
X9713333Y41530000D01*
X9646666Y41463333D01*
X9613333Y41396667D01*
X9579999Y41263333D01*
X9579999Y41163333D01*
X9613333Y41030000D01*
X9646666Y40963333D01*
X9713333Y40896667D01*
X9813333Y40863333D01*
X9979999Y40863333D01*
X9313333Y41063333D02*
X8979999Y41063333D01*
X9379999Y40863333D02*
X9146666Y41563333D01*
X8913333Y40863333D01*
X10663334Y35496667D02*
X10563334Y35463333D01*
X10396667Y35463333D01*
X10330000Y35496667D01*
X10296667Y35530000D01*
X10263334Y35596667D01*
X10263334Y35663333D01*
X10296667Y35730000D01*
X10330000Y35763333D01*
X10396667Y35796667D01*
X10530000Y35830000D01*
X10596667Y35863333D01*
X10630000Y35896667D01*
X10663334Y35963333D01*
X10663334Y36030000D01*
X10630000Y36096667D01*
X10596667Y36130000D01*
X10530000Y36163333D01*
X10363334Y36163333D01*
X10263334Y36130000D01*
X9563333Y35530000D02*
X9596667Y35496667D01*
X9696667Y35463333D01*
X9763333Y35463333D01*
X9863333Y35496667D01*
X9930000Y35563333D01*
X9963333Y35630000D01*
X9996667Y35763333D01*
X9996667Y35863333D01*
X9963333Y35996667D01*
X9930000Y36063333D01*
X9863333Y36130000D01*
X9763333Y36163333D01*
X9696667Y36163333D01*
X9596667Y36130000D01*
X9563333Y36096667D01*
X8930000Y35463333D02*
X9263333Y35463333D01*
X9263333Y36163333D01*
X5063333Y36130000D02*
X5129999Y36163333D01*
X5229999Y36163333D01*
X5329999Y36130000D01*
X5396666Y36063333D01*
X5429999Y35996667D01*
X5463333Y35863333D01*
X5463333Y35763333D01*
X5429999Y35630000D01*
X5396666Y35563333D01*
X5329999Y35496667D01*
X5229999Y35463333D01*
X5163333Y35463333D01*
X5063333Y35496667D01*
X5029999Y35530000D01*
X5029999Y35763333D01*
X5163333Y35763333D01*
X4729999Y35463333D02*
X4729999Y36163333D01*
X4329999Y35463333D01*
X4329999Y36163333D01*
X3996666Y35463333D02*
X3996666Y36163333D01*
X3830000Y36163333D01*
X3730000Y36130000D01*
X3663333Y36063333D01*
X3630000Y35996667D01*
X3596666Y35863333D01*
X3596666Y35763333D01*
X3630000Y35630000D01*
X3663333Y35563333D01*
X3730000Y35496667D01*
X3830000Y35463333D01*
X3996666Y35463333D01*
X5396667Y41563333D02*
X4963334Y41563333D01*
X5196667Y41296667D01*
X5096667Y41296667D01*
X5030000Y41263333D01*
X4996667Y41230000D01*
X4963334Y41163333D01*
X4963334Y40996667D01*
X4996667Y40930000D01*
X5030000Y40896667D01*
X5096667Y40863333D01*
X5296667Y40863333D01*
X5363334Y40896667D01*
X5396667Y40930000D01*
X4763333Y41563333D02*
X4530000Y40863333D01*
X4296667Y41563333D01*
X4130000Y41563333D02*
X3696667Y41563333D01*
X3930000Y41296667D01*
X3830000Y41296667D01*
X3763333Y41263333D01*
X3730000Y41230000D01*
X3696667Y41163333D01*
X3696667Y40996667D01*
X3730000Y40930000D01*
X3763333Y40896667D01*
X3830000Y40863333D01*
X4030000Y40863333D01*
X4096667Y40896667D01*
X4130000Y40930000D01*
D12*
X62833333Y45845238D02*
X62690476Y45797619D01*
X62452380Y45797619D01*
X62357142Y45845238D01*
X62309523Y45892857D01*
X62261904Y45988095D01*
X62261904Y46083333D01*
X62309523Y46178571D01*
X62357142Y46226190D01*
X62452380Y46273810D01*
X62642857Y46321429D01*
X62738095Y46369048D01*
X62785714Y46416667D01*
X62833333Y46511905D01*
X62833333Y46607143D01*
X62785714Y46702381D01*
X62738095Y46750000D01*
X62642857Y46797619D01*
X62404761Y46797619D01*
X62261904Y46750000D01*
X61928571Y46797619D02*
X61690476Y45797619D01*
X61499999Y46511905D01*
X61309523Y45797619D01*
X61071428Y46797619D01*
X60261904Y46464286D02*
X60261904Y45797619D01*
X60500000Y46845238D02*
X60738095Y46130952D01*
X60119047Y46130952D01*
X18166666Y25297619D02*
X18500000Y25773810D01*
X18738095Y25297619D02*
X18738095Y26297619D01*
X18357142Y26297619D01*
X18261904Y26250000D01*
X18214285Y26202381D01*
X18166666Y26107143D01*
X18166666Y25964286D01*
X18214285Y25869048D01*
X18261904Y25821429D01*
X18357142Y25773810D01*
X18738095Y25773810D01*
X17214285Y25297619D02*
X17785714Y25297619D01*
X17500000Y25297619D02*
X17500000Y26297619D01*
X17595238Y26154762D01*
X17690476Y26059524D01*
X17785714Y26011905D01*
X15666666Y25297619D02*
X16000000Y25773810D01*
X16238095Y25297619D02*
X16238095Y26297619D01*
X15857142Y26297619D01*
X15761904Y26250000D01*
X15714285Y26202381D01*
X15666666Y26107143D01*
X15666666Y25964286D01*
X15714285Y25869048D01*
X15761904Y25821429D01*
X15857142Y25773810D01*
X16238095Y25773810D01*
X15285714Y26202381D02*
X15238095Y26250000D01*
X15142857Y26297619D01*
X14904761Y26297619D01*
X14809523Y26250000D01*
X14761904Y26202381D01*
X14714285Y26107143D01*
X14714285Y26011905D01*
X14761904Y25869048D01*
X15333333Y25297619D01*
X14714285Y25297619D01*
X13166666Y25297619D02*
X13500000Y25773810D01*
X13738095Y25297619D02*
X13738095Y26297619D01*
X13357142Y26297619D01*
X13261904Y26250000D01*
X13214285Y26202381D01*
X13166666Y26107143D01*
X13166666Y25964286D01*
X13214285Y25869048D01*
X13261904Y25821429D01*
X13357142Y25773810D01*
X13738095Y25773810D01*
X12833333Y26297619D02*
X12214285Y26297619D01*
X12547619Y25916667D01*
X12404761Y25916667D01*
X12309523Y25869048D01*
X12261904Y25821429D01*
X12214285Y25726190D01*
X12214285Y25488095D01*
X12261904Y25392857D01*
X12309523Y25345238D01*
X12404761Y25297619D01*
X12690476Y25297619D01*
X12785714Y25345238D01*
X12833333Y25392857D01*
X9052381Y29016666D02*
X8576190Y29350000D01*
X9052381Y29588095D02*
X8052381Y29588095D01*
X8052381Y29207142D01*
X8100000Y29111904D01*
X8147619Y29064285D01*
X8242857Y29016666D01*
X8385714Y29016666D01*
X8480952Y29064285D01*
X8528571Y29111904D01*
X8576190Y29207142D01*
X8576190Y29588095D01*
X8385714Y28159523D02*
X9052381Y28159523D01*
X8004762Y28397619D02*
X8719048Y28635714D01*
X8719048Y28016666D01*
X6052381Y32316666D02*
X5576190Y32650000D01*
X6052381Y32888095D02*
X5052381Y32888095D01*
X5052381Y32507142D01*
X5100000Y32411904D01*
X5147619Y32364285D01*
X5242857Y32316666D01*
X5385714Y32316666D01*
X5480952Y32364285D01*
X5528571Y32411904D01*
X5576190Y32507142D01*
X5576190Y32888095D01*
X5052381Y31411904D02*
X5052381Y31888095D01*
X5528571Y31935714D01*
X5480952Y31888095D01*
X5433333Y31792857D01*
X5433333Y31554761D01*
X5480952Y31459523D01*
X5528571Y31411904D01*
X5623810Y31364285D01*
X5861905Y31364285D01*
X5957143Y31411904D01*
X6004762Y31459523D01*
X6052381Y31554761D01*
X6052381Y31792857D01*
X6004762Y31888095D01*
X5957143Y31935714D01*
X18976192Y32583333D02*
X18500001Y32583333D01*
X19071430Y32297619D02*
X18738097Y33297619D01*
X18404763Y32297619D01*
X17928573Y32297619D02*
X18023811Y32345238D01*
X18071430Y32440476D01*
X18071430Y33297619D01*
X17404763Y32297619D02*
X17500001Y32345238D01*
X17547620Y32440476D01*
X17547620Y33297619D01*
X15738095Y32297619D02*
X16309524Y32297619D01*
X16023810Y32297619D02*
X16023810Y33297619D01*
X16119048Y33154762D01*
X16214286Y33059524D01*
X16309524Y33011905D01*
X15119048Y33297619D02*
X15023809Y33297619D01*
X14928571Y33250000D01*
X14880952Y33202381D01*
X14833333Y33107143D01*
X14785714Y32916667D01*
X14785714Y32678571D01*
X14833333Y32488095D01*
X14880952Y32392857D01*
X14928571Y32345238D01*
X15023809Y32297619D01*
X15119048Y32297619D01*
X15214286Y32345238D01*
X15261905Y32392857D01*
X15309524Y32488095D01*
X15357143Y32678571D01*
X15357143Y32916667D01*
X15309524Y33107143D01*
X15261905Y33202381D01*
X15214286Y33250000D01*
X15119048Y33297619D01*
X14357143Y32297619D02*
X14357143Y33297619D01*
X14261905Y32678571D02*
X13976190Y32297619D01*
X13976190Y32964286D02*
X14357143Y32583333D01*
X12499999Y31916667D02*
X12547619Y31964286D01*
X12642857Y32107143D01*
X12690476Y32202381D01*
X12738095Y32345238D01*
X12785714Y32583333D01*
X12785714Y32773810D01*
X12738095Y33011905D01*
X12690476Y33154762D01*
X12642857Y33250000D01*
X12547619Y33392857D01*
X12499999Y33440476D01*
X11976190Y32297619D02*
X12071428Y32345238D01*
X12119047Y32392857D01*
X12166666Y32488095D01*
X12166666Y32773810D01*
X12119047Y32869048D01*
X12071428Y32916667D01*
X11976190Y32964286D01*
X11833332Y32964286D01*
X11738094Y32916667D01*
X11690475Y32869048D01*
X11642856Y32773810D01*
X11642856Y32488095D01*
X11690475Y32392857D01*
X11738094Y32345238D01*
X11833332Y32297619D01*
X11976190Y32297619D01*
X11214285Y32964286D02*
X11214285Y31964286D01*
X11214285Y32916667D02*
X11119047Y32964286D01*
X10928570Y32964286D01*
X10833332Y32916667D01*
X10785713Y32869048D01*
X10738094Y32773810D01*
X10738094Y32488095D01*
X10785713Y32392857D01*
X10833332Y32345238D01*
X10928570Y32297619D01*
X11119047Y32297619D01*
X11214285Y32345238D01*
X10452380Y32964286D02*
X10071428Y32964286D01*
X10309523Y33297619D02*
X10309523Y32440476D01*
X10261904Y32345238D01*
X10166666Y32297619D01*
X10071428Y32297619D01*
X9738094Y32392857D02*
X9690475Y32345238D01*
X9738094Y32297619D01*
X9785713Y32345238D01*
X9738094Y32392857D01*
X9738094Y32297619D01*
X9357142Y31916667D02*
X9309523Y31964286D01*
X9214285Y32107143D01*
X9166666Y32202381D01*
X9119047Y32345238D01*
X9071428Y32583333D01*
X9071428Y32773810D01*
X9119047Y33011905D01*
X9166666Y33154762D01*
X9214285Y33250000D01*
X9309523Y33392857D01*
X9357142Y33440476D01*
X39428571Y32071429D02*
X39428571Y31738095D01*
X39952381Y31595238D02*
X39952381Y32071429D01*
X38952381Y32071429D01*
X38952381Y31595238D01*
X39904762Y31214286D02*
X39952381Y31071429D01*
X39952381Y30833333D01*
X39904762Y30738095D01*
X39857143Y30690476D01*
X39761905Y30642857D01*
X39666667Y30642857D01*
X39571429Y30690476D01*
X39523810Y30738095D01*
X39476190Y30833333D01*
X39428571Y31023810D01*
X39380952Y31119048D01*
X39333333Y31166667D01*
X39238095Y31214286D01*
X39142857Y31214286D01*
X39047619Y31166667D01*
X39000000Y31119048D01*
X38952381Y31023810D01*
X38952381Y30785714D01*
X39000000Y30642857D01*
X39952381Y30214286D02*
X38952381Y30214286D01*
X38952381Y29833333D01*
X39000000Y29738095D01*
X39047619Y29690476D01*
X39142857Y29642857D01*
X39285714Y29642857D01*
X39380952Y29690476D01*
X39428571Y29738095D01*
X39476190Y29833333D01*
X39476190Y30214286D01*
X39380952Y29071429D02*
X39333333Y29166667D01*
X39285714Y29214286D01*
X39190476Y29261905D01*
X39142857Y29261905D01*
X39047619Y29214286D01*
X39000000Y29166667D01*
X38952381Y29071429D01*
X38952381Y28880952D01*
X39000000Y28785714D01*
X39047619Y28738095D01*
X39142857Y28690476D01*
X39190476Y28690476D01*
X39285714Y28738095D01*
X39333333Y28785714D01*
X39380952Y28880952D01*
X39380952Y29071429D01*
X39428571Y29166667D01*
X39476190Y29214286D01*
X39571429Y29261905D01*
X39761905Y29261905D01*
X39857143Y29214286D01*
X39904762Y29166667D01*
X39952381Y29071429D01*
X39952381Y28880952D01*
X39904762Y28785714D01*
X39857143Y28738095D01*
X39761905Y28690476D01*
X39571429Y28690476D01*
X39476190Y28738095D01*
X39428571Y28785714D01*
X39380952Y28880952D01*
X39047619Y28309524D02*
X39000000Y28261905D01*
X38952381Y28166667D01*
X38952381Y27928571D01*
X39000000Y27833333D01*
X39047619Y27785714D01*
X39142857Y27738095D01*
X39238095Y27738095D01*
X39380952Y27785714D01*
X39952381Y28357143D01*
X39952381Y27738095D01*
X38952381Y26880952D02*
X38952381Y27071429D01*
X39000000Y27166667D01*
X39047619Y27214286D01*
X39190476Y27309524D01*
X39380952Y27357143D01*
X39761905Y27357143D01*
X39857143Y27309524D01*
X39904762Y27261905D01*
X39952381Y27166667D01*
X39952381Y26976190D01*
X39904762Y26880952D01*
X39857143Y26833333D01*
X39761905Y26785714D01*
X39523810Y26785714D01*
X39428571Y26833333D01*
X39380952Y26880952D01*
X39333333Y26976190D01*
X39333333Y27166667D01*
X39380952Y27261905D01*
X39428571Y27309524D01*
X39523810Y27357143D01*
X38952381Y25928571D02*
X38952381Y26119048D01*
X39000000Y26214286D01*
X39047619Y26261905D01*
X39190476Y26357143D01*
X39380952Y26404762D01*
X39761905Y26404762D01*
X39857143Y26357143D01*
X39904762Y26309524D01*
X39952381Y26214286D01*
X39952381Y26023809D01*
X39904762Y25928571D01*
X39857143Y25880952D01*
X39761905Y25833333D01*
X39523810Y25833333D01*
X39428571Y25880952D01*
X39380952Y25928571D01*
X39333333Y26023809D01*
X39333333Y26214286D01*
X39380952Y26309524D01*
X39428571Y26357143D01*
X39523810Y26404762D01*
X40333333Y24357142D02*
X40285714Y24404762D01*
X40142857Y24500000D01*
X40047619Y24547619D01*
X39904762Y24595238D01*
X39666667Y24642857D01*
X39476190Y24642857D01*
X39238095Y24595238D01*
X39095238Y24547619D01*
X39000000Y24500000D01*
X38857143Y24404762D01*
X38809524Y24357142D01*
X39952381Y23833333D02*
X39904762Y23928571D01*
X39857143Y23976190D01*
X39761905Y24023809D01*
X39476190Y24023809D01*
X39380952Y23976190D01*
X39333333Y23928571D01*
X39285714Y23833333D01*
X39285714Y23690475D01*
X39333333Y23595237D01*
X39380952Y23547618D01*
X39476190Y23499999D01*
X39761905Y23499999D01*
X39857143Y23547618D01*
X39904762Y23595237D01*
X39952381Y23690475D01*
X39952381Y23833333D01*
X39285714Y23071428D02*
X40285714Y23071428D01*
X39333333Y23071428D02*
X39285714Y22976190D01*
X39285714Y22785713D01*
X39333333Y22690475D01*
X39380952Y22642856D01*
X39476190Y22595237D01*
X39761905Y22595237D01*
X39857143Y22642856D01*
X39904762Y22690475D01*
X39952381Y22785713D01*
X39952381Y22976190D01*
X39904762Y23071428D01*
X39285714Y22309523D02*
X39285714Y21928571D01*
X38952381Y22166666D02*
X39809524Y22166666D01*
X39904762Y22119047D01*
X39952381Y22023809D01*
X39952381Y21928571D01*
X39857143Y21595237D02*
X39904762Y21547618D01*
X39952381Y21595237D01*
X39904762Y21642856D01*
X39857143Y21595237D01*
X39952381Y21595237D01*
X40333333Y21214285D02*
X40285714Y21166666D01*
X40142857Y21071428D01*
X40047619Y21023809D01*
X39904762Y20976190D01*
X39666667Y20928571D01*
X39476190Y20928571D01*
X39238095Y20976190D01*
X39095238Y21023809D01*
X39000000Y21071428D01*
X38857143Y21166666D01*
X38809524Y21214285D01*
X54822381Y37083333D02*
X55536667Y37083333D01*
X55679524Y37130953D01*
X55774762Y37226191D01*
X55822381Y37369048D01*
X55822381Y37464286D01*
X55822381Y36083333D02*
X55822381Y36654762D01*
X55822381Y36369048D02*
X54822381Y36369048D01*
X54965238Y36464286D01*
X55060476Y36559524D01*
X55108095Y36654762D01*
X54782381Y33583333D02*
X55496667Y33583333D01*
X55639524Y33630953D01*
X55734762Y33726191D01*
X55782381Y33869048D01*
X55782381Y33964286D01*
X54877619Y33154762D02*
X54830000Y33107143D01*
X54782381Y33011905D01*
X54782381Y32773809D01*
X54830000Y32678571D01*
X54877619Y32630952D01*
X54972857Y32583333D01*
X55068095Y32583333D01*
X55210952Y32630952D01*
X55782381Y33202381D01*
X55782381Y32583333D01*
X13678539Y39749517D02*
X13528091Y39743120D01*
X13299218Y39808748D01*
X13220795Y39880773D01*
X13188146Y39939673D01*
X13168623Y40044348D01*
X13194874Y40135896D01*
X13266900Y40214319D01*
X13325800Y40246968D01*
X13430474Y40266492D01*
X13626698Y40259764D01*
X13731372Y40279287D01*
X13790272Y40311936D01*
X13862298Y40390359D01*
X13888549Y40481908D01*
X13869026Y40586582D01*
X13836377Y40645482D01*
X13757954Y40717507D01*
X13529081Y40783135D01*
X13378633Y40776738D01*
X13071338Y40914391D02*
X12566829Y40018757D01*
X12580615Y40757876D01*
X12200634Y40123762D01*
X12247399Y41150652D01*
X11102049Y40438776D02*
X11651342Y40281269D01*
X11376696Y40360022D02*
X11652333Y41321284D01*
X11704505Y41157710D01*
X11769803Y41039910D01*
X11848226Y40967885D01*
X35285714Y1701429D02*
X35142857Y1653810D01*
X35095238Y1606190D01*
X35047619Y1510952D01*
X35047619Y1368095D01*
X35095238Y1272857D01*
X35142857Y1225238D01*
X35238095Y1177619D01*
X35619048Y1177619D01*
X35619048Y2177619D01*
X35285714Y2177619D01*
X35190476Y2130000D01*
X35142857Y2082381D01*
X35095238Y1987143D01*
X35095238Y1891905D01*
X35142857Y1796667D01*
X35190476Y1749048D01*
X35285714Y1701429D01*
X35619048Y1701429D01*
X34761905Y2177619D02*
X34190476Y2177619D01*
X34476191Y1177619D02*
X34476191Y2177619D01*
X33333333Y1177619D02*
X33904762Y1177619D01*
X33619048Y1177619D02*
X33619048Y2177619D01*
X33714286Y2034762D01*
X33809524Y1939524D01*
X33904762Y1891905D01*
X35738095Y41547619D02*
X35738095Y42547619D01*
X35500000Y42547619D01*
X35357142Y42500000D01*
X35261904Y42404762D01*
X35214285Y42309524D01*
X35166666Y42119048D01*
X35166666Y41976190D01*
X35214285Y41785714D01*
X35261904Y41690476D01*
X35357142Y41595238D01*
X35500000Y41547619D01*
X35738095Y41547619D01*
X34214285Y41547619D02*
X34785714Y41547619D01*
X34500000Y41547619D02*
X34500000Y42547619D01*
X34595238Y42404762D01*
X34690476Y42309524D01*
X34785714Y42261905D01*
X48238095Y32547619D02*
X48238095Y33547619D01*
X48000000Y33547619D01*
X47857142Y33500000D01*
X47761904Y33404762D01*
X47714285Y33309524D01*
X47666666Y33119048D01*
X47666666Y32976190D01*
X47714285Y32785714D01*
X47761904Y32690476D01*
X47857142Y32595238D01*
X48000000Y32547619D01*
X48238095Y32547619D01*
X47285714Y33452381D02*
X47238095Y33500000D01*
X47142857Y33547619D01*
X46904761Y33547619D01*
X46809523Y33500000D01*
X46761904Y33452381D01*
X46714285Y33357143D01*
X46714285Y33261905D01*
X46761904Y33119048D01*
X47333333Y32547619D01*
X46714285Y32547619D01*
X43238095Y10797619D02*
X43238095Y11797619D01*
X43000000Y11797619D01*
X42857142Y11750000D01*
X42761904Y11654762D01*
X42714285Y11559524D01*
X42666666Y11369048D01*
X42666666Y11226190D01*
X42714285Y11035714D01*
X42761904Y10940476D01*
X42857142Y10845238D01*
X43000000Y10797619D01*
X43238095Y10797619D01*
X42333333Y11797619D02*
X41714285Y11797619D01*
X42047619Y11416667D01*
X41904761Y11416667D01*
X41809523Y11369048D01*
X41761904Y11321429D01*
X41714285Y11226190D01*
X41714285Y10988095D01*
X41761904Y10892857D01*
X41809523Y10845238D01*
X41904761Y10797619D01*
X42190476Y10797619D01*
X42285714Y10845238D01*
X42333333Y10892857D01*
X28238095Y10797619D02*
X28238095Y11797619D01*
X28000000Y11797619D01*
X27857142Y11750000D01*
X27761904Y11654762D01*
X27714285Y11559524D01*
X27666666Y11369048D01*
X27666666Y11226190D01*
X27714285Y11035714D01*
X27761904Y10940476D01*
X27857142Y10845238D01*
X28000000Y10797619D01*
X28238095Y10797619D01*
X26809523Y11464286D02*
X26809523Y10797619D01*
X27047619Y11845238D02*
X27285714Y11130952D01*
X26666666Y11130952D01*
X23238095Y32547619D02*
X23238095Y33547619D01*
X23000000Y33547619D01*
X22857142Y33500000D01*
X22761904Y33404762D01*
X22714285Y33309524D01*
X22666666Y33119048D01*
X22666666Y32976190D01*
X22714285Y32785714D01*
X22761904Y32690476D01*
X22857142Y32595238D01*
X23000000Y32547619D01*
X23238095Y32547619D01*
X21761904Y33547619D02*
X22238095Y33547619D01*
X22285714Y33071429D01*
X22238095Y33119048D01*
X22142857Y33166667D01*
X21904761Y33166667D01*
X21809523Y33119048D01*
X21761904Y33071429D01*
X21714285Y32976190D01*
X21714285Y32738095D01*
X21761904Y32642857D01*
X21809523Y32595238D01*
X21904761Y32547619D01*
X22142857Y32547619D01*
X22238095Y32595238D01*
X22285714Y32642857D01*
X38214286Y21797619D02*
X38214286Y22797619D01*
X37976191Y22797619D01*
X37833333Y22750000D01*
X37738095Y22654762D01*
X37690476Y22559524D01*
X37642857Y22369048D01*
X37642857Y22226190D01*
X37690476Y22035714D01*
X37738095Y21940476D01*
X37833333Y21845238D01*
X37976191Y21797619D01*
X38214286Y21797619D01*
X36785714Y22797619D02*
X36976191Y22797619D01*
X37071429Y22750000D01*
X37119048Y22702381D01*
X37214286Y22559524D01*
X37261905Y22369048D01*
X37261905Y21988095D01*
X37214286Y21892857D01*
X37166667Y21845238D01*
X37071429Y21797619D01*
X36880952Y21797619D01*
X36785714Y21845238D01*
X36738095Y21892857D01*
X36690476Y21988095D01*
X36690476Y22226190D01*
X36738095Y22321429D01*
X36785714Y22369048D01*
X36880952Y22416667D01*
X37071429Y22416667D01*
X37166667Y22369048D01*
X37214286Y22321429D01*
X37261905Y22226190D01*
X35214285Y21416667D02*
X35261905Y21464286D01*
X35357143Y21607143D01*
X35404762Y21702381D01*
X35452381Y21845238D01*
X35500000Y22083333D01*
X35500000Y22273810D01*
X35452381Y22511905D01*
X35404762Y22654762D01*
X35357143Y22750000D01*
X35261905Y22892857D01*
X35214285Y22940476D01*
X34690476Y21797619D02*
X34785714Y21845238D01*
X34833333Y21892857D01*
X34880952Y21988095D01*
X34880952Y22273810D01*
X34833333Y22369048D01*
X34785714Y22416667D01*
X34690476Y22464286D01*
X34547618Y22464286D01*
X34452380Y22416667D01*
X34404761Y22369048D01*
X34357142Y22273810D01*
X34357142Y21988095D01*
X34404761Y21892857D01*
X34452380Y21845238D01*
X34547618Y21797619D01*
X34690476Y21797619D01*
X33928571Y22464286D02*
X33928571Y21464286D01*
X33928571Y22416667D02*
X33833333Y22464286D01*
X33642856Y22464286D01*
X33547618Y22416667D01*
X33499999Y22369048D01*
X33452380Y22273810D01*
X33452380Y21988095D01*
X33499999Y21892857D01*
X33547618Y21845238D01*
X33642856Y21797619D01*
X33833333Y21797619D01*
X33928571Y21845238D01*
X33166666Y22464286D02*
X32785714Y22464286D01*
X33023809Y22797619D02*
X33023809Y21940476D01*
X32976190Y21845238D01*
X32880952Y21797619D01*
X32785714Y21797619D01*
X32452380Y21892857D02*
X32404761Y21845238D01*
X32452380Y21797619D01*
X32499999Y21845238D01*
X32452380Y21892857D01*
X32452380Y21797619D01*
X32071428Y21416667D02*
X32023809Y21464286D01*
X31928571Y21607143D01*
X31880952Y21702381D01*
X31833333Y21845238D01*
X31785714Y22083333D01*
X31785714Y22273810D01*
X31833333Y22511905D01*
X31880952Y22654762D01*
X31928571Y22750000D01*
X32023809Y22892857D01*
X32071428Y22940476D01*
%LPC*%
D16*
X68142857Y4071429D02*
X67285714Y4071429D01*
X67714285Y2571429D02*
X67714285Y4071429D01*
X66785714Y2571429D02*
X66785714Y4071429D01*
X66142857Y2571429D02*
X66142857Y3357143D01*
X66214286Y3500000D01*
X66357143Y3571429D01*
X66571428Y3571429D01*
X66714286Y3500000D01*
X66785714Y3428571D01*
X64857143Y2642857D02*
X65000000Y2571429D01*
X65285714Y2571429D01*
X65428571Y2642857D01*
X65500000Y2785714D01*
X65500000Y3357143D01*
X65428571Y3500000D01*
X65285714Y3571429D01*
X65000000Y3571429D01*
X64857143Y3500000D01*
X64785714Y3357143D01*
X64785714Y3214286D01*
X65500000Y3071429D01*
X62142857Y2571429D02*
X62642857Y3285714D01*
X63000000Y2571429D02*
X63000000Y4071429D01*
X62428572Y4071429D01*
X62285714Y4000000D01*
X62214286Y3928571D01*
X62142857Y3785714D01*
X62142857Y3571429D01*
X62214286Y3428571D01*
X62285714Y3357143D01*
X62428572Y3285714D01*
X63000000Y3285714D01*
X60928572Y2642857D02*
X61071429Y2571429D01*
X61357143Y2571429D01*
X61500000Y2642857D01*
X61571429Y2785714D01*
X61571429Y3357143D01*
X61500000Y3500000D01*
X61357143Y3571429D01*
X61071429Y3571429D01*
X60928572Y3500000D01*
X60857143Y3357143D01*
X60857143Y3214286D01*
X61571429Y3071429D01*
X59571429Y2571429D02*
X59571429Y3357143D01*
X59642858Y3500000D01*
X59785715Y3571429D01*
X60071429Y3571429D01*
X60214286Y3500000D01*
X59571429Y2642857D02*
X59714286Y2571429D01*
X60071429Y2571429D01*
X60214286Y2642857D01*
X60285715Y2785714D01*
X60285715Y2928571D01*
X60214286Y3071429D01*
X60071429Y3142857D01*
X59714286Y3142857D01*
X59571429Y3214286D01*
X58642857Y2571429D02*
X58785715Y2642857D01*
X58857143Y2785714D01*
X58857143Y4071429D01*
X58071429Y2571429D02*
X58071429Y3571429D01*
X58071429Y4071429D02*
X58142858Y4000000D01*
X58071429Y3928571D01*
X58000001Y4000000D01*
X58071429Y4071429D01*
X58071429Y3928571D01*
X57571429Y3571429D02*
X57000000Y3571429D01*
X57357143Y4071429D02*
X57357143Y2785714D01*
X57285715Y2642857D01*
X57142857Y2571429D01*
X57000000Y2571429D01*
X56642857Y3571429D02*
X56285714Y2571429D01*
X55928572Y3571429D02*
X56285714Y2571429D01*
X56428572Y2214286D01*
X56500000Y2142857D01*
X56642857Y2071429D01*
X53714286Y3357143D02*
X53500000Y3285714D01*
X53428572Y3214286D01*
X53357143Y3071429D01*
X53357143Y2857143D01*
X53428572Y2714286D01*
X53500000Y2642857D01*
X53642858Y2571429D01*
X54214286Y2571429D01*
X54214286Y4071429D01*
X53714286Y4071429D01*
X53571429Y4000000D01*
X53500000Y3928571D01*
X53428572Y3785714D01*
X53428572Y3642857D01*
X53500000Y3500000D01*
X53571429Y3428571D01*
X53714286Y3357143D01*
X54214286Y3357143D01*
X52071429Y2571429D02*
X52071429Y3357143D01*
X52142858Y3500000D01*
X52285715Y3571429D01*
X52571429Y3571429D01*
X52714286Y3500000D01*
X52071429Y2642857D02*
X52214286Y2571429D01*
X52571429Y2571429D01*
X52714286Y2642857D01*
X52785715Y2785714D01*
X52785715Y2928571D01*
X52714286Y3071429D01*
X52571429Y3142857D01*
X52214286Y3142857D01*
X52071429Y3214286D01*
X50714286Y2571429D02*
X50714286Y4071429D01*
X50714286Y2642857D02*
X50857143Y2571429D01*
X51142857Y2571429D01*
X51285715Y2642857D01*
X51357143Y2714286D01*
X51428572Y2857143D01*
X51428572Y3285714D01*
X51357143Y3428571D01*
X51285715Y3500000D01*
X51142857Y3571429D01*
X50857143Y3571429D01*
X50714286Y3500000D01*
X49357143Y3571429D02*
X49357143Y2357143D01*
X49428572Y2214286D01*
X49500000Y2142857D01*
X49642857Y2071429D01*
X49857143Y2071429D01*
X50000000Y2142857D01*
X49357143Y2642857D02*
X49500000Y2571429D01*
X49785714Y2571429D01*
X49928572Y2642857D01*
X50000000Y2714286D01*
X50071429Y2857143D01*
X50071429Y3285714D01*
X50000000Y3428571D01*
X49928572Y3500000D01*
X49785714Y3571429D01*
X49500000Y3571429D01*
X49357143Y3500000D01*
X48071429Y2642857D02*
X48214286Y2571429D01*
X48500000Y2571429D01*
X48642857Y2642857D01*
X48714286Y2785714D01*
X48714286Y3357143D01*
X48642857Y3500000D01*
X48500000Y3571429D01*
X48214286Y3571429D01*
X48071429Y3500000D01*
X48000000Y3357143D01*
X48000000Y3214286D01*
X48714286Y3071429D01*
D10*
X20392854Y2523214D02*
X20392854Y3273214D01*
X20214282Y3273214D01*
X20107139Y3237500D01*
X20035711Y3166071D01*
X19999996Y3094643D01*
X19964282Y2951786D01*
X19964282Y2844643D01*
X19999996Y2701786D01*
X20035711Y2630357D01*
X20107139Y2558929D01*
X20214282Y2523214D01*
X20392854Y2523214D01*
X19357139Y2558929D02*
X19428568Y2523214D01*
X19571425Y2523214D01*
X19642854Y2558929D01*
X19678568Y2630357D01*
X19678568Y2916071D01*
X19642854Y2987500D01*
X19571425Y3023214D01*
X19428568Y3023214D01*
X19357139Y2987500D01*
X19321425Y2916071D01*
X19321425Y2844643D01*
X19678568Y2773214D01*
X19035711Y2558929D02*
X18964282Y2523214D01*
X18821425Y2523214D01*
X18749997Y2558929D01*
X18714282Y2630357D01*
X18714282Y2666071D01*
X18749997Y2737500D01*
X18821425Y2773214D01*
X18928568Y2773214D01*
X18999997Y2808929D01*
X19035711Y2880357D01*
X19035711Y2916071D01*
X18999997Y2987500D01*
X18928568Y3023214D01*
X18821425Y3023214D01*
X18749997Y2987500D01*
X18392854Y2523214D02*
X18392854Y3023214D01*
X18392854Y3273214D02*
X18428568Y3237500D01*
X18392854Y3201786D01*
X18357139Y3237500D01*
X18392854Y3273214D01*
X18392854Y3201786D01*
X17714282Y3023214D02*
X17714282Y2416071D01*
X17749996Y2344643D01*
X17785711Y2308929D01*
X17857139Y2273214D01*
X17964282Y2273214D01*
X18035711Y2308929D01*
X17714282Y2558929D02*
X17785711Y2523214D01*
X17928568Y2523214D01*
X17999996Y2558929D01*
X18035711Y2594643D01*
X18071425Y2666071D01*
X18071425Y2880357D01*
X18035711Y2951786D01*
X17999996Y2987500D01*
X17928568Y3023214D01*
X17785711Y3023214D01*
X17714282Y2987500D01*
X17357140Y3023214D02*
X17357140Y2523214D01*
X17357140Y2951786D02*
X17321425Y2987500D01*
X17249997Y3023214D01*
X17142854Y3023214D01*
X17071425Y2987500D01*
X17035711Y2916071D01*
X17035711Y2523214D01*
X15499997Y2523214D02*
X15535711Y2523214D01*
X15607140Y2558929D01*
X15714282Y2666071D01*
X15892854Y2880357D01*
X15964282Y2987500D01*
X15999997Y3094643D01*
X15999997Y3166071D01*
X15964282Y3237500D01*
X15892854Y3273214D01*
X15857140Y3273214D01*
X15785711Y3237500D01*
X15749997Y3166071D01*
X15749997Y3130357D01*
X15785711Y3058929D01*
X15821425Y3023214D01*
X16035711Y2880357D01*
X16071425Y2844643D01*
X16107140Y2773214D01*
X16107140Y2666071D01*
X16071425Y2594643D01*
X16035711Y2558929D01*
X15964282Y2523214D01*
X15857140Y2523214D01*
X15785711Y2558929D01*
X15749997Y2594643D01*
X15642854Y2737500D01*
X15607140Y2844643D01*
X15607140Y2916071D01*
X14607140Y3023214D02*
X14607140Y2273214D01*
X14607140Y2987500D02*
X14535711Y3023214D01*
X14392854Y3023214D01*
X14321425Y2987500D01*
X14285711Y2951786D01*
X14249997Y2880357D01*
X14249997Y2666071D01*
X14285711Y2594643D01*
X14321425Y2558929D01*
X14392854Y2523214D01*
X14535711Y2523214D01*
X14607140Y2558929D01*
X13928569Y2523214D02*
X13928569Y3023214D01*
X13928569Y2880357D02*
X13892854Y2951786D01*
X13857140Y2987500D01*
X13785711Y3023214D01*
X13714283Y3023214D01*
X13357140Y2523214D02*
X13428568Y2558929D01*
X13464283Y2594643D01*
X13499997Y2666071D01*
X13499997Y2880357D01*
X13464283Y2951786D01*
X13428568Y2987500D01*
X13357140Y3023214D01*
X13249997Y3023214D01*
X13178568Y2987500D01*
X13142854Y2951786D01*
X13107140Y2880357D01*
X13107140Y2666071D01*
X13142854Y2594643D01*
X13178568Y2558929D01*
X13249997Y2523214D01*
X13357140Y2523214D01*
X12464283Y2523214D02*
X12464283Y3273214D01*
X12464283Y2558929D02*
X12535712Y2523214D01*
X12678569Y2523214D01*
X12749997Y2558929D01*
X12785712Y2594643D01*
X12821426Y2666071D01*
X12821426Y2880357D01*
X12785712Y2951786D01*
X12749997Y2987500D01*
X12678569Y3023214D01*
X12535712Y3023214D01*
X12464283Y2987500D01*
X11785712Y3023214D02*
X11785712Y2523214D01*
X12107141Y3023214D02*
X12107141Y2630357D01*
X12071426Y2558929D01*
X11999998Y2523214D01*
X11892855Y2523214D01*
X11821426Y2558929D01*
X11785712Y2594643D01*
X11107141Y2558929D02*
X11178570Y2523214D01*
X11321427Y2523214D01*
X11392855Y2558929D01*
X11428570Y2594643D01*
X11464284Y2666071D01*
X11464284Y2880357D01*
X11428570Y2951786D01*
X11392855Y2987500D01*
X11321427Y3023214D01*
X11178570Y3023214D01*
X11107141Y2987500D01*
X10892855Y3023214D02*
X10607141Y3023214D01*
X10785713Y3273214D02*
X10785713Y2630357D01*
X10749998Y2558929D01*
X10678570Y2523214D01*
X10607141Y2523214D01*
X10357142Y2523214D02*
X10357142Y3023214D01*
X10357142Y3273214D02*
X10392856Y3237500D01*
X10357142Y3201786D01*
X10321427Y3237500D01*
X10357142Y3273214D01*
X10357142Y3201786D01*
X9892856Y2523214D02*
X9964284Y2558929D01*
X9999999Y2594643D01*
X10035713Y2666071D01*
X10035713Y2880357D01*
X9999999Y2951786D01*
X9964284Y2987500D01*
X9892856Y3023214D01*
X9785713Y3023214D01*
X9714284Y2987500D01*
X9678570Y2951786D01*
X9642856Y2880357D01*
X9642856Y2666071D01*
X9678570Y2594643D01*
X9714284Y2558929D01*
X9785713Y2523214D01*
X9892856Y2523214D01*
X9321428Y3023214D02*
X9321428Y2523214D01*
X9321428Y2951786D02*
X9285713Y2987500D01*
X9214285Y3023214D01*
X9107142Y3023214D01*
X9035713Y2987500D01*
X8999999Y2916071D01*
X8999999Y2523214D01*
X8071428Y2523214D02*
X8071428Y3273214D01*
X8071428Y2987500D02*
X7999999Y3023214D01*
X7857142Y3023214D01*
X7785713Y2987500D01*
X7749999Y2951786D01*
X7714285Y2880357D01*
X7714285Y2666071D01*
X7749999Y2594643D01*
X7785713Y2558929D01*
X7857142Y2523214D01*
X7999999Y2523214D01*
X8071428Y2558929D01*
X7464285Y3023214D02*
X7285714Y2523214D01*
X7107142Y3023214D02*
X7285714Y2523214D01*
X7357142Y2344643D01*
X7392857Y2308929D01*
X7464285Y2273214D01*
X6249999Y2523214D02*
X6249999Y3273214D01*
X6249999Y2916071D02*
X5821427Y2916071D01*
X5821427Y2523214D02*
X5821427Y3273214D01*
X5142856Y2523214D02*
X5142856Y2916071D01*
X5178570Y2987500D01*
X5249999Y3023214D01*
X5392856Y3023214D01*
X5464285Y2987500D01*
X5142856Y2558929D02*
X5214285Y2523214D01*
X5392856Y2523214D01*
X5464285Y2558929D01*
X5499999Y2630357D01*
X5499999Y2701786D01*
X5464285Y2773214D01*
X5392856Y2808929D01*
X5214285Y2808929D01*
X5142856Y2844643D01*
X4464285Y2558929D02*
X4535714Y2523214D01*
X4678571Y2523214D01*
X4749999Y2558929D01*
X4785714Y2594643D01*
X4821428Y2666071D01*
X4821428Y2880357D01*
X4785714Y2951786D01*
X4749999Y2987500D01*
X4678571Y3023214D01*
X4535714Y3023214D01*
X4464285Y2987500D01*
X4142857Y2523214D02*
X4142857Y3273214D01*
X4071428Y2808929D02*
X3857142Y2523214D01*
X3857142Y3023214D02*
X4142857Y2737500D01*
X3607142Y3273214D02*
X3107142Y3273214D01*
X3607142Y2523214D01*
X3107142Y2523214D01*
X2714285Y2523214D02*
X2785713Y2558929D01*
X2821428Y2594643D01*
X2857142Y2666071D01*
X2857142Y2880357D01*
X2821428Y2951786D01*
X2785713Y2987500D01*
X2714285Y3023214D01*
X2607142Y3023214D01*
X2535713Y2987500D01*
X2499999Y2951786D01*
X2464285Y2880357D01*
X2464285Y2666071D01*
X2499999Y2594643D01*
X2535713Y2558929D01*
X2607142Y2523214D01*
X2714285Y2523214D01*
X2142857Y3023214D02*
X2142857Y2523214D01*
X2142857Y2951786D02*
X2107142Y2987500D01*
X2035714Y3023214D01*
X1928571Y3023214D01*
X1857142Y2987500D01*
X1821428Y2916071D01*
X1821428Y2523214D01*
X1178571Y2558929D02*
X1250000Y2523214D01*
X1392857Y2523214D01*
X1464286Y2558929D01*
X1500000Y2630357D01*
X1500000Y2916071D01*
X1464286Y2987500D01*
X1392857Y3023214D01*
X1250000Y3023214D01*
X1178571Y2987500D01*
X1142857Y2916071D01*
X1142857Y2844643D01*
X1500000Y2773214D01*
X5785716Y1298214D02*
X6035716Y1655357D01*
X6214288Y1298214D02*
X6214288Y2048214D01*
X5928573Y2048214D01*
X5857145Y2012500D01*
X5821430Y1976786D01*
X5785716Y1905357D01*
X5785716Y1798214D01*
X5821430Y1726786D01*
X5857145Y1691071D01*
X5928573Y1655357D01*
X6214288Y1655357D01*
X5178573Y1333929D02*
X5250002Y1298214D01*
X5392859Y1298214D01*
X5464288Y1333929D01*
X5500002Y1405357D01*
X5500002Y1691071D01*
X5464288Y1762500D01*
X5392859Y1798214D01*
X5250002Y1798214D01*
X5178573Y1762500D01*
X5142859Y1691071D01*
X5142859Y1619643D01*
X5500002Y1548214D01*
X4892859Y1798214D02*
X4714288Y1298214D01*
X4535716Y1798214D01*
X3285715Y1298214D02*
X3714287Y1298214D01*
X3500001Y1298214D02*
X3500001Y2048214D01*
X3571430Y1941071D01*
X3642858Y1869643D01*
X3714287Y1833929D01*
X2964287Y1369643D02*
X2928572Y1333929D01*
X2964287Y1298214D01*
X3000001Y1333929D01*
X2964287Y1369643D01*
X2964287Y1298214D01*
X2464286Y2048214D02*
X2392858Y2048214D01*
X2321429Y2012500D01*
X2285715Y1976786D01*
X2250001Y1905357D01*
X2214286Y1762500D01*
X2214286Y1583929D01*
X2250001Y1441071D01*
X2285715Y1369643D01*
X2321429Y1333929D01*
X2392858Y1298214D01*
X2464286Y1298214D01*
X2535715Y1333929D01*
X2571429Y1369643D01*
X2607144Y1441071D01*
X2642858Y1583929D01*
X2642858Y1762500D01*
X2607144Y1905357D01*
X2571429Y1976786D01*
X2535715Y2012500D01*
X2464286Y2048214D01*
X1892858Y1369643D02*
X1857143Y1333929D01*
X1892858Y1298214D01*
X1928572Y1333929D01*
X1892858Y1369643D01*
X1892858Y1298214D01*
X1392857Y2048214D02*
X1321429Y2048214D01*
X1250000Y2012500D01*
X1214286Y1976786D01*
X1178572Y1905357D01*
X1142857Y1762500D01*
X1142857Y1583929D01*
X1178572Y1441071D01*
X1214286Y1369643D01*
X1250000Y1333929D01*
X1321429Y1298214D01*
X1392857Y1298214D01*
X1464286Y1333929D01*
X1500000Y1369643D01*
X1535715Y1441071D01*
X1571429Y1583929D01*
X1571429Y1762500D01*
X1535715Y1905357D01*
X1500000Y1976786D01*
X1464286Y2012500D01*
X1392857Y2048214D01*
D17*
X50479305Y42750000D03*
X53298382Y43776060D03*
D10*
G36*
X50181158Y39768204D02*
X49531320Y41553620D01*
X50564982Y41929842D01*
X51214820Y40144426D01*
X50181158Y39768204D01*
X50181158Y39768204D01*
G37*
G36*
X53000236Y40794264D02*
X52350398Y42579680D01*
X53384060Y42955902D01*
X54033898Y41170486D01*
X53000236Y40794264D01*
X53000236Y40794264D01*
G37*
G36*
X54409775Y41307294D02*
X53759937Y43092710D01*
X54793599Y43468932D01*
X55443437Y41683516D01*
X54409775Y41307294D01*
X54409775Y41307294D01*
G37*
G36*
X47630170Y42245088D02*
X47219746Y43372719D01*
X48535316Y43851548D01*
X48945740Y42723917D01*
X47630170Y42245088D01*
X47630170Y42245088D01*
G37*
G36*
X54489926Y44741836D02*
X54079502Y45869467D01*
X55395072Y46348296D01*
X55805496Y45220665D01*
X54489926Y44741836D01*
X54489926Y44741836D01*
G37*
G36*
X55242371Y42674512D02*
X54831947Y43802143D01*
X56147517Y44280972D01*
X56557941Y43153341D01*
X55242371Y42674512D01*
X55242371Y42674512D01*
G37*
G36*
X48382615Y40177765D02*
X47972191Y41305396D01*
X49287761Y41784225D01*
X49698185Y40656594D01*
X48382615Y40177765D01*
X48382615Y40177765D01*
G37*
D18*
X64500000Y31750000D03*
X64500000Y36250000D03*
X58000000Y31750000D03*
X58000000Y36250000D03*
D19*
X8500000Y39750000D03*
D20*
X8500000Y37210000D03*
X5960000Y39750000D03*
X5960000Y37210000D03*
D18*
X58000000Y44250000D03*
X58000000Y39750000D03*
X64500000Y44250000D03*
X64500000Y39750000D03*
D21*
X18000000Y27750000D03*
X18000000Y29950000D03*
X15500000Y27750000D03*
X15500000Y29950000D03*
X13000000Y29950000D03*
X13000000Y27750000D03*
X10500000Y29950000D03*
X10500000Y27750000D03*
X7500000Y33250000D03*
X7500000Y31050000D03*
D22*
X42700000Y34250000D03*
X42700000Y32250000D03*
X42700000Y30250000D03*
X42700000Y28250000D03*
X42700000Y26250000D03*
X42700000Y24250000D03*
X42700000Y22250000D03*
X42700000Y20250000D03*
X27300000Y20250000D03*
X27300000Y22250000D03*
X27300000Y24250000D03*
X27300000Y26250000D03*
X27300000Y28250000D03*
X27300000Y30250000D03*
X27300000Y32250000D03*
X27300000Y34250000D03*
D23*
X40010000Y18550000D03*
X38010000Y18550000D03*
X36010000Y18550000D03*
X34010000Y18550000D03*
X32010000Y18550000D03*
X30010000Y18550000D03*
D24*
X53040000Y36750000D03*
D20*
X50500000Y36750000D03*
D24*
X53000000Y33250000D03*
D20*
X50460000Y33250000D03*
D25*
X35000000Y45250000D03*
D26*
X36650000Y45250000D03*
X36166726Y44083274D03*
X35000000Y43600000D03*
X33833274Y44083274D03*
X33350000Y45250000D03*
X33833274Y46416726D03*
X35000000Y46900000D03*
X36166726Y46416726D03*
D10*
G36*
X10842080Y43220575D02*
X11641429Y46008234D01*
X13467826Y45484523D01*
X12668477Y42696864D01*
X10842080Y43220575D01*
X10842080Y43220575D01*
G37*
D27*
X14215295Y44281905D02*
X13939657Y43320643D01*
X16137819Y43730631D02*
X15862181Y42769369D01*
D28*
X10315467Y45556207D02*
X9957139Y44306567D01*
X18197813Y43295981D02*
X17839485Y42046341D01*
D29*
X49180000Y9250000D03*
X19820000Y9250000D03*
D30*
X35000000Y37210000D03*
D31*
X35000000Y39750000D03*
D30*
X47500000Y28210000D03*
D31*
X47500000Y30750000D03*
D30*
X42500000Y13210000D03*
D31*
X42500000Y15750000D03*
D30*
X27500000Y13250000D03*
D31*
X27500000Y15790000D03*
D30*
X22500000Y28210000D03*
D31*
X22500000Y30750000D03*
D30*
X35000000Y24210000D03*
D31*
X35000000Y26750000D03*
M02*
