M48
;DRILL file {KiCad 4.0.7} date 2018 September 05, Wednesday 09:18:04
;FORMAT={-:-/ absolute / metric / decimal}
FMAT,2
METRIC,TZ
T1C0.400
T2C0.900
T3C1.000
T4C1.100
T5C1.500
T6C2.200
%
G90
G05
M71
T1
X8.5Y28.75
X12.5Y36.25
X15.Y39.75
X18.Y38.25
X19.5Y35.25
X22.Y24.25
X22.5Y6.75
X23.Y10.75
X25.Y22.25
X26.349Y19.023
X30.Y32.25
X31.Y31.75
X31.Y15.75
X33.35Y45.25
X33.833Y46.417
X33.833Y44.083
X35.Y46.9
X35.Y43.6
X36.167Y46.417
X36.167Y44.083
X36.65Y45.25
X38.Y14.25
X38.5Y33.5
X39.5Y32.75
X44.Y35.75
X49.5Y31.25
T2
X12.155Y44.353
X14.077Y43.801
X16.Y43.25
X22.5Y30.75
X22.5Y28.21
X27.5Y15.79
X27.5Y13.25
X35.Y39.75
X35.Y37.21
X35.Y26.75
X35.Y24.21
X42.5Y15.75
X42.5Y13.21
X47.5Y30.75
X47.5Y28.21
T3
X5.96Y39.75
X5.96Y37.21
X8.5Y39.75
X8.5Y37.21
X50.46Y33.25
X50.5Y36.75
X53.Y33.25
X53.04Y36.75
T4
X58.Y44.25
X58.Y39.75
X58.Y36.25
X58.Y31.75
X64.5Y44.25
X64.5Y39.75
X64.5Y36.25
X64.5Y31.75
T5
X10.136Y44.931
X18.019Y42.671
T6
X35.Y45.25
T0
M30
