G04 #@! TF.FileFunction,Legend,Top*
%FSLAX46Y46*%
G04 Gerber Fmt 4.6, Leading zero omitted, Abs format (unit mm)*
G04 Created by KiCad (PCBNEW 4.0.7) date 2018 August 25, Saturday 11:39:21*
%MOMM*%
%LPD*%
G01*
G04 APERTURE LIST*
%ADD10C,0.100000*%
%ADD11C,0.300000*%
%ADD12C,0.120000*%
%ADD13C,0.150000*%
G04 APERTURE END LIST*
D10*
D11*
X102492857Y59921429D02*
X103350000Y59921429D01*
X102921429Y58421429D02*
X102921429Y59921429D01*
X104135714Y59921429D02*
X104421428Y59921429D01*
X104564286Y59850000D01*
X104707143Y59707143D01*
X104778571Y59421429D01*
X104778571Y58921429D01*
X104707143Y58635714D01*
X104564286Y58492857D01*
X104421428Y58421429D01*
X104135714Y58421429D01*
X103992857Y58492857D01*
X103850000Y58635714D01*
X103778571Y58921429D01*
X103778571Y59421429D01*
X103850000Y59707143D01*
X103992857Y59850000D01*
X104135714Y59921429D01*
X105421429Y58421429D02*
X105421429Y59921429D01*
X105778572Y59921429D01*
X105992857Y59850000D01*
X106135715Y59707143D01*
X106207143Y59564286D01*
X106278572Y59278571D01*
X106278572Y59064286D01*
X106207143Y58778571D01*
X106135715Y58635714D01*
X105992857Y58492857D01*
X105778572Y58421429D01*
X105421429Y58421429D01*
X107207143Y59921429D02*
X107492857Y59921429D01*
X107635715Y59850000D01*
X107778572Y59707143D01*
X107850000Y59421429D01*
X107850000Y58921429D01*
X107778572Y58635714D01*
X107635715Y58492857D01*
X107492857Y58421429D01*
X107207143Y58421429D01*
X107064286Y58492857D01*
X106921429Y58635714D01*
X106850000Y58921429D01*
X106850000Y59421429D01*
X106921429Y59707143D01*
X107064286Y59850000D01*
X107207143Y59921429D01*
X108492858Y58564286D02*
X108564286Y58492857D01*
X108492858Y58421429D01*
X108421429Y58492857D01*
X108492858Y58564286D01*
X108492858Y58421429D01*
X108492858Y59350000D02*
X108564286Y59278571D01*
X108492858Y59207143D01*
X108421429Y59278571D01*
X108492858Y59350000D01*
X108492858Y59207143D01*
X88421429Y53892857D02*
X89564286Y53892857D01*
X91350000Y53750000D02*
X92064286Y53750000D01*
X91207143Y53321429D02*
X91707143Y54821429D01*
X92207143Y53321429D01*
X93350000Y53321429D02*
X93350000Y54821429D01*
X93350000Y53392857D02*
X93207143Y53321429D01*
X92921429Y53321429D01*
X92778571Y53392857D01*
X92707143Y53464286D01*
X92635714Y53607143D01*
X92635714Y54035714D01*
X92707143Y54178571D01*
X92778571Y54250000D01*
X92921429Y54321429D01*
X93207143Y54321429D01*
X93350000Y54250000D01*
X94707143Y53321429D02*
X94707143Y54821429D01*
X94707143Y53392857D02*
X94564286Y53321429D01*
X94278572Y53321429D01*
X94135714Y53392857D01*
X94064286Y53464286D01*
X93992857Y53607143D01*
X93992857Y54035714D01*
X94064286Y54178571D01*
X94135714Y54250000D01*
X94278572Y54321429D01*
X94564286Y54321429D01*
X94707143Y54250000D01*
X96421429Y54321429D02*
X96778572Y53321429D01*
X97135714Y54321429D01*
X98278571Y53392857D02*
X98135714Y53321429D01*
X97850000Y53321429D01*
X97707143Y53392857D01*
X97635714Y53535714D01*
X97635714Y54107143D01*
X97707143Y54250000D01*
X97850000Y54321429D01*
X98135714Y54321429D01*
X98278571Y54250000D01*
X98350000Y54107143D01*
X98350000Y53964286D01*
X97635714Y53821429D01*
X98992857Y53321429D02*
X98992857Y54321429D01*
X98992857Y54035714D02*
X99064285Y54178571D01*
X99135714Y54250000D01*
X99278571Y54321429D01*
X99421428Y54321429D01*
X99849999Y53392857D02*
X99992856Y53321429D01*
X100278571Y53321429D01*
X100421428Y53392857D01*
X100492856Y53535714D01*
X100492856Y53607143D01*
X100421428Y53750000D01*
X100278571Y53821429D01*
X100064285Y53821429D01*
X99921428Y53892857D01*
X99849999Y54035714D01*
X99849999Y54107143D01*
X99921428Y54250000D01*
X100064285Y54321429D01*
X100278571Y54321429D01*
X100421428Y54250000D01*
X101135714Y53321429D02*
X101135714Y54321429D01*
X101135714Y54821429D02*
X101064285Y54750000D01*
X101135714Y54678571D01*
X101207142Y54750000D01*
X101135714Y54821429D01*
X101135714Y54678571D01*
X102064286Y53321429D02*
X101921428Y53392857D01*
X101850000Y53464286D01*
X101778571Y53607143D01*
X101778571Y54035714D01*
X101850000Y54178571D01*
X101921428Y54250000D01*
X102064286Y54321429D01*
X102278571Y54321429D01*
X102421428Y54250000D01*
X102492857Y54178571D01*
X102564286Y54035714D01*
X102564286Y53607143D01*
X102492857Y53464286D01*
X102421428Y53392857D01*
X102278571Y53321429D01*
X102064286Y53321429D01*
X103207143Y54321429D02*
X103207143Y53321429D01*
X103207143Y54178571D02*
X103278571Y54250000D01*
X103421429Y54321429D01*
X103635714Y54321429D01*
X103778571Y54250000D01*
X103850000Y54107143D01*
X103850000Y53321429D01*
X105707143Y54321429D02*
X105707143Y53321429D01*
X105707143Y54178571D02*
X105778571Y54250000D01*
X105921429Y54321429D01*
X106135714Y54321429D01*
X106278571Y54250000D01*
X106350000Y54107143D01*
X106350000Y53321429D01*
X107707143Y54321429D02*
X107707143Y53321429D01*
X107064286Y54321429D02*
X107064286Y53535714D01*
X107135714Y53392857D01*
X107278572Y53321429D01*
X107492857Y53321429D01*
X107635714Y53392857D01*
X107707143Y53464286D01*
X108421429Y53321429D02*
X108421429Y54321429D01*
X108421429Y54178571D02*
X108492857Y54250000D01*
X108635715Y54321429D01*
X108850000Y54321429D01*
X108992857Y54250000D01*
X109064286Y54107143D01*
X109064286Y53321429D01*
X109064286Y54107143D02*
X109135715Y54250000D01*
X109278572Y54321429D01*
X109492857Y54321429D01*
X109635715Y54250000D01*
X109707143Y54107143D01*
X109707143Y53321429D01*
X110421429Y53321429D02*
X110421429Y54821429D01*
X110421429Y54250000D02*
X110564286Y54321429D01*
X110850000Y54321429D01*
X110992857Y54250000D01*
X111064286Y54178571D01*
X111135715Y54035714D01*
X111135715Y53607143D01*
X111064286Y53464286D01*
X110992857Y53392857D01*
X110850000Y53321429D01*
X110564286Y53321429D01*
X110421429Y53392857D01*
X112350000Y53392857D02*
X112207143Y53321429D01*
X111921429Y53321429D01*
X111778572Y53392857D01*
X111707143Y53535714D01*
X111707143Y54107143D01*
X111778572Y54250000D01*
X111921429Y54321429D01*
X112207143Y54321429D01*
X112350000Y54250000D01*
X112421429Y54107143D01*
X112421429Y53964286D01*
X111707143Y53821429D01*
X113064286Y53321429D02*
X113064286Y54321429D01*
X113064286Y54035714D02*
X113135714Y54178571D01*
X113207143Y54250000D01*
X113350000Y54321429D01*
X113492857Y54321429D01*
X115350000Y53321429D02*
X115207142Y53392857D01*
X115135714Y53464286D01*
X115064285Y53607143D01*
X115064285Y54035714D01*
X115135714Y54178571D01*
X115207142Y54250000D01*
X115350000Y54321429D01*
X115564285Y54321429D01*
X115707142Y54250000D01*
X115778571Y54178571D01*
X115850000Y54035714D01*
X115850000Y53607143D01*
X115778571Y53464286D01*
X115707142Y53392857D01*
X115564285Y53321429D01*
X115350000Y53321429D01*
X116492857Y54321429D02*
X116492857Y53321429D01*
X116492857Y54178571D02*
X116564285Y54250000D01*
X116707143Y54321429D01*
X116921428Y54321429D01*
X117064285Y54250000D01*
X117135714Y54107143D01*
X117135714Y53321429D01*
X118992857Y53321429D02*
X118992857Y54821429D01*
X119564285Y54821429D01*
X119707143Y54750000D01*
X119778571Y54678571D01*
X119850000Y54535714D01*
X119850000Y54321429D01*
X119778571Y54178571D01*
X119707143Y54107143D01*
X119564285Y54035714D01*
X118992857Y54035714D01*
X121350000Y53464286D02*
X121278571Y53392857D01*
X121064285Y53321429D01*
X120921428Y53321429D01*
X120707143Y53392857D01*
X120564285Y53535714D01*
X120492857Y53678571D01*
X120421428Y53964286D01*
X120421428Y54178571D01*
X120492857Y54464286D01*
X120564285Y54607143D01*
X120707143Y54750000D01*
X120921428Y54821429D01*
X121064285Y54821429D01*
X121278571Y54750000D01*
X121350000Y54678571D01*
X122492857Y54107143D02*
X122707143Y54035714D01*
X122778571Y53964286D01*
X122850000Y53821429D01*
X122850000Y53607143D01*
X122778571Y53464286D01*
X122707143Y53392857D01*
X122564285Y53321429D01*
X121992857Y53321429D01*
X121992857Y54821429D01*
X122492857Y54821429D01*
X122635714Y54750000D01*
X122707143Y54678571D01*
X122778571Y54535714D01*
X122778571Y54392857D01*
X122707143Y54250000D01*
X122635714Y54178571D01*
X122492857Y54107143D01*
X121992857Y54107143D01*
X86742858Y51342857D02*
X87885715Y51342857D01*
X89671429Y51200000D02*
X90385715Y51200000D01*
X89528572Y50771429D02*
X90028572Y52271429D01*
X90528572Y50771429D01*
X91671429Y50771429D02*
X91671429Y52271429D01*
X91671429Y50842857D02*
X91528572Y50771429D01*
X91242858Y50771429D01*
X91100000Y50842857D01*
X91028572Y50914286D01*
X90957143Y51057143D01*
X90957143Y51485714D01*
X91028572Y51628571D01*
X91100000Y51700000D01*
X91242858Y51771429D01*
X91528572Y51771429D01*
X91671429Y51700000D01*
X93028572Y50771429D02*
X93028572Y52271429D01*
X93028572Y50842857D02*
X92885715Y50771429D01*
X92600001Y50771429D01*
X92457143Y50842857D01*
X92385715Y50914286D01*
X92314286Y51057143D01*
X92314286Y51485714D01*
X92385715Y51628571D01*
X92457143Y51700000D01*
X92600001Y51771429D01*
X92885715Y51771429D01*
X93028572Y51700000D01*
X94885715Y50771429D02*
X94885715Y52271429D01*
X94885715Y51557143D02*
X95742858Y51557143D01*
X95742858Y50771429D02*
X95742858Y52271429D01*
X97100001Y50771429D02*
X97100001Y51557143D01*
X97028572Y51700000D01*
X96885715Y51771429D01*
X96600001Y51771429D01*
X96457144Y51700000D01*
X97100001Y50842857D02*
X96957144Y50771429D01*
X96600001Y50771429D01*
X96457144Y50842857D01*
X96385715Y50985714D01*
X96385715Y51128571D01*
X96457144Y51271429D01*
X96600001Y51342857D01*
X96957144Y51342857D01*
X97100001Y51414286D01*
X98457144Y50842857D02*
X98314287Y50771429D01*
X98028573Y50771429D01*
X97885715Y50842857D01*
X97814287Y50914286D01*
X97742858Y51057143D01*
X97742858Y51485714D01*
X97814287Y51628571D01*
X97885715Y51700000D01*
X98028573Y51771429D01*
X98314287Y51771429D01*
X98457144Y51700000D01*
X99100001Y50771429D02*
X99100001Y52271429D01*
X99242858Y51342857D02*
X99671429Y50771429D01*
X99671429Y51771429D02*
X99100001Y51200000D01*
X100171430Y52271429D02*
X101171430Y52271429D01*
X100171430Y50771429D01*
X101171430Y50771429D01*
X101957144Y50771429D02*
X101814286Y50842857D01*
X101742858Y50914286D01*
X101671429Y51057143D01*
X101671429Y51485714D01*
X101742858Y51628571D01*
X101814286Y51700000D01*
X101957144Y51771429D01*
X102171429Y51771429D01*
X102314286Y51700000D01*
X102385715Y51628571D01*
X102457144Y51485714D01*
X102457144Y51057143D01*
X102385715Y50914286D01*
X102314286Y50842857D01*
X102171429Y50771429D01*
X101957144Y50771429D01*
X103100001Y51771429D02*
X103100001Y50771429D01*
X103100001Y51628571D02*
X103171429Y51700000D01*
X103314287Y51771429D01*
X103528572Y51771429D01*
X103671429Y51700000D01*
X103742858Y51557143D01*
X103742858Y50771429D01*
X105028572Y50842857D02*
X104885715Y50771429D01*
X104600001Y50771429D01*
X104457144Y50842857D01*
X104385715Y50985714D01*
X104385715Y51557143D01*
X104457144Y51700000D01*
X104600001Y51771429D01*
X104885715Y51771429D01*
X105028572Y51700000D01*
X105100001Y51557143D01*
X105100001Y51414286D01*
X104385715Y51271429D01*
X107100001Y50771429D02*
X106957143Y50842857D01*
X106885715Y50985714D01*
X106885715Y52271429D01*
X107885715Y50771429D02*
X107742857Y50842857D01*
X107671429Y50914286D01*
X107600000Y51057143D01*
X107600000Y51485714D01*
X107671429Y51628571D01*
X107742857Y51700000D01*
X107885715Y51771429D01*
X108100000Y51771429D01*
X108242857Y51700000D01*
X108314286Y51628571D01*
X108385715Y51485714D01*
X108385715Y51057143D01*
X108314286Y50914286D01*
X108242857Y50842857D01*
X108100000Y50771429D01*
X107885715Y50771429D01*
X109671429Y51771429D02*
X109671429Y50557143D01*
X109600000Y50414286D01*
X109528572Y50342857D01*
X109385715Y50271429D01*
X109171429Y50271429D01*
X109028572Y50342857D01*
X109671429Y50842857D02*
X109528572Y50771429D01*
X109242858Y50771429D01*
X109100000Y50842857D01*
X109028572Y50914286D01*
X108957143Y51057143D01*
X108957143Y51485714D01*
X109028572Y51628571D01*
X109100000Y51700000D01*
X109242858Y51771429D01*
X109528572Y51771429D01*
X109671429Y51700000D01*
X110600001Y50771429D02*
X110457143Y50842857D01*
X110385715Y50914286D01*
X110314286Y51057143D01*
X110314286Y51485714D01*
X110385715Y51628571D01*
X110457143Y51700000D01*
X110600001Y51771429D01*
X110814286Y51771429D01*
X110957143Y51700000D01*
X111028572Y51628571D01*
X111100001Y51485714D01*
X111100001Y51057143D01*
X111028572Y50914286D01*
X110957143Y50842857D01*
X110814286Y50771429D01*
X110600001Y50771429D01*
X112814286Y50842857D02*
X112957143Y50771429D01*
X113242858Y50771429D01*
X113385715Y50842857D01*
X113457143Y50985714D01*
X113457143Y51057143D01*
X113385715Y51200000D01*
X113242858Y51271429D01*
X113028572Y51271429D01*
X112885715Y51342857D01*
X112814286Y51485714D01*
X112814286Y51557143D01*
X112885715Y51700000D01*
X113028572Y51771429D01*
X113242858Y51771429D01*
X113385715Y51700000D01*
X114314287Y50771429D02*
X114171429Y50842857D01*
X114100001Y50914286D01*
X114028572Y51057143D01*
X114028572Y51485714D01*
X114100001Y51628571D01*
X114171429Y51700000D01*
X114314287Y51771429D01*
X114528572Y51771429D01*
X114671429Y51700000D01*
X114742858Y51628571D01*
X114814287Y51485714D01*
X114814287Y51057143D01*
X114742858Y50914286D01*
X114671429Y50842857D01*
X114528572Y50771429D01*
X114314287Y50771429D01*
X115457144Y50771429D02*
X115457144Y51771429D01*
X115457144Y51628571D02*
X115528572Y51700000D01*
X115671430Y51771429D01*
X115885715Y51771429D01*
X116028572Y51700000D01*
X116100001Y51557143D01*
X116100001Y50771429D01*
X116100001Y51557143D02*
X116171430Y51700000D01*
X116314287Y51771429D01*
X116528572Y51771429D01*
X116671430Y51700000D01*
X116742858Y51557143D01*
X116742858Y50771429D01*
X118028572Y50842857D02*
X117885715Y50771429D01*
X117600001Y50771429D01*
X117457144Y50842857D01*
X117385715Y50985714D01*
X117385715Y51557143D01*
X117457144Y51700000D01*
X117600001Y51771429D01*
X117885715Y51771429D01*
X118028572Y51700000D01*
X118100001Y51557143D01*
X118100001Y51414286D01*
X117385715Y51271429D01*
X118600001Y51771429D02*
X118885715Y50771429D01*
X119171429Y51485714D01*
X119457144Y50771429D01*
X119742858Y51771429D01*
X120314287Y50771429D02*
X120314287Y52271429D01*
X120957144Y50771429D02*
X120957144Y51557143D01*
X120885715Y51700000D01*
X120742858Y51771429D01*
X120528573Y51771429D01*
X120385715Y51700000D01*
X120314287Y51628571D01*
X122242858Y50842857D02*
X122100001Y50771429D01*
X121814287Y50771429D01*
X121671430Y50842857D01*
X121600001Y50985714D01*
X121600001Y51557143D01*
X121671430Y51700000D01*
X121814287Y51771429D01*
X122100001Y51771429D01*
X122242858Y51700000D01*
X122314287Y51557143D01*
X122314287Y51414286D01*
X121600001Y51271429D01*
X122957144Y50771429D02*
X122957144Y51771429D01*
X122957144Y51485714D02*
X123028572Y51628571D01*
X123100001Y51700000D01*
X123242858Y51771429D01*
X123385715Y51771429D01*
X124457143Y50842857D02*
X124314286Y50771429D01*
X124028572Y50771429D01*
X123885715Y50842857D01*
X123814286Y50985714D01*
X123814286Y51557143D01*
X123885715Y51700000D01*
X124028572Y51771429D01*
X124314286Y51771429D01*
X124457143Y51700000D01*
X124528572Y51557143D01*
X124528572Y51414286D01*
X123814286Y51271429D01*
X89242857Y48792857D02*
X90385714Y48792857D01*
X92171428Y48650000D02*
X92885714Y48650000D01*
X92028571Y48221429D02*
X92528571Y49721429D01*
X93028571Y48221429D01*
X94171428Y48221429D02*
X94171428Y49721429D01*
X94171428Y48292857D02*
X94028571Y48221429D01*
X93742857Y48221429D01*
X93599999Y48292857D01*
X93528571Y48364286D01*
X93457142Y48507143D01*
X93457142Y48935714D01*
X93528571Y49078571D01*
X93599999Y49150000D01*
X93742857Y49221429D01*
X94028571Y49221429D01*
X94171428Y49150000D01*
X95528571Y48221429D02*
X95528571Y49721429D01*
X95528571Y48292857D02*
X95385714Y48221429D01*
X95100000Y48221429D01*
X94957142Y48292857D01*
X94885714Y48364286D01*
X94814285Y48507143D01*
X94814285Y48935714D01*
X94885714Y49078571D01*
X94957142Y49150000D01*
X95100000Y49221429D01*
X95385714Y49221429D01*
X95528571Y49150000D01*
X97385714Y49221429D02*
X97385714Y48221429D01*
X97385714Y49078571D02*
X97457142Y49150000D01*
X97600000Y49221429D01*
X97814285Y49221429D01*
X97957142Y49150000D01*
X98028571Y49007143D01*
X98028571Y48221429D01*
X99385714Y48221429D02*
X99385714Y49007143D01*
X99314285Y49150000D01*
X99171428Y49221429D01*
X98885714Y49221429D01*
X98742857Y49150000D01*
X99385714Y48292857D02*
X99242857Y48221429D01*
X98885714Y48221429D01*
X98742857Y48292857D01*
X98671428Y48435714D01*
X98671428Y48578571D01*
X98742857Y48721429D01*
X98885714Y48792857D01*
X99242857Y48792857D01*
X99385714Y48864286D01*
X100100000Y48221429D02*
X100100000Y49221429D01*
X100100000Y49078571D02*
X100171428Y49150000D01*
X100314286Y49221429D01*
X100528571Y49221429D01*
X100671428Y49150000D01*
X100742857Y49007143D01*
X100742857Y48221429D01*
X100742857Y49007143D02*
X100814286Y49150000D01*
X100957143Y49221429D01*
X101171428Y49221429D01*
X101314286Y49150000D01*
X101385714Y49007143D01*
X101385714Y48221429D01*
X102671428Y48292857D02*
X102528571Y48221429D01*
X102242857Y48221429D01*
X102100000Y48292857D01*
X102028571Y48435714D01*
X102028571Y49007143D01*
X102100000Y49150000D01*
X102242857Y49221429D01*
X102528571Y49221429D01*
X102671428Y49150000D01*
X102742857Y49007143D01*
X102742857Y48864286D01*
X102028571Y48721429D01*
X103314285Y48292857D02*
X103457142Y48221429D01*
X103742857Y48221429D01*
X103885714Y48292857D01*
X103957142Y48435714D01*
X103957142Y48507143D01*
X103885714Y48650000D01*
X103742857Y48721429D01*
X103528571Y48721429D01*
X103385714Y48792857D01*
X103314285Y48935714D01*
X103314285Y49007143D01*
X103385714Y49150000D01*
X103528571Y49221429D01*
X103742857Y49221429D01*
X103885714Y49150000D01*
X105957143Y48221429D02*
X105814285Y48292857D01*
X105742857Y48364286D01*
X105671428Y48507143D01*
X105671428Y48935714D01*
X105742857Y49078571D01*
X105814285Y49150000D01*
X105957143Y49221429D01*
X106171428Y49221429D01*
X106314285Y49150000D01*
X106385714Y49078571D01*
X106457143Y48935714D01*
X106457143Y48507143D01*
X106385714Y48364286D01*
X106314285Y48292857D01*
X106171428Y48221429D01*
X105957143Y48221429D01*
X106885714Y49221429D02*
X107457143Y49221429D01*
X107100000Y48221429D02*
X107100000Y49507143D01*
X107171428Y49650000D01*
X107314286Y49721429D01*
X107457143Y49721429D01*
X109742857Y48292857D02*
X109600000Y48221429D01*
X109314286Y48221429D01*
X109171428Y48292857D01*
X109100000Y48364286D01*
X109028571Y48507143D01*
X109028571Y48935714D01*
X109100000Y49078571D01*
X109171428Y49150000D01*
X109314286Y49221429D01*
X109600000Y49221429D01*
X109742857Y49150000D01*
X110600000Y48221429D02*
X110457142Y48292857D01*
X110385714Y48364286D01*
X110314285Y48507143D01*
X110314285Y48935714D01*
X110385714Y49078571D01*
X110457142Y49150000D01*
X110600000Y49221429D01*
X110814285Y49221429D01*
X110957142Y49150000D01*
X111028571Y49078571D01*
X111100000Y48935714D01*
X111100000Y48507143D01*
X111028571Y48364286D01*
X110957142Y48292857D01*
X110814285Y48221429D01*
X110600000Y48221429D01*
X111742857Y49221429D02*
X111742857Y48221429D01*
X111742857Y49078571D02*
X111814285Y49150000D01*
X111957143Y49221429D01*
X112171428Y49221429D01*
X112314285Y49150000D01*
X112385714Y49007143D01*
X112385714Y48221429D01*
X112885714Y49221429D02*
X113457143Y49221429D01*
X113100000Y49721429D02*
X113100000Y48435714D01*
X113171428Y48292857D01*
X113314286Y48221429D01*
X113457143Y48221429D01*
X113957143Y48221429D02*
X113957143Y49221429D01*
X113957143Y48935714D02*
X114028571Y49078571D01*
X114100000Y49150000D01*
X114242857Y49221429D01*
X114385714Y49221429D01*
X114885714Y48221429D02*
X114885714Y49221429D01*
X114885714Y49721429D02*
X114814285Y49650000D01*
X114885714Y49578571D01*
X114957142Y49650000D01*
X114885714Y49721429D01*
X114885714Y49578571D01*
X115600000Y48221429D02*
X115600000Y49721429D01*
X115600000Y49150000D02*
X115742857Y49221429D01*
X116028571Y49221429D01*
X116171428Y49150000D01*
X116242857Y49078571D01*
X116314286Y48935714D01*
X116314286Y48507143D01*
X116242857Y48364286D01*
X116171428Y48292857D01*
X116028571Y48221429D01*
X115742857Y48221429D01*
X115600000Y48292857D01*
X117600000Y49221429D02*
X117600000Y48221429D01*
X116957143Y49221429D02*
X116957143Y48435714D01*
X117028571Y48292857D01*
X117171429Y48221429D01*
X117385714Y48221429D01*
X117528571Y48292857D01*
X117600000Y48364286D01*
X118100000Y49221429D02*
X118671429Y49221429D01*
X118314286Y49721429D02*
X118314286Y48435714D01*
X118385714Y48292857D01*
X118528572Y48221429D01*
X118671429Y48221429D01*
X119385715Y48221429D02*
X119242857Y48292857D01*
X119171429Y48364286D01*
X119100000Y48507143D01*
X119100000Y48935714D01*
X119171429Y49078571D01*
X119242857Y49150000D01*
X119385715Y49221429D01*
X119600000Y49221429D01*
X119742857Y49150000D01*
X119814286Y49078571D01*
X119885715Y48935714D01*
X119885715Y48507143D01*
X119814286Y48364286D01*
X119742857Y48292857D01*
X119600000Y48221429D01*
X119385715Y48221429D01*
X120528572Y48221429D02*
X120528572Y49221429D01*
X120528572Y48935714D02*
X120600000Y49078571D01*
X120671429Y49150000D01*
X120814286Y49221429D01*
X120957143Y49221429D01*
X121385714Y48292857D02*
X121528571Y48221429D01*
X121814286Y48221429D01*
X121957143Y48292857D01*
X122028571Y48435714D01*
X122028571Y48507143D01*
X121957143Y48650000D01*
X121814286Y48721429D01*
X121600000Y48721429D01*
X121457143Y48792857D01*
X121385714Y48935714D01*
X121385714Y49007143D01*
X121457143Y49150000D01*
X121600000Y49221429D01*
X121814286Y49221429D01*
X121957143Y49150000D01*
D12*
X48499538Y27740000D02*
G75*
G03X50044830Y33290000I462J2990000D01*
G01*
X48500462Y27740000D02*
G75*
G02X46955170Y33290000I-462J2990000D01*
G01*
X51000000Y30730000D02*
G75*
G03X51000000Y30730000I-2500000J0D01*
G01*
X50045000Y33290000D02*
X46955000Y33290000D01*
X43499538Y12740000D02*
G75*
G03X45044830Y18290000I462J2990000D01*
G01*
X43500462Y12740000D02*
G75*
G02X41955170Y18290000I-462J2990000D01*
G01*
X46000000Y15730000D02*
G75*
G03X46000000Y15730000I-2500000J0D01*
G01*
X45045000Y18290000D02*
X41955000Y18290000D01*
X27999538Y12740000D02*
G75*
G03X29544830Y18290000I462J2990000D01*
G01*
X28000462Y12740000D02*
G75*
G02X26455170Y18290000I-462J2990000D01*
G01*
X30500000Y15730000D02*
G75*
G03X30500000Y15730000I-2500000J0D01*
G01*
X29545000Y18290000D02*
X26455000Y18290000D01*
X23499538Y27740000D02*
G75*
G03X25044830Y33290000I462J2990000D01*
G01*
X23500462Y27740000D02*
G75*
G02X21955170Y33290000I-462J2990000D01*
G01*
X26000000Y30730000D02*
G75*
G03X26000000Y30730000I-2500000J0D01*
G01*
X25045000Y33290000D02*
X21955000Y33290000D01*
D13*
X58400000Y10600000D02*
G75*
G03X58400000Y10600000I-400000J0D01*
G01*
D12*
X35999538Y23780000D02*
G75*
G03X37544830Y29330000I462J2990000D01*
G01*
X36000462Y23780000D02*
G75*
G02X34455170Y29330000I-462J2990000D01*
G01*
X38500000Y26770000D02*
G75*
G03X38500000Y26770000I-2500000J0D01*
G01*
X37545000Y29330000D02*
X34455000Y29330000D01*
X35999538Y36780000D02*
G75*
G03X37544830Y42330000I462J2990000D01*
G01*
X36000462Y36780000D02*
G75*
G02X34455170Y42330000I-462J2990000D01*
G01*
X38500000Y39770000D02*
G75*
G03X38500000Y39770000I-2500000J0D01*
G01*
X37545000Y42330000D02*
X34455000Y42330000D01*
X5330000Y14370000D02*
X2670000Y14370000D01*
X5330000Y4150000D02*
X5330000Y14370000D01*
X2670000Y4150000D02*
X2670000Y14370000D01*
X5330000Y4150000D02*
X2670000Y4150000D01*
X5330000Y2880000D02*
X5330000Y1550000D01*
X5330000Y1550000D02*
X4000000Y1550000D01*
X68170000Y2090000D02*
X70830000Y2090000D01*
X68170000Y4690000D02*
X68170000Y2090000D01*
X70830000Y4690000D02*
X70830000Y2090000D01*
X68170000Y4690000D02*
X70830000Y4690000D01*
X68170000Y5960000D02*
X68170000Y7290000D01*
X68170000Y7290000D02*
X69500000Y7290000D01*
X68170000Y8670000D02*
X70830000Y8670000D01*
X68170000Y11270000D02*
X68170000Y8670000D01*
X70830000Y11270000D02*
X70830000Y8670000D01*
X68170000Y11270000D02*
X70830000Y11270000D01*
X68170000Y12540000D02*
X68170000Y13870000D01*
X68170000Y13870000D02*
X69500000Y13870000D01*
D13*
X52912381Y29991905D02*
X51912381Y29991905D01*
X51912381Y30230000D01*
X51960000Y30372858D01*
X52055238Y30468096D01*
X52150476Y30515715D01*
X52340952Y30563334D01*
X52483810Y30563334D01*
X52674286Y30515715D01*
X52769524Y30468096D01*
X52864762Y30372858D01*
X52912381Y30230000D01*
X52912381Y29991905D01*
X52007619Y30944286D02*
X51960000Y30991905D01*
X51912381Y31087143D01*
X51912381Y31325239D01*
X51960000Y31420477D01*
X52007619Y31468096D01*
X52102857Y31515715D01*
X52198095Y31515715D01*
X52340952Y31468096D01*
X52912381Y30896667D01*
X52912381Y31515715D01*
X47912381Y14991905D02*
X46912381Y14991905D01*
X46912381Y15230000D01*
X46960000Y15372858D01*
X47055238Y15468096D01*
X47150476Y15515715D01*
X47340952Y15563334D01*
X47483810Y15563334D01*
X47674286Y15515715D01*
X47769524Y15468096D01*
X47864762Y15372858D01*
X47912381Y15230000D01*
X47912381Y14991905D01*
X46912381Y15896667D02*
X46912381Y16515715D01*
X47293333Y16182381D01*
X47293333Y16325239D01*
X47340952Y16420477D01*
X47388571Y16468096D01*
X47483810Y16515715D01*
X47721905Y16515715D01*
X47817143Y16468096D01*
X47864762Y16420477D01*
X47912381Y16325239D01*
X47912381Y16039524D01*
X47864762Y15944286D01*
X47817143Y15896667D01*
X32412381Y14991905D02*
X31412381Y14991905D01*
X31412381Y15230000D01*
X31460000Y15372858D01*
X31555238Y15468096D01*
X31650476Y15515715D01*
X31840952Y15563334D01*
X31983810Y15563334D01*
X32174286Y15515715D01*
X32269524Y15468096D01*
X32364762Y15372858D01*
X32412381Y15230000D01*
X32412381Y14991905D01*
X31745714Y16420477D02*
X32412381Y16420477D01*
X31364762Y16182381D02*
X32079048Y15944286D01*
X32079048Y16563334D01*
X27912381Y29991905D02*
X26912381Y29991905D01*
X26912381Y30230000D01*
X26960000Y30372858D01*
X27055238Y30468096D01*
X27150476Y30515715D01*
X27340952Y30563334D01*
X27483810Y30563334D01*
X27674286Y30515715D01*
X27769524Y30468096D01*
X27864762Y30372858D01*
X27912381Y30230000D01*
X27912381Y29991905D01*
X26912381Y31468096D02*
X26912381Y30991905D01*
X27388571Y30944286D01*
X27340952Y30991905D01*
X27293333Y31087143D01*
X27293333Y31325239D01*
X27340952Y31420477D01*
X27388571Y31468096D01*
X27483810Y31515715D01*
X27721905Y31515715D01*
X27817143Y31468096D01*
X27864762Y31420477D01*
X27912381Y31325239D01*
X27912381Y31087143D01*
X27864762Y30991905D01*
X27817143Y30944286D01*
X40412381Y26031905D02*
X39412381Y26031905D01*
X39412381Y26270000D01*
X39460000Y26412858D01*
X39555238Y26508096D01*
X39650476Y26555715D01*
X39840952Y26603334D01*
X39983810Y26603334D01*
X40174286Y26555715D01*
X40269524Y26508096D01*
X40364762Y26412858D01*
X40412381Y26270000D01*
X40412381Y26031905D01*
X39412381Y27460477D02*
X39412381Y27270000D01*
X39460000Y27174762D01*
X39507619Y27127143D01*
X39650476Y27031905D01*
X39840952Y26984286D01*
X40221905Y26984286D01*
X40317143Y27031905D01*
X40364762Y27079524D01*
X40412381Y27174762D01*
X40412381Y27365239D01*
X40364762Y27460477D01*
X40317143Y27508096D01*
X40221905Y27555715D01*
X39983810Y27555715D01*
X39888571Y27508096D01*
X39840952Y27460477D01*
X39793333Y27365239D01*
X39793333Y27174762D01*
X39840952Y27079524D01*
X39888571Y27031905D01*
X39983810Y26984286D01*
X40412381Y39031905D02*
X39412381Y39031905D01*
X39412381Y39270000D01*
X39460000Y39412858D01*
X39555238Y39508096D01*
X39650476Y39555715D01*
X39840952Y39603334D01*
X39983810Y39603334D01*
X40174286Y39555715D01*
X40269524Y39508096D01*
X40364762Y39412858D01*
X40412381Y39270000D01*
X40412381Y39031905D01*
X40412381Y40555715D02*
X40412381Y39984286D01*
X40412381Y40270000D02*
X39412381Y40270000D01*
X39555238Y40174762D01*
X39650476Y40079524D01*
X39698095Y39984286D01*
X2666667Y145238D02*
X2809524Y97619D01*
X3047620Y97619D01*
X3142858Y145238D01*
X3190477Y192857D01*
X3238096Y288095D01*
X3238096Y383333D01*
X3190477Y478571D01*
X3142858Y526190D01*
X3047620Y573810D01*
X2857143Y621429D01*
X2761905Y669048D01*
X2714286Y716667D01*
X2666667Y811905D01*
X2666667Y907143D01*
X2714286Y1002381D01*
X2761905Y1050000D01*
X2857143Y1097619D01*
X3095239Y1097619D01*
X3238096Y1050000D01*
X3571429Y1097619D02*
X3809524Y97619D01*
X4000001Y811905D01*
X4190477Y97619D01*
X4428572Y1097619D01*
X5333334Y97619D02*
X4761905Y97619D01*
X5047619Y97619D02*
X5047619Y1097619D01*
X4952381Y954762D01*
X4857143Y859524D01*
X4761905Y811905D01*
X69166667Y8837619D02*
X69166667Y8123333D01*
X69119047Y7980476D01*
X69023809Y7885238D01*
X68880952Y7837619D01*
X68785714Y7837619D01*
X70166667Y7837619D02*
X69595238Y7837619D01*
X69880952Y7837619D02*
X69880952Y8837619D01*
X69785714Y8694762D01*
X69690476Y8599524D01*
X69595238Y8551905D01*
X69166667Y15417619D02*
X69166667Y14703333D01*
X69119047Y14560476D01*
X69023809Y14465238D01*
X68880952Y14417619D01*
X68785714Y14417619D01*
X69595238Y15322381D02*
X69642857Y15370000D01*
X69738095Y15417619D01*
X69976191Y15417619D01*
X70071429Y15370000D01*
X70119048Y15322381D01*
X70166667Y15227143D01*
X70166667Y15131905D01*
X70119048Y14989048D01*
X69547619Y14417619D01*
X70166667Y14417619D01*
M02*
