G04 #@! TF.FileFunction,Soldermask,Bot*
%FSLAX46Y46*%
G04 Gerber Fmt 4.6, Leading zero omitted, Abs format (unit mm)*
G04 Created by KiCad (PCBNEW 4.0.7) date 2018 September 05, Wednesday 09:20:39*
%MOMM*%
%LPD*%
G01*
G04 APERTURE LIST*
%ADD10C,0.100000*%
%ADD11C,0.300000*%
%ADD12C,1.300000*%
%ADD13C,2.400000*%
%ADD14C,2.100000*%
%ADD15O,2.100000X2.100000*%
%ADD16R,1.300000X1.600000*%
%ADD17R,2.900000X1.500000*%
%ADD18R,1.500000X2.900000*%
%ADD19R,2.100000X2.100000*%
%ADD20C,4.800000*%
%ADD21C,1.000000*%
%ADD22C,1.900000*%
%ADD23C,2.600000*%
%ADD24R,2.940000X3.910000*%
%ADD25R,2.200000X2.200000*%
%ADD26C,2.200000*%
G04 APERTURE END LIST*
D10*
D11*
X68142857Y4071429D02*
X67285714Y4071429D01*
X67714285Y2571429D02*
X67714285Y4071429D01*
X66785714Y2571429D02*
X66785714Y4071429D01*
X66142857Y2571429D02*
X66142857Y3357143D01*
X66214286Y3500000D01*
X66357143Y3571429D01*
X66571428Y3571429D01*
X66714286Y3500000D01*
X66785714Y3428571D01*
X64857143Y2642857D02*
X65000000Y2571429D01*
X65285714Y2571429D01*
X65428571Y2642857D01*
X65500000Y2785714D01*
X65500000Y3357143D01*
X65428571Y3500000D01*
X65285714Y3571429D01*
X65000000Y3571429D01*
X64857143Y3500000D01*
X64785714Y3357143D01*
X64785714Y3214286D01*
X65500000Y3071429D01*
X62142857Y2571429D02*
X62642857Y3285714D01*
X63000000Y2571429D02*
X63000000Y4071429D01*
X62428572Y4071429D01*
X62285714Y4000000D01*
X62214286Y3928571D01*
X62142857Y3785714D01*
X62142857Y3571429D01*
X62214286Y3428571D01*
X62285714Y3357143D01*
X62428572Y3285714D01*
X63000000Y3285714D01*
X60928572Y2642857D02*
X61071429Y2571429D01*
X61357143Y2571429D01*
X61500000Y2642857D01*
X61571429Y2785714D01*
X61571429Y3357143D01*
X61500000Y3500000D01*
X61357143Y3571429D01*
X61071429Y3571429D01*
X60928572Y3500000D01*
X60857143Y3357143D01*
X60857143Y3214286D01*
X61571429Y3071429D01*
X59571429Y2571429D02*
X59571429Y3357143D01*
X59642858Y3500000D01*
X59785715Y3571429D01*
X60071429Y3571429D01*
X60214286Y3500000D01*
X59571429Y2642857D02*
X59714286Y2571429D01*
X60071429Y2571429D01*
X60214286Y2642857D01*
X60285715Y2785714D01*
X60285715Y2928571D01*
X60214286Y3071429D01*
X60071429Y3142857D01*
X59714286Y3142857D01*
X59571429Y3214286D01*
X58642857Y2571429D02*
X58785715Y2642857D01*
X58857143Y2785714D01*
X58857143Y4071429D01*
X58071429Y2571429D02*
X58071429Y3571429D01*
X58071429Y4071429D02*
X58142858Y4000000D01*
X58071429Y3928571D01*
X58000001Y4000000D01*
X58071429Y4071429D01*
X58071429Y3928571D01*
X57571429Y3571429D02*
X57000000Y3571429D01*
X57357143Y4071429D02*
X57357143Y2785714D01*
X57285715Y2642857D01*
X57142857Y2571429D01*
X57000000Y2571429D01*
X56642857Y3571429D02*
X56285714Y2571429D01*
X55928572Y3571429D02*
X56285714Y2571429D01*
X56428572Y2214286D01*
X56500000Y2142857D01*
X56642857Y2071429D01*
X53714286Y3357143D02*
X53500000Y3285714D01*
X53428572Y3214286D01*
X53357143Y3071429D01*
X53357143Y2857143D01*
X53428572Y2714286D01*
X53500000Y2642857D01*
X53642858Y2571429D01*
X54214286Y2571429D01*
X54214286Y4071429D01*
X53714286Y4071429D01*
X53571429Y4000000D01*
X53500000Y3928571D01*
X53428572Y3785714D01*
X53428572Y3642857D01*
X53500000Y3500000D01*
X53571429Y3428571D01*
X53714286Y3357143D01*
X54214286Y3357143D01*
X52071429Y2571429D02*
X52071429Y3357143D01*
X52142858Y3500000D01*
X52285715Y3571429D01*
X52571429Y3571429D01*
X52714286Y3500000D01*
X52071429Y2642857D02*
X52214286Y2571429D01*
X52571429Y2571429D01*
X52714286Y2642857D01*
X52785715Y2785714D01*
X52785715Y2928571D01*
X52714286Y3071429D01*
X52571429Y3142857D01*
X52214286Y3142857D01*
X52071429Y3214286D01*
X50714286Y2571429D02*
X50714286Y4071429D01*
X50714286Y2642857D02*
X50857143Y2571429D01*
X51142857Y2571429D01*
X51285715Y2642857D01*
X51357143Y2714286D01*
X51428572Y2857143D01*
X51428572Y3285714D01*
X51357143Y3428571D01*
X51285715Y3500000D01*
X51142857Y3571429D01*
X50857143Y3571429D01*
X50714286Y3500000D01*
X49357143Y3571429D02*
X49357143Y2357143D01*
X49428572Y2214286D01*
X49500000Y2142857D01*
X49642857Y2071429D01*
X49857143Y2071429D01*
X50000000Y2142857D01*
X49357143Y2642857D02*
X49500000Y2571429D01*
X49785714Y2571429D01*
X49928572Y2642857D01*
X50000000Y2714286D01*
X50071429Y2857143D01*
X50071429Y3285714D01*
X50000000Y3428571D01*
X49928572Y3500000D01*
X49785714Y3571429D01*
X49500000Y3571429D01*
X49357143Y3500000D01*
X48071429Y2642857D02*
X48214286Y2571429D01*
X48500000Y2571429D01*
X48642857Y2642857D01*
X48714286Y2785714D01*
X48714286Y3357143D01*
X48642857Y3500000D01*
X48500000Y3571429D01*
X48214286Y3571429D01*
X48071429Y3500000D01*
X48000000Y3357143D01*
X48000000Y3214286D01*
X48714286Y3071429D01*
D10*
X20392854Y2523214D02*
X20392854Y3273214D01*
X20214282Y3273214D01*
X20107139Y3237500D01*
X20035711Y3166071D01*
X19999996Y3094643D01*
X19964282Y2951786D01*
X19964282Y2844643D01*
X19999996Y2701786D01*
X20035711Y2630357D01*
X20107139Y2558929D01*
X20214282Y2523214D01*
X20392854Y2523214D01*
X19357139Y2558929D02*
X19428568Y2523214D01*
X19571425Y2523214D01*
X19642854Y2558929D01*
X19678568Y2630357D01*
X19678568Y2916071D01*
X19642854Y2987500D01*
X19571425Y3023214D01*
X19428568Y3023214D01*
X19357139Y2987500D01*
X19321425Y2916071D01*
X19321425Y2844643D01*
X19678568Y2773214D01*
X19035711Y2558929D02*
X18964282Y2523214D01*
X18821425Y2523214D01*
X18749997Y2558929D01*
X18714282Y2630357D01*
X18714282Y2666071D01*
X18749997Y2737500D01*
X18821425Y2773214D01*
X18928568Y2773214D01*
X18999997Y2808929D01*
X19035711Y2880357D01*
X19035711Y2916071D01*
X18999997Y2987500D01*
X18928568Y3023214D01*
X18821425Y3023214D01*
X18749997Y2987500D01*
X18392854Y2523214D02*
X18392854Y3023214D01*
X18392854Y3273214D02*
X18428568Y3237500D01*
X18392854Y3201786D01*
X18357139Y3237500D01*
X18392854Y3273214D01*
X18392854Y3201786D01*
X17714282Y3023214D02*
X17714282Y2416071D01*
X17749996Y2344643D01*
X17785711Y2308929D01*
X17857139Y2273214D01*
X17964282Y2273214D01*
X18035711Y2308929D01*
X17714282Y2558929D02*
X17785711Y2523214D01*
X17928568Y2523214D01*
X17999996Y2558929D01*
X18035711Y2594643D01*
X18071425Y2666071D01*
X18071425Y2880357D01*
X18035711Y2951786D01*
X17999996Y2987500D01*
X17928568Y3023214D01*
X17785711Y3023214D01*
X17714282Y2987500D01*
X17357140Y3023214D02*
X17357140Y2523214D01*
X17357140Y2951786D02*
X17321425Y2987500D01*
X17249997Y3023214D01*
X17142854Y3023214D01*
X17071425Y2987500D01*
X17035711Y2916071D01*
X17035711Y2523214D01*
X15499997Y2523214D02*
X15535711Y2523214D01*
X15607140Y2558929D01*
X15714282Y2666071D01*
X15892854Y2880357D01*
X15964282Y2987500D01*
X15999997Y3094643D01*
X15999997Y3166071D01*
X15964282Y3237500D01*
X15892854Y3273214D01*
X15857140Y3273214D01*
X15785711Y3237500D01*
X15749997Y3166071D01*
X15749997Y3130357D01*
X15785711Y3058929D01*
X15821425Y3023214D01*
X16035711Y2880357D01*
X16071425Y2844643D01*
X16107140Y2773214D01*
X16107140Y2666071D01*
X16071425Y2594643D01*
X16035711Y2558929D01*
X15964282Y2523214D01*
X15857140Y2523214D01*
X15785711Y2558929D01*
X15749997Y2594643D01*
X15642854Y2737500D01*
X15607140Y2844643D01*
X15607140Y2916071D01*
X14607140Y3023214D02*
X14607140Y2273214D01*
X14607140Y2987500D02*
X14535711Y3023214D01*
X14392854Y3023214D01*
X14321425Y2987500D01*
X14285711Y2951786D01*
X14249997Y2880357D01*
X14249997Y2666071D01*
X14285711Y2594643D01*
X14321425Y2558929D01*
X14392854Y2523214D01*
X14535711Y2523214D01*
X14607140Y2558929D01*
X13928569Y2523214D02*
X13928569Y3023214D01*
X13928569Y2880357D02*
X13892854Y2951786D01*
X13857140Y2987500D01*
X13785711Y3023214D01*
X13714283Y3023214D01*
X13357140Y2523214D02*
X13428568Y2558929D01*
X13464283Y2594643D01*
X13499997Y2666071D01*
X13499997Y2880357D01*
X13464283Y2951786D01*
X13428568Y2987500D01*
X13357140Y3023214D01*
X13249997Y3023214D01*
X13178568Y2987500D01*
X13142854Y2951786D01*
X13107140Y2880357D01*
X13107140Y2666071D01*
X13142854Y2594643D01*
X13178568Y2558929D01*
X13249997Y2523214D01*
X13357140Y2523214D01*
X12464283Y2523214D02*
X12464283Y3273214D01*
X12464283Y2558929D02*
X12535712Y2523214D01*
X12678569Y2523214D01*
X12749997Y2558929D01*
X12785712Y2594643D01*
X12821426Y2666071D01*
X12821426Y2880357D01*
X12785712Y2951786D01*
X12749997Y2987500D01*
X12678569Y3023214D01*
X12535712Y3023214D01*
X12464283Y2987500D01*
X11785712Y3023214D02*
X11785712Y2523214D01*
X12107141Y3023214D02*
X12107141Y2630357D01*
X12071426Y2558929D01*
X11999998Y2523214D01*
X11892855Y2523214D01*
X11821426Y2558929D01*
X11785712Y2594643D01*
X11107141Y2558929D02*
X11178570Y2523214D01*
X11321427Y2523214D01*
X11392855Y2558929D01*
X11428570Y2594643D01*
X11464284Y2666071D01*
X11464284Y2880357D01*
X11428570Y2951786D01*
X11392855Y2987500D01*
X11321427Y3023214D01*
X11178570Y3023214D01*
X11107141Y2987500D01*
X10892855Y3023214D02*
X10607141Y3023214D01*
X10785713Y3273214D02*
X10785713Y2630357D01*
X10749998Y2558929D01*
X10678570Y2523214D01*
X10607141Y2523214D01*
X10357142Y2523214D02*
X10357142Y3023214D01*
X10357142Y3273214D02*
X10392856Y3237500D01*
X10357142Y3201786D01*
X10321427Y3237500D01*
X10357142Y3273214D01*
X10357142Y3201786D01*
X9892856Y2523214D02*
X9964284Y2558929D01*
X9999999Y2594643D01*
X10035713Y2666071D01*
X10035713Y2880357D01*
X9999999Y2951786D01*
X9964284Y2987500D01*
X9892856Y3023214D01*
X9785713Y3023214D01*
X9714284Y2987500D01*
X9678570Y2951786D01*
X9642856Y2880357D01*
X9642856Y2666071D01*
X9678570Y2594643D01*
X9714284Y2558929D01*
X9785713Y2523214D01*
X9892856Y2523214D01*
X9321428Y3023214D02*
X9321428Y2523214D01*
X9321428Y2951786D02*
X9285713Y2987500D01*
X9214285Y3023214D01*
X9107142Y3023214D01*
X9035713Y2987500D01*
X8999999Y2916071D01*
X8999999Y2523214D01*
X8071428Y2523214D02*
X8071428Y3273214D01*
X8071428Y2987500D02*
X7999999Y3023214D01*
X7857142Y3023214D01*
X7785713Y2987500D01*
X7749999Y2951786D01*
X7714285Y2880357D01*
X7714285Y2666071D01*
X7749999Y2594643D01*
X7785713Y2558929D01*
X7857142Y2523214D01*
X7999999Y2523214D01*
X8071428Y2558929D01*
X7464285Y3023214D02*
X7285714Y2523214D01*
X7107142Y3023214D02*
X7285714Y2523214D01*
X7357142Y2344643D01*
X7392857Y2308929D01*
X7464285Y2273214D01*
X6249999Y2523214D02*
X6249999Y3273214D01*
X6249999Y2916071D02*
X5821427Y2916071D01*
X5821427Y2523214D02*
X5821427Y3273214D01*
X5142856Y2523214D02*
X5142856Y2916071D01*
X5178570Y2987500D01*
X5249999Y3023214D01*
X5392856Y3023214D01*
X5464285Y2987500D01*
X5142856Y2558929D02*
X5214285Y2523214D01*
X5392856Y2523214D01*
X5464285Y2558929D01*
X5499999Y2630357D01*
X5499999Y2701786D01*
X5464285Y2773214D01*
X5392856Y2808929D01*
X5214285Y2808929D01*
X5142856Y2844643D01*
X4464285Y2558929D02*
X4535714Y2523214D01*
X4678571Y2523214D01*
X4749999Y2558929D01*
X4785714Y2594643D01*
X4821428Y2666071D01*
X4821428Y2880357D01*
X4785714Y2951786D01*
X4749999Y2987500D01*
X4678571Y3023214D01*
X4535714Y3023214D01*
X4464285Y2987500D01*
X4142857Y2523214D02*
X4142857Y3273214D01*
X4071428Y2808929D02*
X3857142Y2523214D01*
X3857142Y3023214D02*
X4142857Y2737500D01*
X3607142Y3273214D02*
X3107142Y3273214D01*
X3607142Y2523214D01*
X3107142Y2523214D01*
X2714285Y2523214D02*
X2785713Y2558929D01*
X2821428Y2594643D01*
X2857142Y2666071D01*
X2857142Y2880357D01*
X2821428Y2951786D01*
X2785713Y2987500D01*
X2714285Y3023214D01*
X2607142Y3023214D01*
X2535713Y2987500D01*
X2499999Y2951786D01*
X2464285Y2880357D01*
X2464285Y2666071D01*
X2499999Y2594643D01*
X2535713Y2558929D01*
X2607142Y2523214D01*
X2714285Y2523214D01*
X2142857Y3023214D02*
X2142857Y2523214D01*
X2142857Y2951786D02*
X2107142Y2987500D01*
X2035714Y3023214D01*
X1928571Y3023214D01*
X1857142Y2987500D01*
X1821428Y2916071D01*
X1821428Y2523214D01*
X1178571Y2558929D02*
X1250000Y2523214D01*
X1392857Y2523214D01*
X1464286Y2558929D01*
X1500000Y2630357D01*
X1500000Y2916071D01*
X1464286Y2987500D01*
X1392857Y3023214D01*
X1250000Y3023214D01*
X1178571Y2987500D01*
X1142857Y2916071D01*
X1142857Y2844643D01*
X1500000Y2773214D01*
X5785716Y1298214D02*
X6035716Y1655357D01*
X6214288Y1298214D02*
X6214288Y2048214D01*
X5928573Y2048214D01*
X5857145Y2012500D01*
X5821430Y1976786D01*
X5785716Y1905357D01*
X5785716Y1798214D01*
X5821430Y1726786D01*
X5857145Y1691071D01*
X5928573Y1655357D01*
X6214288Y1655357D01*
X5178573Y1333929D02*
X5250002Y1298214D01*
X5392859Y1298214D01*
X5464288Y1333929D01*
X5500002Y1405357D01*
X5500002Y1691071D01*
X5464288Y1762500D01*
X5392859Y1798214D01*
X5250002Y1798214D01*
X5178573Y1762500D01*
X5142859Y1691071D01*
X5142859Y1619643D01*
X5500002Y1548214D01*
X4892859Y1798214D02*
X4714288Y1298214D01*
X4535716Y1798214D01*
X3285715Y1298214D02*
X3714287Y1298214D01*
X3500001Y1298214D02*
X3500001Y2048214D01*
X3571430Y1941071D01*
X3642858Y1869643D01*
X3714287Y1833929D01*
X2964287Y1369643D02*
X2928572Y1333929D01*
X2964287Y1298214D01*
X3000001Y1333929D01*
X2964287Y1369643D01*
X2964287Y1298214D01*
X2464286Y2048214D02*
X2392858Y2048214D01*
X2321429Y2012500D01*
X2285715Y1976786D01*
X2250001Y1905357D01*
X2214286Y1762500D01*
X2214286Y1583929D01*
X2250001Y1441071D01*
X2285715Y1369643D01*
X2321429Y1333929D01*
X2392858Y1298214D01*
X2464286Y1298214D01*
X2535715Y1333929D01*
X2571429Y1369643D01*
X2607144Y1441071D01*
X2642858Y1583929D01*
X2642858Y1762500D01*
X2607144Y1905357D01*
X2571429Y1976786D01*
X2535715Y2012500D01*
X2464286Y2048214D01*
X1892858Y1369643D02*
X1857143Y1333929D01*
X1892858Y1298214D01*
X1928572Y1333929D01*
X1892858Y1369643D01*
X1892858Y1298214D01*
X1392857Y2048214D02*
X1321429Y2048214D01*
X1250000Y2012500D01*
X1214286Y1976786D01*
X1178572Y1905357D01*
X1142857Y1762500D01*
X1142857Y1583929D01*
X1178572Y1441071D01*
X1214286Y1369643D01*
X1250000Y1333929D01*
X1321429Y1298214D01*
X1392857Y1298214D01*
X1464286Y1333929D01*
X1500000Y1369643D01*
X1535715Y1441071D01*
X1571429Y1583929D01*
X1571429Y1762500D01*
X1535715Y1905357D01*
X1500000Y1976786D01*
X1464286Y2012500D01*
X1392857Y2048214D01*
D12*
X50479305Y42750000D03*
X53298382Y43776060D03*
D10*
G36*
X50181158Y39768204D02*
X49531320Y41553620D01*
X50564982Y41929842D01*
X51214820Y40144426D01*
X50181158Y39768204D01*
X50181158Y39768204D01*
G37*
G36*
X53000236Y40794264D02*
X52350398Y42579680D01*
X53384060Y42955902D01*
X54033898Y41170486D01*
X53000236Y40794264D01*
X53000236Y40794264D01*
G37*
G36*
X54409775Y41307294D02*
X53759937Y43092710D01*
X54793599Y43468932D01*
X55443437Y41683516D01*
X54409775Y41307294D01*
X54409775Y41307294D01*
G37*
G36*
X47630170Y42245088D02*
X47219746Y43372719D01*
X48535316Y43851548D01*
X48945740Y42723917D01*
X47630170Y42245088D01*
X47630170Y42245088D01*
G37*
G36*
X54489926Y44741836D02*
X54079502Y45869467D01*
X55395072Y46348296D01*
X55805496Y45220665D01*
X54489926Y44741836D01*
X54489926Y44741836D01*
G37*
G36*
X55242371Y42674512D02*
X54831947Y43802143D01*
X56147517Y44280972D01*
X56557941Y43153341D01*
X55242371Y42674512D01*
X55242371Y42674512D01*
G37*
G36*
X48382615Y40177765D02*
X47972191Y41305396D01*
X49287761Y41784225D01*
X49698185Y40656594D01*
X48382615Y40177765D01*
X48382615Y40177765D01*
G37*
D13*
X64500000Y31750000D03*
X64500000Y36250000D03*
X58000000Y31750000D03*
X58000000Y36250000D03*
D14*
X8500000Y39750000D03*
D15*
X8500000Y37210000D03*
X5960000Y39750000D03*
X5960000Y37210000D03*
D13*
X58000000Y44250000D03*
X58000000Y39750000D03*
X64500000Y44250000D03*
X64500000Y39750000D03*
D16*
X18000000Y27750000D03*
X18000000Y29950000D03*
X15500000Y27750000D03*
X15500000Y29950000D03*
X13000000Y29950000D03*
X13000000Y27750000D03*
X10500000Y29950000D03*
X10500000Y27750000D03*
X7500000Y33250000D03*
X7500000Y31050000D03*
D17*
X42700000Y34250000D03*
X42700000Y32250000D03*
X42700000Y30250000D03*
X42700000Y28250000D03*
X42700000Y26250000D03*
X42700000Y24250000D03*
X42700000Y22250000D03*
X42700000Y20250000D03*
X27300000Y20250000D03*
X27300000Y22250000D03*
X27300000Y24250000D03*
X27300000Y26250000D03*
X27300000Y28250000D03*
X27300000Y30250000D03*
X27300000Y32250000D03*
X27300000Y34250000D03*
D18*
X40010000Y18550000D03*
X38010000Y18550000D03*
X36010000Y18550000D03*
X34010000Y18550000D03*
X32010000Y18550000D03*
X30010000Y18550000D03*
D19*
X53040000Y36750000D03*
D15*
X50500000Y36750000D03*
D19*
X53000000Y33250000D03*
D15*
X50460000Y33250000D03*
D20*
X35000000Y45250000D03*
D21*
X36650000Y45250000D03*
X36166726Y44083274D03*
X35000000Y43600000D03*
X33833274Y44083274D03*
X33350000Y45250000D03*
X33833274Y46416726D03*
X35000000Y46900000D03*
X36166726Y46416726D03*
D10*
G36*
X10842080Y43220575D02*
X11641429Y46008234D01*
X13467826Y45484523D01*
X12668477Y42696864D01*
X10842080Y43220575D01*
X10842080Y43220575D01*
G37*
D22*
X14215295Y44281905D02*
X13939657Y43320643D01*
X16137819Y43730631D02*
X15862181Y42769369D01*
D23*
X10315467Y45556207D02*
X9957139Y44306567D01*
X18197813Y43295981D02*
X17839485Y42046341D01*
D24*
X49180000Y9250000D03*
X19820000Y9250000D03*
D25*
X35000000Y37210000D03*
D26*
X35000000Y39750000D03*
D25*
X47500000Y28210000D03*
D26*
X47500000Y30750000D03*
D25*
X42500000Y13210000D03*
D26*
X42500000Y15750000D03*
D25*
X27500000Y13250000D03*
D26*
X27500000Y15790000D03*
D25*
X22500000Y28210000D03*
D26*
X22500000Y30750000D03*
D25*
X35000000Y24210000D03*
D26*
X35000000Y26750000D03*
M02*
