G04 #@! TF.FileFunction,Copper,L1,Top,Signal*
%FSLAX46Y46*%
G04 Gerber Fmt 4.6, Leading zero omitted, Abs format (unit mm)*
G04 Created by KiCad (PCBNEW 4.0.7) date 2018 September 05, Wednesday 09:18:00*
%MOMM*%
%LPD*%
G01*
G04 APERTURE LIST*
%ADD10C,0.100000*%
%ADD11C,2.000000*%
%ADD12C,1.700000*%
%ADD13O,1.700000X1.700000*%
%ADD14R,1.700000X1.700000*%
%ADD15C,4.400000*%
%ADD16C,0.600000*%
%ADD17C,1.500000*%
%ADD18C,2.200000*%
%ADD19R,1.800000X1.800000*%
%ADD20C,1.800000*%
%ADD21C,0.250000*%
%ADD22C,0.254000*%
G04 APERTURE END LIST*
D10*
D11*
X64500000Y31750000D03*
X64500000Y36250000D03*
X58000000Y31750000D03*
X58000000Y36250000D03*
D12*
X8500000Y39750000D03*
D13*
X8500000Y37210000D03*
X5960000Y39750000D03*
X5960000Y37210000D03*
D11*
X58000000Y44250000D03*
X58000000Y39750000D03*
X64500000Y44250000D03*
X64500000Y39750000D03*
D14*
X53040000Y36750000D03*
D13*
X50500000Y36750000D03*
D14*
X53000000Y33250000D03*
D13*
X50460000Y33250000D03*
D15*
X35000000Y45250000D03*
D16*
X36650000Y45250000D03*
X36166726Y44083274D03*
X35000000Y43600000D03*
X33833274Y44083274D03*
X33350000Y45250000D03*
X33833274Y46416726D03*
X35000000Y46900000D03*
X36166726Y46416726D03*
D10*
G36*
X11089460Y43357700D02*
X11778553Y45760854D01*
X13220446Y45347398D01*
X12531353Y42944244D01*
X11089460Y43357700D01*
X11089460Y43357700D01*
G37*
D17*
X14215295Y44281905D02*
X13939657Y43320643D01*
X16137819Y43730631D02*
X15862181Y42769369D01*
D18*
X10315467Y45556207D02*
X9957139Y44306567D01*
X18197813Y43295981D02*
X17839485Y42046341D01*
D19*
X35000000Y37210000D03*
D20*
X35000000Y39750000D03*
D19*
X47500000Y28210000D03*
D20*
X47500000Y30750000D03*
D19*
X42500000Y13210000D03*
D20*
X42500000Y15750000D03*
D19*
X27500000Y13250000D03*
D20*
X27500000Y15790000D03*
D19*
X22500000Y28210000D03*
D20*
X22500000Y30750000D03*
D19*
X35000000Y24210000D03*
D20*
X35000000Y26750000D03*
D16*
X25000000Y22250000D03*
X22500000Y6750000D03*
X31000000Y15750000D03*
X23000000Y10750000D03*
X44000000Y35750000D03*
X39500000Y32750000D03*
X22000000Y24250000D03*
X8500000Y28750000D03*
X18000000Y38250000D03*
X15000000Y39750000D03*
X31000000Y31750000D03*
X19500000Y35250000D03*
X12500000Y36250000D03*
X30000000Y32250000D03*
X38500000Y33500000D03*
X26348645Y19022985D03*
X49500000Y31250000D03*
X38000000Y14250000D03*
D21*
X22500000Y30750000D02*
X21350000Y30750000D01*
X21350000Y30750000D02*
X21274999Y30674999D01*
X21274999Y30674999D02*
X21274999Y25975001D01*
X21274999Y25975001D02*
X25000000Y22250000D01*
X14077476Y43801274D02*
X14077476Y41672524D01*
X22500000Y33250000D02*
X24000000Y31750000D01*
X14077476Y41672524D02*
X16500000Y39250000D01*
X16500000Y39250000D02*
X16500000Y34750000D01*
X16500000Y34750000D02*
X18000000Y33250000D01*
X18000000Y33250000D02*
X22500000Y33250000D01*
X24000000Y31750000D02*
X24000000Y30750000D01*
X40500000Y3750000D02*
X40500000Y2250000D01*
X40000000Y4250000D02*
X40500000Y3750000D01*
X37500000Y6750000D02*
X40000000Y4250000D01*
X40000000Y4250000D02*
X39500000Y3750000D01*
X17500000Y4250000D02*
X17000000Y4250000D01*
X17500000Y4250000D02*
X17500000Y2750000D01*
X18000000Y4250000D02*
X17500000Y4250000D01*
X17000000Y3750000D02*
X16500000Y3250000D01*
X17000000Y4250000D02*
X17000000Y3750000D01*
X37500000Y6750000D02*
X37770000Y6480000D01*
X22500000Y6750000D02*
X37500000Y6750000D01*
X20500000Y6750000D02*
X18000000Y4250000D01*
X22500000Y6750000D02*
X20500000Y6750000D01*
X31000000Y15750000D02*
X30000000Y16750000D01*
X58000000Y36250000D02*
X58000000Y34835787D01*
X52599214Y29435001D02*
X46185001Y29435001D01*
X58000000Y34835787D02*
X52599214Y29435001D01*
X64500000Y36250000D02*
X58000000Y36250000D01*
X64500000Y39750000D02*
X58000000Y39750000D01*
X64500000Y36250000D02*
X64500000Y39750000D01*
X25500000Y16250000D02*
X27500000Y18250000D01*
X25500000Y13250000D02*
X25500000Y16250000D01*
X23000000Y10750000D02*
X25500000Y13250000D01*
X39500000Y32750000D02*
X41000000Y32750000D01*
X41000000Y32750000D02*
X44000000Y35750000D01*
X10500000Y26750000D02*
X19000000Y26750000D01*
X22000000Y24250000D02*
X19500000Y26750000D01*
X19500000Y26750000D02*
X19000000Y26750000D01*
X8500000Y28750000D02*
X10500000Y26750000D01*
X18868455Y38118455D02*
X18131545Y38118455D01*
X18131545Y38118455D02*
X18000000Y38250000D01*
X15000000Y39750000D02*
X8500000Y39750000D01*
X25500000Y33250000D02*
X20631545Y38118455D01*
X20631545Y38118455D02*
X18868455Y38118455D01*
X29924264Y33250000D02*
X25500000Y33250000D01*
X31000000Y31750000D02*
X31000000Y32174264D01*
X31000000Y32174264D02*
X29924264Y33250000D01*
X22368455Y34618455D02*
X20131545Y34618455D01*
X20131545Y34618455D02*
X19500000Y35250000D01*
X12500000Y36250000D02*
X9460000Y36250000D01*
X9460000Y36250000D02*
X8500000Y37210000D01*
X25000000Y32250000D02*
X24736910Y32250000D01*
X24736910Y32250000D02*
X22368455Y34618455D01*
X30000000Y32250000D02*
X25000000Y32250000D01*
X38874999Y32449999D02*
X38874999Y33125001D01*
X38874999Y33125001D02*
X38500000Y33500000D01*
X22500000Y28210000D02*
X22500000Y25750000D01*
X22500000Y25750000D02*
X25724999Y22525001D01*
X25724999Y19646631D02*
X26348645Y19022985D01*
X25724999Y22525001D02*
X25724999Y19646631D01*
X49500000Y31250000D02*
X48625001Y32124999D01*
X48625001Y32124999D02*
X39199999Y32124999D01*
X39199999Y32124999D02*
X38874999Y32449999D01*
X38000000Y14250000D02*
X41065000Y14250000D01*
X44000000Y18750000D02*
X45000000Y19750000D01*
X41065000Y14250000D02*
X41339999Y14524999D01*
X50000000Y26750000D02*
X53000000Y26750000D01*
X41339999Y14524999D02*
X43660001Y14524999D01*
X43660001Y14524999D02*
X44000000Y14864998D01*
X44000000Y14864998D02*
X44000000Y18750000D01*
X53000000Y26750000D02*
X58000000Y31750000D01*
X45000000Y19750000D02*
X45000000Y21750000D01*
X45000000Y21750000D02*
X50000000Y26750000D01*
D22*
G36*
X16995223Y4347815D02*
X16847270Y3687982D01*
X16635638Y3058141D01*
X16250158Y2068880D01*
X15961308Y1502754D01*
X15809086Y1362292D01*
X15740210Y1403232D01*
X15740471Y1645291D01*
X15866735Y2221730D01*
X16080428Y2948879D01*
X16335476Y3677527D01*
X16585349Y4262895D01*
X16728164Y4498176D01*
X16948446Y4558558D01*
X16995223Y4347815D01*
X16995223Y4347815D01*
G37*
X16995223Y4347815D02*
X16847270Y3687982D01*
X16635638Y3058141D01*
X16250158Y2068880D01*
X15961308Y1502754D01*
X15809086Y1362292D01*
X15740210Y1403232D01*
X15740471Y1645291D01*
X15866735Y2221730D01*
X16080428Y2948879D01*
X16335476Y3677527D01*
X16585349Y4262895D01*
X16728164Y4498176D01*
X16948446Y4558558D01*
X16995223Y4347815D01*
G36*
X17874554Y4459043D02*
X17888151Y4437869D01*
X17943506Y4058325D01*
X17792853Y3365848D01*
X17573600Y2727960D01*
X17231896Y1929993D01*
X16932819Y1422860D01*
X16792921Y1295644D01*
X16788562Y1299763D01*
X16802677Y1734916D01*
X16813585Y1804358D01*
X16979056Y2458875D01*
X17259445Y3275859D01*
X17423160Y3680132D01*
X17711681Y4295832D01*
X17845881Y4469663D01*
X17874554Y4459043D01*
X17874554Y4459043D01*
G37*
X17874554Y4459043D02*
X17888151Y4437869D01*
X17943506Y4058325D01*
X17792853Y3365848D01*
X17573600Y2727960D01*
X17231896Y1929993D01*
X16932819Y1422860D01*
X16792921Y1295644D01*
X16788562Y1299763D01*
X16802677Y1734916D01*
X16813585Y1804358D01*
X16979056Y2458875D01*
X17259445Y3275859D01*
X17423160Y3680132D01*
X17711681Y4295832D01*
X17845881Y4469663D01*
X17874554Y4459043D01*
G36*
X39977208Y4466024D02*
X39951742Y3992484D01*
X39803896Y3309743D01*
X39627950Y2762535D01*
X39283105Y1882289D01*
X39043750Y1433420D01*
X38976200Y1393301D01*
X38898766Y1498326D01*
X38908547Y1823494D01*
X39049525Y2442339D01*
X39277277Y3185482D01*
X39541448Y3893601D01*
X39790887Y4411734D01*
X39867829Y4519717D01*
X39941055Y4555581D01*
X39977208Y4466024D01*
X39977208Y4466024D01*
G37*
X39977208Y4466024D02*
X39951742Y3992484D01*
X39803896Y3309743D01*
X39627950Y2762535D01*
X39283105Y1882289D01*
X39043750Y1433420D01*
X38976200Y1393301D01*
X38898766Y1498326D01*
X38908547Y1823494D01*
X39049525Y2442339D01*
X39277277Y3185482D01*
X39541448Y3893601D01*
X39790887Y4411734D01*
X39867829Y4519717D01*
X39941055Y4555581D01*
X39977208Y4466024D01*
G36*
X41102148Y4460239D02*
X41061225Y3964773D01*
X40886022Y3235584D01*
X40728769Y2757631D01*
X40400595Y1968820D01*
X40099957Y1450874D01*
X39935789Y1298347D01*
X39910710Y1316699D01*
X39890882Y1496654D01*
X39968612Y1922735D01*
X40173923Y2601602D01*
X40448294Y3364359D01*
X40731760Y4047033D01*
X40962917Y4486682D01*
X40987071Y4517152D01*
X41067121Y4554386D01*
X41102148Y4460239D01*
X41102148Y4460239D01*
G37*
X41102148Y4460239D02*
X41061225Y3964773D01*
X40886022Y3235584D01*
X40728769Y2757631D01*
X40400595Y1968820D01*
X40099957Y1450874D01*
X39935789Y1298347D01*
X39910710Y1316699D01*
X39890882Y1496654D01*
X39968612Y1922735D01*
X40173923Y2601602D01*
X40448294Y3364359D01*
X40731760Y4047033D01*
X40962917Y4486682D01*
X40987071Y4517152D01*
X41067121Y4554386D01*
X41102148Y4460239D01*
G36*
X34273425Y38664655D02*
X34673656Y38498464D01*
X34100000Y38498464D01*
X33958810Y38471897D01*
X33829135Y38388454D01*
X33742141Y38261134D01*
X33711536Y38110000D01*
X33711536Y36310000D01*
X33738103Y36168810D01*
X33821546Y36039135D01*
X33948866Y35952141D01*
X34100000Y35921536D01*
X35900000Y35921536D01*
X36041190Y35948103D01*
X36170865Y36031546D01*
X36257859Y36158866D01*
X36288464Y36310000D01*
X36288464Y37883161D01*
X36628360Y36846584D01*
X36692068Y36647398D01*
X37154844Y35197860D01*
X37154854Y35197828D01*
X37574981Y33883096D01*
X37574994Y33883057D01*
X37931711Y32767998D01*
X37931730Y32767938D01*
X38204277Y31917421D01*
X38204319Y31917289D01*
X38371936Y31396180D01*
X38372081Y31395732D01*
X38413153Y31269648D01*
X38442961Y31220341D01*
X38538529Y31122289D01*
X38594183Y31088934D01*
X38838965Y31018120D01*
X38861470Y31013764D01*
X39305171Y30968857D01*
X39314231Y30968266D01*
X40006556Y30947935D01*
X40010658Y30947881D01*
X41001311Y30950797D01*
X41003292Y30950818D01*
X42341978Y30975650D01*
X42342944Y30975671D01*
X44079367Y31021088D01*
X44079664Y31021097D01*
X44307382Y31027587D01*
X46101765Y31075164D01*
X46249142Y31077977D01*
X46219223Y31005924D01*
X46218778Y30496311D01*
X46413388Y30025320D01*
X46773425Y29664655D01*
X47173656Y29498464D01*
X46600000Y29498464D01*
X46458810Y29471897D01*
X46329135Y29388454D01*
X46242141Y29261134D01*
X46211536Y29110000D01*
X46211536Y28222108D01*
X45565585Y27760469D01*
X44329610Y26880416D01*
X44329138Y26880079D01*
X43213096Y26077711D01*
X43212528Y26077300D01*
X42271395Y25392771D01*
X42270533Y25392138D01*
X41559108Y24865470D01*
X41557183Y24864016D01*
X41130265Y24535233D01*
X41123843Y24529943D01*
X41028347Y24445884D01*
X40997869Y24405727D01*
X40985259Y24350232D01*
X40986023Y24050209D01*
X40988977Y24023300D01*
X41142405Y23324415D01*
X41144117Y23317539D01*
X41443042Y22245410D01*
X41444002Y22242137D01*
X41881259Y20822381D01*
X41881900Y20820361D01*
X42450322Y19078595D01*
X42450588Y19077789D01*
X42480943Y18986839D01*
X42960256Y17539280D01*
X43183122Y16853388D01*
X42755924Y17030777D01*
X42246311Y17031222D01*
X41775320Y16836612D01*
X41414655Y16476575D01*
X41219223Y16005924D01*
X41218816Y15539818D01*
X40206146Y16276665D01*
X39407873Y16862178D01*
X35052084Y20066829D01*
X35006355Y20088050D01*
X34955973Y20089809D01*
X34901759Y20066975D01*
X30401576Y16769531D01*
X29156600Y15860131D01*
X28780824Y15587462D01*
X28781222Y16043689D01*
X28586612Y16514680D01*
X28226575Y16875345D01*
X27755924Y17070777D01*
X27246311Y17071222D01*
X26775320Y16876612D01*
X26742693Y16844042D01*
X27039930Y17766606D01*
X27413886Y18898062D01*
X29187406Y24208232D01*
X29193568Y24258267D01*
X29179778Y24306758D01*
X29140882Y24351724D01*
X28081846Y25110000D01*
X33711536Y25110000D01*
X33711536Y23310000D01*
X33738103Y23168810D01*
X33821546Y23039135D01*
X33948866Y22952141D01*
X34100000Y22921536D01*
X35900000Y22921536D01*
X36041190Y22948103D01*
X36170865Y23031546D01*
X36257859Y23158866D01*
X36288464Y23310000D01*
X36288464Y25110000D01*
X36261897Y25251190D01*
X36178454Y25380865D01*
X36051134Y25467859D01*
X35900000Y25498464D01*
X35325534Y25498464D01*
X35724680Y25663388D01*
X36085345Y26023425D01*
X36280777Y26494076D01*
X36281222Y27003689D01*
X36086612Y27474680D01*
X35726575Y27835345D01*
X35255924Y28030777D01*
X34746311Y28031222D01*
X34275320Y27836612D01*
X33914655Y27476575D01*
X33719223Y27005924D01*
X33718778Y26496311D01*
X33913388Y26025320D01*
X34273425Y25664655D01*
X34673656Y25498464D01*
X34100000Y25498464D01*
X33958810Y25471897D01*
X33829135Y25388454D01*
X33742141Y25261134D01*
X33711536Y25110000D01*
X28081846Y25110000D01*
X24623796Y27585982D01*
X23788464Y28191852D01*
X23788464Y29110000D01*
X23761897Y29251190D01*
X23678454Y29380865D01*
X23551134Y29467859D01*
X23400000Y29498464D01*
X22825534Y29498464D01*
X23224680Y29663388D01*
X23585345Y30023425D01*
X23780777Y30494076D01*
X23781222Y31003689D01*
X23753012Y31071963D01*
X24179693Y31063308D01*
X25657142Y31024111D01*
X31285573Y30864991D01*
X31335246Y30873596D01*
X31377658Y30900849D01*
X31410240Y30953612D01*
X31523014Y31309862D01*
X31576987Y31363741D01*
X31680882Y31613946D01*
X31681052Y31809098D01*
X32300247Y33765115D01*
X32963678Y35853915D01*
X33507456Y37548012D01*
X33944991Y38885579D01*
X33972293Y38966312D01*
X34273425Y38664655D01*
X34273425Y38664655D01*
G37*
X34273425Y38664655D02*
X34673656Y38498464D01*
X34100000Y38498464D01*
X33958810Y38471897D01*
X33829135Y38388454D01*
X33742141Y38261134D01*
X33711536Y38110000D01*
X33711536Y36310000D01*
X33738103Y36168810D01*
X33821546Y36039135D01*
X33948866Y35952141D01*
X34100000Y35921536D01*
X35900000Y35921536D01*
X36041190Y35948103D01*
X36170865Y36031546D01*
X36257859Y36158866D01*
X36288464Y36310000D01*
X36288464Y37883161D01*
X36628360Y36846584D01*
X36692068Y36647398D01*
X37154844Y35197860D01*
X37154854Y35197828D01*
X37574981Y33883096D01*
X37574994Y33883057D01*
X37931711Y32767998D01*
X37931730Y32767938D01*
X38204277Y31917421D01*
X38204319Y31917289D01*
X38371936Y31396180D01*
X38372081Y31395732D01*
X38413153Y31269648D01*
X38442961Y31220341D01*
X38538529Y31122289D01*
X38594183Y31088934D01*
X38838965Y31018120D01*
X38861470Y31013764D01*
X39305171Y30968857D01*
X39314231Y30968266D01*
X40006556Y30947935D01*
X40010658Y30947881D01*
X41001311Y30950797D01*
X41003292Y30950818D01*
X42341978Y30975650D01*
X42342944Y30975671D01*
X44079367Y31021088D01*
X44079664Y31021097D01*
X44307382Y31027587D01*
X46101765Y31075164D01*
X46249142Y31077977D01*
X46219223Y31005924D01*
X46218778Y30496311D01*
X46413388Y30025320D01*
X46773425Y29664655D01*
X47173656Y29498464D01*
X46600000Y29498464D01*
X46458810Y29471897D01*
X46329135Y29388454D01*
X46242141Y29261134D01*
X46211536Y29110000D01*
X46211536Y28222108D01*
X45565585Y27760469D01*
X44329610Y26880416D01*
X44329138Y26880079D01*
X43213096Y26077711D01*
X43212528Y26077300D01*
X42271395Y25392771D01*
X42270533Y25392138D01*
X41559108Y24865470D01*
X41557183Y24864016D01*
X41130265Y24535233D01*
X41123843Y24529943D01*
X41028347Y24445884D01*
X40997869Y24405727D01*
X40985259Y24350232D01*
X40986023Y24050209D01*
X40988977Y24023300D01*
X41142405Y23324415D01*
X41144117Y23317539D01*
X41443042Y22245410D01*
X41444002Y22242137D01*
X41881259Y20822381D01*
X41881900Y20820361D01*
X42450322Y19078595D01*
X42450588Y19077789D01*
X42480943Y18986839D01*
X42960256Y17539280D01*
X43183122Y16853388D01*
X42755924Y17030777D01*
X42246311Y17031222D01*
X41775320Y16836612D01*
X41414655Y16476575D01*
X41219223Y16005924D01*
X41218816Y15539818D01*
X40206146Y16276665D01*
X39407873Y16862178D01*
X35052084Y20066829D01*
X35006355Y20088050D01*
X34955973Y20089809D01*
X34901759Y20066975D01*
X30401576Y16769531D01*
X29156600Y15860131D01*
X28780824Y15587462D01*
X28781222Y16043689D01*
X28586612Y16514680D01*
X28226575Y16875345D01*
X27755924Y17070777D01*
X27246311Y17071222D01*
X26775320Y16876612D01*
X26742693Y16844042D01*
X27039930Y17766606D01*
X27413886Y18898062D01*
X29187406Y24208232D01*
X29193568Y24258267D01*
X29179778Y24306758D01*
X29140882Y24351724D01*
X28081846Y25110000D01*
X33711536Y25110000D01*
X33711536Y23310000D01*
X33738103Y23168810D01*
X33821546Y23039135D01*
X33948866Y22952141D01*
X34100000Y22921536D01*
X35900000Y22921536D01*
X36041190Y22948103D01*
X36170865Y23031546D01*
X36257859Y23158866D01*
X36288464Y23310000D01*
X36288464Y25110000D01*
X36261897Y25251190D01*
X36178454Y25380865D01*
X36051134Y25467859D01*
X35900000Y25498464D01*
X35325534Y25498464D01*
X35724680Y25663388D01*
X36085345Y26023425D01*
X36280777Y26494076D01*
X36281222Y27003689D01*
X36086612Y27474680D01*
X35726575Y27835345D01*
X35255924Y28030777D01*
X34746311Y28031222D01*
X34275320Y27836612D01*
X33914655Y27476575D01*
X33719223Y27005924D01*
X33718778Y26496311D01*
X33913388Y26025320D01*
X34273425Y25664655D01*
X34673656Y25498464D01*
X34100000Y25498464D01*
X33958810Y25471897D01*
X33829135Y25388454D01*
X33742141Y25261134D01*
X33711536Y25110000D01*
X28081846Y25110000D01*
X24623796Y27585982D01*
X23788464Y28191852D01*
X23788464Y29110000D01*
X23761897Y29251190D01*
X23678454Y29380865D01*
X23551134Y29467859D01*
X23400000Y29498464D01*
X22825534Y29498464D01*
X23224680Y29663388D01*
X23585345Y30023425D01*
X23780777Y30494076D01*
X23781222Y31003689D01*
X23753012Y31071963D01*
X24179693Y31063308D01*
X25657142Y31024111D01*
X31285573Y30864991D01*
X31335246Y30873596D01*
X31377658Y30900849D01*
X31410240Y30953612D01*
X31523014Y31309862D01*
X31576987Y31363741D01*
X31680882Y31613946D01*
X31681052Y31809098D01*
X32300247Y33765115D01*
X32963678Y35853915D01*
X33507456Y37548012D01*
X33944991Y38885579D01*
X33972293Y38966312D01*
X34273425Y38664655D01*
M02*
