G04 #@! TF.FileFunction,Profile,NP*
%FSLAX46Y46*%
G04 Gerber Fmt 4.6, Leading zero omitted, Abs format (unit mm)*
G04 Created by KiCad (PCBNEW 4.0.7) date 2018 September 05, Wednesday 09:20:39*
%MOMM*%
%LPD*%
G01*
G04 APERTURE LIST*
%ADD10C,0.100000*%
G04 APERTURE END LIST*
D10*
X69118231Y52960475D02*
X69118231Y52960475D01*
X69683240Y52559407D02*
X69118231Y52960475D01*
X70069085Y52000254D02*
X69683240Y52559407D01*
X70251176Y51321659D02*
X70069085Y52000254D01*
X70204922Y50562264D02*
X70251176Y51321659D01*
X69558529Y48346730D02*
X70204922Y50562264D01*
X68518678Y46103092D02*
X69558529Y48346730D01*
X68898083Y45245919D02*
X68518678Y46103092D01*
X68855928Y44304434D02*
X68898083Y45245919D01*
X68513995Y43288005D02*
X68855928Y44304434D01*
X67806711Y41681391D02*
X68513995Y43288005D01*
X68139275Y40917899D02*
X67806711Y41681391D01*
X68106487Y40070094D02*
X68139275Y40917899D01*
X68031543Y39770318D02*
X68106487Y40070094D01*
X67417938Y37817088D02*
X68031543Y39770318D01*
X66495190Y35835754D02*
X67417938Y37817088D01*
X66935487Y34898953D02*
X66495190Y35835754D01*
X66869911Y33849736D02*
X66935487Y34898953D01*
X66036156Y31854350D02*
X66869911Y33849736D01*
X65352292Y30572103D02*
X66036156Y31854350D01*
X64471699Y29240675D02*
X65352292Y30572103D01*
X63074109Y27654554D02*
X64471699Y29240675D01*
X61525460Y26444324D02*
X63074109Y27654554D01*
X59829265Y25620525D02*
X61525460Y26444324D01*
X57989038Y25193695D02*
X59829265Y25620525D01*
X57951564Y25193695D02*
X57989038Y25193695D01*
X54248860Y24601168D02*
X57951564Y25193695D01*
X51037975Y23854069D02*
X54248860Y24601168D01*
X48445378Y22980502D02*
X51037975Y23854069D01*
X46597539Y22008571D02*
X48445378Y22980502D01*
X46560065Y21971099D02*
X46597539Y22008571D01*
X46410177Y21858683D02*
X46560065Y21971099D01*
X46822371Y20697050D02*
X46410177Y21858683D01*
X46944154Y20071150D02*
X46822371Y20697050D01*
X46869209Y19455789D02*
X46944154Y20071150D01*
X46611589Y18889609D02*
X46869209Y19455789D01*
X46185345Y18411255D02*
X46611589Y18889609D01*
X45534268Y18045903D02*
X46185345Y18411255D01*
X44798880Y17961591D02*
X45534268Y18045903D01*
X46035456Y14214388D02*
X44798880Y17961591D01*
X46147874Y13727250D02*
X46035456Y14214388D01*
X68706040Y13727250D02*
X46147874Y13727250D01*
X68706040Y13727250D02*
X68706040Y13727250D01*
X69262265Y13627715D02*
X68706040Y13727250D01*
X69727153Y13352530D02*
X69262265Y13627715D01*
X70065572Y12936825D02*
X69727153Y13352530D01*
X70242393Y12415730D02*
X70065572Y12936825D01*
X70279866Y12190897D02*
X70242393Y12415730D01*
X70279866Y1436422D02*
X70279866Y12190897D01*
X70279866Y1436422D02*
X70279866Y1436422D01*
X70118268Y860289D02*
X70279866Y1436422D01*
X69773994Y396573D02*
X70118268Y860289D01*
X69289199Y87429D02*
X69773994Y396573D01*
X68706040Y-24987D02*
X69289199Y87429D01*
X3167446Y-24987D02*
X68706040Y-24987D01*
X1556148Y-24987D02*
X3167446Y-24987D01*
X946642Y99724D02*
X1556148Y-24987D01*
X446039Y438729D02*
X946642Y99724D01*
X107034Y939332D02*
X446039Y438729D01*
X-17678Y1548839D02*
X107034Y939332D01*
X-17678Y12153424D02*
X-17678Y1548839D01*
X-17678Y12153424D02*
X-17678Y12153424D01*
X-17678Y12190897D02*
X-17678Y12153424D01*
X101179Y12800403D02*
X-17678Y12190897D01*
X427303Y13301006D02*
X101179Y12800403D01*
X915025Y13640012D02*
X427303Y13301006D01*
X1518676Y13764724D02*
X915025Y13640012D01*
X1518676Y13764724D02*
X1518676Y13764724D01*
X1518676Y13764724D02*
X1518676Y13764724D01*
X23739594Y13764724D02*
X1518676Y13764724D01*
X23852010Y14251859D02*
X23739594Y13764724D01*
X25088587Y17999063D02*
X23852010Y14251859D01*
X24535875Y18139583D02*
X25088587Y17999063D01*
X24039370Y18448727D02*
X24535875Y18139583D01*
X23613126Y18927081D02*
X24039370Y18448727D01*
X23355506Y19493261D02*
X23613126Y18927081D01*
X23280562Y20108622D02*
X23355506Y19493261D01*
X23402346Y20734522D02*
X23280562Y20108622D01*
X23814538Y21896155D02*
X23402346Y20734522D01*
X23627178Y22008571D02*
X23814538Y21896155D01*
X23589706Y22046043D02*
X23627178Y22008571D01*
X22374865Y22731518D02*
X23589706Y22046043D01*
X20904015Y23328290D02*
X22374865Y22731518D01*
X17589496Y24266262D02*
X20904015Y23328290D01*
X14436575Y24881038D02*
X17589496Y24266262D01*
X12235679Y25193695D02*
X14436575Y24881038D01*
X12160734Y25193695D02*
X12235679Y25193695D01*
X10320506Y25636333D02*
X12160734Y25193695D01*
X8624311Y26458376D02*
X10320506Y25636333D01*
X7075662Y27659823D02*
X8624311Y26458376D01*
X5678072Y29240675D02*
X7075662Y27659823D01*
X4781671Y30572689D02*
X5678072Y29240675D01*
X4099562Y31859034D02*
X4781671Y30572689D01*
X3279862Y33887208D02*
X4099562Y31859034D01*
X3214286Y34936425D02*
X3279862Y33887208D01*
X3654582Y35873226D02*
X3214286Y34936425D01*
X2699045Y37868612D02*
X3654582Y35873226D01*
X2080757Y39807790D02*
X2699045Y37868612D01*
X2005812Y40107566D02*
X2080757Y39807790D01*
X2001128Y40941319D02*
X2005812Y40107566D01*
X2305589Y41718864D02*
X2001128Y40941319D01*
X1598304Y43311425D02*
X2305589Y41718864D01*
X1256372Y44341906D02*
X1598304Y43311425D01*
X1214216Y45283391D02*
X1256372Y44341906D01*
X1593620Y46140564D02*
X1214216Y45283391D01*
X520983Y48398254D02*
X1593620Y46140564D01*
X-130094Y50599736D02*
X520983Y48398254D01*
X-154685Y51294140D02*
X-130094Y50599736D01*
X38531Y51939362D02*
X-154685Y51294140D01*
X428474Y52486219D02*
X38531Y51939362D01*
X994067Y52885531D02*
X428474Y52486219D01*
X1143956Y52960475D02*
X994067Y52885531D01*
X1809670Y53151934D02*
X1143956Y52960475D01*
X2478897Y53115047D02*
X1809670Y53151934D01*
X3098942Y52860354D02*
X2478897Y53115047D01*
X3617110Y52398394D02*
X3098942Y52860354D01*
X4366551Y51597429D02*
X3617110Y52398394D01*
X6240153Y49925240D02*
X4366551Y51597429D01*
X7590902Y48947454D02*
X6240153Y49925240D01*
X9261335Y47948590D02*
X7590902Y48947454D01*
X11219835Y47048090D02*
X9261335Y47948590D01*
X13434784Y46365396D02*
X11219835Y47048090D01*
X15875150Y45723688D02*
X13434784Y46365396D01*
X18680869Y44829043D02*
X15875150Y45723688D01*
X18830757Y44791571D02*
X18680869Y44829043D01*
X21641160Y43704882D02*
X18830757Y44791571D01*
X23491342Y42585404D02*
X21641160Y43704882D01*
X25088587Y41044367D02*
X23491342Y42585404D01*
X27074605Y38308908D02*
X25088587Y41044367D01*
X27336910Y38084076D02*
X27074605Y38308908D01*
X28817056Y36261998D02*
X27336910Y38084076D01*
X30522034Y34749065D02*
X28817056Y36261998D01*
X33257492Y43292689D02*
X30522034Y34749065D01*
X32578310Y44192018D02*
X33257492Y43292689D01*
X32320690Y45316179D02*
X32578310Y44192018D01*
X32530884Y46348417D02*
X32320690Y45316179D01*
X33102919Y47194465D02*
X32530884Y46348417D01*
X33948967Y47766499D02*
X33102919Y47194465D01*
X34981204Y47976694D02*
X33948967Y47766499D01*
X36013443Y47766499D02*
X34981204Y47976694D01*
X36859492Y47194465D02*
X36013443Y47766499D01*
X37431527Y46348417D02*
X36859492Y47194465D01*
X37641722Y45316179D02*
X37431527Y46348417D01*
X37384101Y44177966D02*
X37641722Y45316179D01*
X36704919Y43292689D02*
X37384101Y44177966D01*
X39477851Y34524232D02*
X36704919Y43292689D01*
X41328032Y36088690D02*
X39477851Y34524232D01*
X42925277Y38046604D02*
X41328032Y36088690D01*
X43112639Y38346380D02*
X42925277Y38046604D01*
X45098656Y41119311D02*
X43112639Y38346380D01*
X46695902Y42660349D02*
X45098656Y41119311D01*
X48546083Y43779826D02*
X46695902Y42660349D01*
X51356485Y44866515D02*
X48546083Y43779826D01*
X51506374Y44903987D02*
X51356485Y44866515D01*
X54279305Y45798632D02*
X51506374Y44903987D01*
X56714988Y46440340D02*
X54279305Y45798632D01*
X58929351Y47123034D02*
X56714988Y46440340D01*
X60883752Y48023534D02*
X58929351Y47123034D01*
X62543060Y49022398D02*
X60883752Y48023534D01*
X63872146Y50000184D02*
X62543060Y49022398D01*
X65787905Y51700478D02*
X63872146Y50000184D01*
X66495190Y52473338D02*
X65787905Y51700478D01*
X67013358Y52935298D02*
X66495190Y52473338D01*
X67633403Y53189991D02*
X67013358Y52935298D01*
X68302630Y53226878D02*
X67633403Y53189991D01*
X68968343Y53035419D02*
X68302630Y53226878D01*
X69118231Y52960475D02*
X68968343Y53035419D01*
M02*
