G04 #@! TF.FileFunction,Profile,NP*
%FSLAX46Y46*%
G04 Gerber Fmt 4.6, Leading zero omitted, Abs format (unit mm)*
G04 Created by KiCad (PCBNEW 4.0.7) date 2018 August 25, Saturday 11:39:21*
%MOMM*%
%LPD*%
G01*
G04 APERTURE LIST*
%ADD10C,0.100000*%
G04 APERTURE END LIST*
D10*
X70118231Y54210475D02*
X70118231Y54210475D01*
X70683240Y53809407D02*
X70118231Y54210475D01*
X71069085Y53250254D02*
X70683240Y53809407D01*
X71251176Y52571659D02*
X71069085Y53250254D01*
X71204922Y51812264D02*
X71251176Y52571659D01*
X70558529Y49596730D02*
X71204922Y51812264D01*
X69518678Y47353092D02*
X70558529Y49596730D01*
X69898083Y46495919D02*
X69518678Y47353092D01*
X69855928Y45554434D02*
X69898083Y46495919D01*
X69513995Y44538005D02*
X69855928Y45554434D01*
X68806711Y42931391D02*
X69513995Y44538005D01*
X69139275Y42167899D02*
X68806711Y42931391D01*
X69106487Y41320094D02*
X69139275Y42167899D01*
X69031543Y41020318D02*
X69106487Y41320094D01*
X68417938Y39067088D02*
X69031543Y41020318D01*
X67495190Y37085754D02*
X68417938Y39067088D01*
X67935487Y36148953D02*
X67495190Y37085754D01*
X67869911Y35099736D02*
X67935487Y36148953D01*
X67036156Y33104350D02*
X67869911Y35099736D01*
X66352292Y31822103D02*
X67036156Y33104350D01*
X65471699Y30490675D02*
X66352292Y31822103D01*
X64074109Y28904554D02*
X65471699Y30490675D01*
X62525460Y27694324D02*
X64074109Y28904554D01*
X60829265Y26870525D02*
X62525460Y27694324D01*
X58989038Y26443695D02*
X60829265Y26870525D01*
X58951564Y26443695D02*
X58989038Y26443695D01*
X55248860Y25851168D02*
X58951564Y26443695D01*
X52037975Y25104069D02*
X55248860Y25851168D01*
X49445378Y24230502D02*
X52037975Y25104069D01*
X47597539Y23258571D02*
X49445378Y24230502D01*
X47560065Y23221099D02*
X47597539Y23258571D01*
X47410177Y23108683D02*
X47560065Y23221099D01*
X47822371Y21947050D02*
X47410177Y23108683D01*
X47944154Y21321150D02*
X47822371Y21947050D01*
X47869209Y20705789D02*
X47944154Y21321150D01*
X47611589Y20139609D02*
X47869209Y20705789D01*
X47185345Y19661255D02*
X47611589Y20139609D01*
X46534268Y19295903D02*
X47185345Y19661255D01*
X45798880Y19211591D02*
X46534268Y19295903D01*
X47035456Y15464388D02*
X45798880Y19211591D01*
X47147874Y14977250D02*
X47035456Y15464388D01*
X69706040Y14977250D02*
X47147874Y14977250D01*
X69706040Y14977250D02*
X69706040Y14977250D01*
X70262265Y14877715D02*
X69706040Y14977250D01*
X70727153Y14602530D02*
X70262265Y14877715D01*
X71065572Y14186825D02*
X70727153Y14602530D01*
X71242393Y13665730D02*
X71065572Y14186825D01*
X71279866Y13440897D02*
X71242393Y13665730D01*
X71279866Y2686422D02*
X71279866Y13440897D01*
X71279866Y2686422D02*
X71279866Y2686422D01*
X71118268Y2110289D02*
X71279866Y2686422D01*
X70773994Y1646573D02*
X71118268Y2110289D01*
X70289199Y1337429D02*
X70773994Y1646573D01*
X69706040Y1225013D02*
X70289199Y1337429D01*
X4167446Y1225013D02*
X69706040Y1225013D01*
X2556148Y1225013D02*
X4167446Y1225013D01*
X1946642Y1349724D02*
X2556148Y1225013D01*
X1446039Y1688729D02*
X1946642Y1349724D01*
X1107034Y2189332D02*
X1446039Y1688729D01*
X982322Y2798839D02*
X1107034Y2189332D01*
X982322Y13403424D02*
X982322Y2798839D01*
X982322Y13403424D02*
X982322Y13403424D01*
X982322Y13440897D02*
X982322Y13403424D01*
X1101179Y14050403D02*
X982322Y13440897D01*
X1427303Y14551006D02*
X1101179Y14050403D01*
X1915025Y14890012D02*
X1427303Y14551006D01*
X2518676Y15014724D02*
X1915025Y14890012D01*
X2518676Y15014724D02*
X2518676Y15014724D01*
X2518676Y15014724D02*
X2518676Y15014724D01*
X24739594Y15014724D02*
X2518676Y15014724D01*
X24852010Y15501859D02*
X24739594Y15014724D01*
X26088587Y19249063D02*
X24852010Y15501859D01*
X25535875Y19389583D02*
X26088587Y19249063D01*
X25039370Y19698727D02*
X25535875Y19389583D01*
X24613126Y20177081D02*
X25039370Y19698727D01*
X24355506Y20743261D02*
X24613126Y20177081D01*
X24280562Y21358622D02*
X24355506Y20743261D01*
X24402346Y21984522D02*
X24280562Y21358622D01*
X24814538Y23146155D02*
X24402346Y21984522D01*
X24627178Y23258571D02*
X24814538Y23146155D01*
X24589706Y23296043D02*
X24627178Y23258571D01*
X23374865Y23981518D02*
X24589706Y23296043D01*
X21904015Y24578290D02*
X23374865Y23981518D01*
X18589496Y25516262D02*
X21904015Y24578290D01*
X15436575Y26131038D02*
X18589496Y25516262D01*
X13235679Y26443695D02*
X15436575Y26131038D01*
X13160734Y26443695D02*
X13235679Y26443695D01*
X11320506Y26886333D02*
X13160734Y26443695D01*
X9624311Y27708376D02*
X11320506Y26886333D01*
X8075662Y28909823D02*
X9624311Y27708376D01*
X6678072Y30490675D02*
X8075662Y28909823D01*
X5781671Y31822689D02*
X6678072Y30490675D01*
X5099562Y33109034D02*
X5781671Y31822689D01*
X4279862Y35137208D02*
X5099562Y33109034D01*
X4214286Y36186425D02*
X4279862Y35137208D01*
X4654582Y37123226D02*
X4214286Y36186425D01*
X3699045Y39118612D02*
X4654582Y37123226D01*
X3080757Y41057790D02*
X3699045Y39118612D01*
X3005812Y41357566D02*
X3080757Y41057790D01*
X3001128Y42191319D02*
X3005812Y41357566D01*
X3305589Y42968864D02*
X3001128Y42191319D01*
X2598304Y44561425D02*
X3305589Y42968864D01*
X2256372Y45591906D02*
X2598304Y44561425D01*
X2214216Y46533391D02*
X2256372Y45591906D01*
X2593620Y47390564D02*
X2214216Y46533391D01*
X1520983Y49648254D02*
X2593620Y47390564D01*
X869906Y51849736D02*
X1520983Y49648254D01*
X845315Y52544140D02*
X869906Y51849736D01*
X1038531Y53189362D02*
X845315Y52544140D01*
X1428474Y53736219D02*
X1038531Y53189362D01*
X1994067Y54135531D02*
X1428474Y53736219D01*
X2143956Y54210475D02*
X1994067Y54135531D01*
X2809670Y54401934D02*
X2143956Y54210475D01*
X3478897Y54365047D02*
X2809670Y54401934D01*
X4098942Y54110354D02*
X3478897Y54365047D01*
X4617110Y53648394D02*
X4098942Y54110354D01*
X5366551Y52847429D02*
X4617110Y53648394D01*
X7240153Y51175240D02*
X5366551Y52847429D01*
X8590902Y50197454D02*
X7240153Y51175240D01*
X10261335Y49198590D02*
X8590902Y50197454D01*
X12219835Y48298090D02*
X10261335Y49198590D01*
X14434784Y47615396D02*
X12219835Y48298090D01*
X16875150Y46973688D02*
X14434784Y47615396D01*
X19680869Y46079043D02*
X16875150Y46973688D01*
X19830757Y46041571D02*
X19680869Y46079043D01*
X22641160Y44954882D02*
X19830757Y46041571D01*
X24491342Y43835404D02*
X22641160Y44954882D01*
X26088587Y42294367D02*
X24491342Y43835404D01*
X28074605Y39558908D02*
X26088587Y42294367D01*
X28336910Y39334076D02*
X28074605Y39558908D01*
X29817056Y37511998D02*
X28336910Y39334076D01*
X31522034Y35999065D02*
X29817056Y37511998D01*
X34257492Y44542689D02*
X31522034Y35999065D01*
X33578310Y45442018D02*
X34257492Y44542689D01*
X33320690Y46566179D02*
X33578310Y45442018D01*
X33530884Y47598417D02*
X33320690Y46566179D01*
X34102919Y48444465D02*
X33530884Y47598417D01*
X34948967Y49016499D02*
X34102919Y48444465D01*
X35981204Y49226694D02*
X34948967Y49016499D01*
X37013443Y49016499D02*
X35981204Y49226694D01*
X37859492Y48444465D02*
X37013443Y49016499D01*
X38431527Y47598417D02*
X37859492Y48444465D01*
X38641722Y46566179D02*
X38431527Y47598417D01*
X38384101Y45427966D02*
X38641722Y46566179D01*
X37704919Y44542689D02*
X38384101Y45427966D01*
X40477851Y35774232D02*
X37704919Y44542689D01*
X42328032Y37338690D02*
X40477851Y35774232D01*
X43925277Y39296604D02*
X42328032Y37338690D01*
X44112639Y39596380D02*
X43925277Y39296604D01*
X46098656Y42369311D02*
X44112639Y39596380D01*
X47695902Y43910349D02*
X46098656Y42369311D01*
X49546083Y45029826D02*
X47695902Y43910349D01*
X52356485Y46116515D02*
X49546083Y45029826D01*
X52506374Y46153987D02*
X52356485Y46116515D01*
X55279305Y47048632D02*
X52506374Y46153987D01*
X57714988Y47690340D02*
X55279305Y47048632D01*
X59929351Y48373034D02*
X57714988Y47690340D01*
X61883752Y49273534D02*
X59929351Y48373034D01*
X63543060Y50272398D02*
X61883752Y49273534D01*
X64872146Y51250184D02*
X63543060Y50272398D01*
X66787905Y52950478D02*
X64872146Y51250184D01*
X67495190Y53723338D02*
X66787905Y52950478D01*
X68013358Y54185298D02*
X67495190Y53723338D01*
X68633403Y54439991D02*
X68013358Y54185298D01*
X69302630Y54476878D02*
X68633403Y54439991D01*
X69968343Y54285419D02*
X69302630Y54476878D01*
X70118231Y54210475D02*
X69968343Y54285419D01*
M02*
